%TF.GenerationSoftware,KiCad,Pcbnew,9.0.7*%
%TF.CreationDate,2026-03-25T20:07:33-05:00*%
%TF.ProjectId,left_handlebar_adapter,6c656674-5f68-4616-9e64-6c656261725f,rev?*%
%TF.SameCoordinates,Original*%
%TF.FileFunction,AssemblyDrawing,Top*%
%FSLAX46Y46*%
G04 Gerber Fmt 4.6, Leading zero omitted, Abs format (unit mm)*
G04 Created by KiCad (PCBNEW 9.0.7) date 2026-03-25 20:07:33*
%MOMM*%
%LPD*%
G01*
G04 APERTURE LIST*
%ADD10C,0.150000*%
%ADD11C,0.100000*%
G04 APERTURE END LIST*
D10*
X82258819Y-71453333D02*
X82973104Y-71453333D01*
X82973104Y-71453333D02*
X83115961Y-71500952D01*
X83115961Y-71500952D02*
X83211200Y-71596190D01*
X83211200Y-71596190D02*
X83258819Y-71739047D01*
X83258819Y-71739047D02*
X83258819Y-71834285D01*
X82354057Y-71024761D02*
X82306438Y-70977142D01*
X82306438Y-70977142D02*
X82258819Y-70881904D01*
X82258819Y-70881904D02*
X82258819Y-70643809D01*
X82258819Y-70643809D02*
X82306438Y-70548571D01*
X82306438Y-70548571D02*
X82354057Y-70500952D01*
X82354057Y-70500952D02*
X82449295Y-70453333D01*
X82449295Y-70453333D02*
X82544533Y-70453333D01*
X82544533Y-70453333D02*
X82687390Y-70500952D01*
X82687390Y-70500952D02*
X83258819Y-71072380D01*
X83258819Y-71072380D02*
X83258819Y-70453333D01*
X124170580Y-78010666D02*
X124218200Y-78058285D01*
X124218200Y-78058285D02*
X124265819Y-78201142D01*
X124265819Y-78201142D02*
X124265819Y-78296380D01*
X124265819Y-78296380D02*
X124218200Y-78439237D01*
X124218200Y-78439237D02*
X124122961Y-78534475D01*
X124122961Y-78534475D02*
X124027723Y-78582094D01*
X124027723Y-78582094D02*
X123837247Y-78629713D01*
X123837247Y-78629713D02*
X123694390Y-78629713D01*
X123694390Y-78629713D02*
X123503914Y-78582094D01*
X123503914Y-78582094D02*
X123408676Y-78534475D01*
X123408676Y-78534475D02*
X123313438Y-78439237D01*
X123313438Y-78439237D02*
X123265819Y-78296380D01*
X123265819Y-78296380D02*
X123265819Y-78201142D01*
X123265819Y-78201142D02*
X123313438Y-78058285D01*
X123313438Y-78058285D02*
X123361057Y-78010666D01*
X123265819Y-77677332D02*
X123265819Y-77058285D01*
X123265819Y-77058285D02*
X123646771Y-77391618D01*
X123646771Y-77391618D02*
X123646771Y-77248761D01*
X123646771Y-77248761D02*
X123694390Y-77153523D01*
X123694390Y-77153523D02*
X123742009Y-77105904D01*
X123742009Y-77105904D02*
X123837247Y-77058285D01*
X123837247Y-77058285D02*
X124075342Y-77058285D01*
X124075342Y-77058285D02*
X124170580Y-77105904D01*
X124170580Y-77105904D02*
X124218200Y-77153523D01*
X124218200Y-77153523D02*
X124265819Y-77248761D01*
X124265819Y-77248761D02*
X124265819Y-77534475D01*
X124265819Y-77534475D02*
X124218200Y-77629713D01*
X124218200Y-77629713D02*
X124170580Y-77677332D01*
X119454819Y-78166666D02*
X118978628Y-78499999D01*
X119454819Y-78738094D02*
X118454819Y-78738094D01*
X118454819Y-78738094D02*
X118454819Y-78357142D01*
X118454819Y-78357142D02*
X118502438Y-78261904D01*
X118502438Y-78261904D02*
X118550057Y-78214285D01*
X118550057Y-78214285D02*
X118645295Y-78166666D01*
X118645295Y-78166666D02*
X118788152Y-78166666D01*
X118788152Y-78166666D02*
X118883390Y-78214285D01*
X118883390Y-78214285D02*
X118931009Y-78261904D01*
X118931009Y-78261904D02*
X118978628Y-78357142D01*
X118978628Y-78357142D02*
X118978628Y-78738094D01*
X118454819Y-77833332D02*
X118454819Y-77214285D01*
X118454819Y-77214285D02*
X118835771Y-77547618D01*
X118835771Y-77547618D02*
X118835771Y-77404761D01*
X118835771Y-77404761D02*
X118883390Y-77309523D01*
X118883390Y-77309523D02*
X118931009Y-77261904D01*
X118931009Y-77261904D02*
X119026247Y-77214285D01*
X119026247Y-77214285D02*
X119264342Y-77214285D01*
X119264342Y-77214285D02*
X119359580Y-77261904D01*
X119359580Y-77261904D02*
X119407200Y-77309523D01*
X119407200Y-77309523D02*
X119454819Y-77404761D01*
X119454819Y-77404761D02*
X119454819Y-77690475D01*
X119454819Y-77690475D02*
X119407200Y-77785713D01*
X119407200Y-77785713D02*
X119359580Y-77833332D01*
X90509580Y-54766666D02*
X90557200Y-54814285D01*
X90557200Y-54814285D02*
X90604819Y-54957142D01*
X90604819Y-54957142D02*
X90604819Y-55052380D01*
X90604819Y-55052380D02*
X90557200Y-55195237D01*
X90557200Y-55195237D02*
X90461961Y-55290475D01*
X90461961Y-55290475D02*
X90366723Y-55338094D01*
X90366723Y-55338094D02*
X90176247Y-55385713D01*
X90176247Y-55385713D02*
X90033390Y-55385713D01*
X90033390Y-55385713D02*
X89842914Y-55338094D01*
X89842914Y-55338094D02*
X89747676Y-55290475D01*
X89747676Y-55290475D02*
X89652438Y-55195237D01*
X89652438Y-55195237D02*
X89604819Y-55052380D01*
X89604819Y-55052380D02*
X89604819Y-54957142D01*
X89604819Y-54957142D02*
X89652438Y-54814285D01*
X89652438Y-54814285D02*
X89700057Y-54766666D01*
X89604819Y-53861904D02*
X89604819Y-54338094D01*
X89604819Y-54338094D02*
X90081009Y-54385713D01*
X90081009Y-54385713D02*
X90033390Y-54338094D01*
X90033390Y-54338094D02*
X89985771Y-54242856D01*
X89985771Y-54242856D02*
X89985771Y-54004761D01*
X89985771Y-54004761D02*
X90033390Y-53909523D01*
X90033390Y-53909523D02*
X90081009Y-53861904D01*
X90081009Y-53861904D02*
X90176247Y-53814285D01*
X90176247Y-53814285D02*
X90414342Y-53814285D01*
X90414342Y-53814285D02*
X90509580Y-53861904D01*
X90509580Y-53861904D02*
X90557200Y-53909523D01*
X90557200Y-53909523D02*
X90604819Y-54004761D01*
X90604819Y-54004761D02*
X90604819Y-54242856D01*
X90604819Y-54242856D02*
X90557200Y-54338094D01*
X90557200Y-54338094D02*
X90509580Y-54385713D01*
X99359580Y-78916666D02*
X99407200Y-78964285D01*
X99407200Y-78964285D02*
X99454819Y-79107142D01*
X99454819Y-79107142D02*
X99454819Y-79202380D01*
X99454819Y-79202380D02*
X99407200Y-79345237D01*
X99407200Y-79345237D02*
X99311961Y-79440475D01*
X99311961Y-79440475D02*
X99216723Y-79488094D01*
X99216723Y-79488094D02*
X99026247Y-79535713D01*
X99026247Y-79535713D02*
X98883390Y-79535713D01*
X98883390Y-79535713D02*
X98692914Y-79488094D01*
X98692914Y-79488094D02*
X98597676Y-79440475D01*
X98597676Y-79440475D02*
X98502438Y-79345237D01*
X98502438Y-79345237D02*
X98454819Y-79202380D01*
X98454819Y-79202380D02*
X98454819Y-79107142D01*
X98454819Y-79107142D02*
X98502438Y-78964285D01*
X98502438Y-78964285D02*
X98550057Y-78916666D01*
X99454819Y-77964285D02*
X99454819Y-78535713D01*
X99454819Y-78249999D02*
X98454819Y-78249999D01*
X98454819Y-78249999D02*
X98597676Y-78345237D01*
X98597676Y-78345237D02*
X98692914Y-78440475D01*
X98692914Y-78440475D02*
X98740533Y-78535713D01*
X110454819Y-78166666D02*
X109978628Y-78499999D01*
X110454819Y-78738094D02*
X109454819Y-78738094D01*
X109454819Y-78738094D02*
X109454819Y-78357142D01*
X109454819Y-78357142D02*
X109502438Y-78261904D01*
X109502438Y-78261904D02*
X109550057Y-78214285D01*
X109550057Y-78214285D02*
X109645295Y-78166666D01*
X109645295Y-78166666D02*
X109788152Y-78166666D01*
X109788152Y-78166666D02*
X109883390Y-78214285D01*
X109883390Y-78214285D02*
X109931009Y-78261904D01*
X109931009Y-78261904D02*
X109978628Y-78357142D01*
X109978628Y-78357142D02*
X109978628Y-78738094D01*
X109550057Y-77785713D02*
X109502438Y-77738094D01*
X109502438Y-77738094D02*
X109454819Y-77642856D01*
X109454819Y-77642856D02*
X109454819Y-77404761D01*
X109454819Y-77404761D02*
X109502438Y-77309523D01*
X109502438Y-77309523D02*
X109550057Y-77261904D01*
X109550057Y-77261904D02*
X109645295Y-77214285D01*
X109645295Y-77214285D02*
X109740533Y-77214285D01*
X109740533Y-77214285D02*
X109883390Y-77261904D01*
X109883390Y-77261904D02*
X110454819Y-77833332D01*
X110454819Y-77833332D02*
X110454819Y-77214285D01*
X121454819Y-63603333D02*
X122169104Y-63603333D01*
X122169104Y-63603333D02*
X122311961Y-63650952D01*
X122311961Y-63650952D02*
X122407200Y-63746190D01*
X122407200Y-63746190D02*
X122454819Y-63889047D01*
X122454819Y-63889047D02*
X122454819Y-63984285D01*
X121788152Y-62698571D02*
X122454819Y-62698571D01*
X121407200Y-62936666D02*
X122121485Y-63174761D01*
X122121485Y-63174761D02*
X122121485Y-62555714D01*
X109509580Y-55266666D02*
X109557200Y-55314285D01*
X109557200Y-55314285D02*
X109604819Y-55457142D01*
X109604819Y-55457142D02*
X109604819Y-55552380D01*
X109604819Y-55552380D02*
X109557200Y-55695237D01*
X109557200Y-55695237D02*
X109461961Y-55790475D01*
X109461961Y-55790475D02*
X109366723Y-55838094D01*
X109366723Y-55838094D02*
X109176247Y-55885713D01*
X109176247Y-55885713D02*
X109033390Y-55885713D01*
X109033390Y-55885713D02*
X108842914Y-55838094D01*
X108842914Y-55838094D02*
X108747676Y-55790475D01*
X108747676Y-55790475D02*
X108652438Y-55695237D01*
X108652438Y-55695237D02*
X108604819Y-55552380D01*
X108604819Y-55552380D02*
X108604819Y-55457142D01*
X108604819Y-55457142D02*
X108652438Y-55314285D01*
X108652438Y-55314285D02*
X108700057Y-55266666D01*
X108938152Y-54409523D02*
X109604819Y-54409523D01*
X108557200Y-54647618D02*
X109271485Y-54885713D01*
X109271485Y-54885713D02*
X109271485Y-54266666D01*
X82512819Y-55710333D02*
X83227104Y-55710333D01*
X83227104Y-55710333D02*
X83369961Y-55757952D01*
X83369961Y-55757952D02*
X83465200Y-55853190D01*
X83465200Y-55853190D02*
X83512819Y-55996047D01*
X83512819Y-55996047D02*
X83512819Y-56091285D01*
X82512819Y-55329380D02*
X82512819Y-54710333D01*
X82512819Y-54710333D02*
X82893771Y-55043666D01*
X82893771Y-55043666D02*
X82893771Y-54900809D01*
X82893771Y-54900809D02*
X82941390Y-54805571D01*
X82941390Y-54805571D02*
X82989009Y-54757952D01*
X82989009Y-54757952D02*
X83084247Y-54710333D01*
X83084247Y-54710333D02*
X83322342Y-54710333D01*
X83322342Y-54710333D02*
X83417580Y-54757952D01*
X83417580Y-54757952D02*
X83465200Y-54805571D01*
X83465200Y-54805571D02*
X83512819Y-54900809D01*
X83512819Y-54900809D02*
X83512819Y-55186523D01*
X83512819Y-55186523D02*
X83465200Y-55281761D01*
X83465200Y-55281761D02*
X83417580Y-55329380D01*
X102604819Y-55016666D02*
X102128628Y-55349999D01*
X102604819Y-55588094D02*
X101604819Y-55588094D01*
X101604819Y-55588094D02*
X101604819Y-55207142D01*
X101604819Y-55207142D02*
X101652438Y-55111904D01*
X101652438Y-55111904D02*
X101700057Y-55064285D01*
X101700057Y-55064285D02*
X101795295Y-55016666D01*
X101795295Y-55016666D02*
X101938152Y-55016666D01*
X101938152Y-55016666D02*
X102033390Y-55064285D01*
X102033390Y-55064285D02*
X102081009Y-55111904D01*
X102081009Y-55111904D02*
X102128628Y-55207142D01*
X102128628Y-55207142D02*
X102128628Y-55588094D01*
X101938152Y-54159523D02*
X102604819Y-54159523D01*
X101557200Y-54397618D02*
X102271485Y-54635713D01*
X102271485Y-54635713D02*
X102271485Y-54016666D01*
X104359580Y-77916666D02*
X104407200Y-77964285D01*
X104407200Y-77964285D02*
X104454819Y-78107142D01*
X104454819Y-78107142D02*
X104454819Y-78202380D01*
X104454819Y-78202380D02*
X104407200Y-78345237D01*
X104407200Y-78345237D02*
X104311961Y-78440475D01*
X104311961Y-78440475D02*
X104216723Y-78488094D01*
X104216723Y-78488094D02*
X104026247Y-78535713D01*
X104026247Y-78535713D02*
X103883390Y-78535713D01*
X103883390Y-78535713D02*
X103692914Y-78488094D01*
X103692914Y-78488094D02*
X103597676Y-78440475D01*
X103597676Y-78440475D02*
X103502438Y-78345237D01*
X103502438Y-78345237D02*
X103454819Y-78202380D01*
X103454819Y-78202380D02*
X103454819Y-78107142D01*
X103454819Y-78107142D02*
X103502438Y-77964285D01*
X103502438Y-77964285D02*
X103550057Y-77916666D01*
X103550057Y-77535713D02*
X103502438Y-77488094D01*
X103502438Y-77488094D02*
X103454819Y-77392856D01*
X103454819Y-77392856D02*
X103454819Y-77154761D01*
X103454819Y-77154761D02*
X103502438Y-77059523D01*
X103502438Y-77059523D02*
X103550057Y-77011904D01*
X103550057Y-77011904D02*
X103645295Y-76964285D01*
X103645295Y-76964285D02*
X103740533Y-76964285D01*
X103740533Y-76964285D02*
X103883390Y-77011904D01*
X103883390Y-77011904D02*
X104454819Y-77583332D01*
X104454819Y-77583332D02*
X104454819Y-76964285D01*
X93454819Y-79166666D02*
X92978628Y-79499999D01*
X93454819Y-79738094D02*
X92454819Y-79738094D01*
X92454819Y-79738094D02*
X92454819Y-79357142D01*
X92454819Y-79357142D02*
X92502438Y-79261904D01*
X92502438Y-79261904D02*
X92550057Y-79214285D01*
X92550057Y-79214285D02*
X92645295Y-79166666D01*
X92645295Y-79166666D02*
X92788152Y-79166666D01*
X92788152Y-79166666D02*
X92883390Y-79214285D01*
X92883390Y-79214285D02*
X92931009Y-79261904D01*
X92931009Y-79261904D02*
X92978628Y-79357142D01*
X92978628Y-79357142D02*
X92978628Y-79738094D01*
X93454819Y-78214285D02*
X93454819Y-78785713D01*
X93454819Y-78499999D02*
X92454819Y-78499999D01*
X92454819Y-78499999D02*
X92597676Y-78595237D01*
X92597676Y-78595237D02*
X92692914Y-78690475D01*
X92692914Y-78690475D02*
X92740533Y-78785713D01*
X83936666Y-84454819D02*
X83936666Y-85169104D01*
X83936666Y-85169104D02*
X83889047Y-85311961D01*
X83889047Y-85311961D02*
X83793809Y-85407200D01*
X83793809Y-85407200D02*
X83650952Y-85454819D01*
X83650952Y-85454819D02*
X83555714Y-85454819D01*
X84936666Y-85454819D02*
X84365238Y-85454819D01*
X84650952Y-85454819D02*
X84650952Y-84454819D01*
X84650952Y-84454819D02*
X84555714Y-84597676D01*
X84555714Y-84597676D02*
X84460476Y-84692914D01*
X84460476Y-84692914D02*
X84365238Y-84740533D01*
X96604819Y-54753666D02*
X96128628Y-55086999D01*
X96604819Y-55325094D02*
X95604819Y-55325094D01*
X95604819Y-55325094D02*
X95604819Y-54944142D01*
X95604819Y-54944142D02*
X95652438Y-54848904D01*
X95652438Y-54848904D02*
X95700057Y-54801285D01*
X95700057Y-54801285D02*
X95795295Y-54753666D01*
X95795295Y-54753666D02*
X95938152Y-54753666D01*
X95938152Y-54753666D02*
X96033390Y-54801285D01*
X96033390Y-54801285D02*
X96081009Y-54848904D01*
X96081009Y-54848904D02*
X96128628Y-54944142D01*
X96128628Y-54944142D02*
X96128628Y-55325094D01*
X95604819Y-53848904D02*
X95604819Y-54325094D01*
X95604819Y-54325094D02*
X96081009Y-54372713D01*
X96081009Y-54372713D02*
X96033390Y-54325094D01*
X96033390Y-54325094D02*
X95985771Y-54229856D01*
X95985771Y-54229856D02*
X95985771Y-53991761D01*
X95985771Y-53991761D02*
X96033390Y-53896523D01*
X96033390Y-53896523D02*
X96081009Y-53848904D01*
X96081009Y-53848904D02*
X96176247Y-53801285D01*
X96176247Y-53801285D02*
X96414342Y-53801285D01*
X96414342Y-53801285D02*
X96509580Y-53848904D01*
X96509580Y-53848904D02*
X96557200Y-53896523D01*
X96557200Y-53896523D02*
X96604819Y-53991761D01*
X96604819Y-53991761D02*
X96604819Y-54229856D01*
X96604819Y-54229856D02*
X96557200Y-54325094D01*
X96557200Y-54325094D02*
X96509580Y-54372713D01*
D11*
X81534000Y-61595000D02*
X82169000Y-60960000D01*
X81534000Y-81280000D02*
X81534000Y-61595000D01*
X82169000Y-60960000D02*
X84074000Y-60960000D01*
X84074000Y-60960000D02*
X84074000Y-81280000D01*
X84074000Y-81280000D02*
X81534000Y-81280000D01*
X125061000Y-75344000D02*
X122561000Y-75344000D01*
X122561000Y-80344000D01*
X125061000Y-80344000D01*
X125061000Y-75344000D01*
X119000000Y-74190000D02*
X119000000Y-74850000D01*
X119000000Y-81810000D02*
X119000000Y-81150000D01*
X117750000Y-81150000D02*
X120250000Y-81150000D01*
X120250000Y-74850000D01*
X117750000Y-74850000D01*
X117750000Y-81150000D01*
X88900000Y-57100000D02*
X91400000Y-57100000D01*
X91400000Y-52100000D01*
X88900000Y-52100000D01*
X88900000Y-57100000D01*
X100250000Y-76250000D02*
X97750000Y-76250000D01*
X97750000Y-81250000D01*
X100250000Y-81250000D01*
X100250000Y-76250000D01*
X110000000Y-74190000D02*
X110000000Y-74850000D01*
X110000000Y-81810000D02*
X110000000Y-81150000D01*
X111250000Y-74850000D02*
X108750000Y-74850000D01*
X108750000Y-81150000D01*
X111250000Y-81150000D01*
X111250000Y-74850000D01*
X120730000Y-58825000D02*
X121365000Y-58190000D01*
X120730000Y-68350000D02*
X120730000Y-58825000D01*
X121365000Y-58190000D02*
X123270000Y-58190000D01*
X123270000Y-58190000D02*
X123270000Y-68350000D01*
X123270000Y-68350000D02*
X120730000Y-68350000D01*
X107900000Y-57600000D02*
X110400000Y-57600000D01*
X110400000Y-52600000D01*
X107900000Y-52600000D01*
X107900000Y-57600000D01*
X81788000Y-52837000D02*
X84328000Y-52837000D01*
X81788000Y-57917000D02*
X81788000Y-52837000D01*
X83693000Y-57917000D02*
X81788000Y-57917000D01*
X84328000Y-52837000D02*
X84328000Y-57282000D01*
X84328000Y-57282000D02*
X83693000Y-57917000D01*
X102150000Y-51040000D02*
X102150000Y-51700000D01*
X102150000Y-58660000D02*
X102150000Y-58000000D01*
X103400000Y-51700000D02*
X100900000Y-51700000D01*
X100900000Y-58000000D01*
X103400000Y-58000000D01*
X103400000Y-51700000D01*
X102750000Y-80250000D02*
X105250000Y-80250000D01*
X105250000Y-75250000D01*
X102750000Y-75250000D01*
X102750000Y-80250000D01*
X93000000Y-75190000D02*
X93000000Y-75850000D01*
X93000000Y-82810000D02*
X93000000Y-82150000D01*
X91750000Y-82150000D02*
X94250000Y-82150000D01*
X94250000Y-75850000D01*
X91750000Y-75850000D01*
X91750000Y-82150000D01*
X81730000Y-83730000D02*
X86810000Y-83730000D01*
X81730000Y-85635000D02*
X81730000Y-83730000D01*
X82365000Y-86270000D02*
X81730000Y-85635000D01*
X86810000Y-83730000D02*
X86810000Y-86270000D01*
X86810000Y-86270000D02*
X82365000Y-86270000D01*
X96150000Y-50777000D02*
X96150000Y-51437000D01*
X96150000Y-58397000D02*
X96150000Y-57737000D01*
X97400000Y-51437000D02*
X94900000Y-51437000D01*
X94900000Y-57737000D01*
X97400000Y-57737000D01*
X97400000Y-51437000D01*
M02*
