%TF.GenerationSoftware,KiCad,Pcbnew,9.0.7*%
%TF.CreationDate,2026-03-25T20:07:31-05:00*%
%TF.ProjectId,left_handlebar_adapter,6c656674-5f68-4616-9e64-6c656261725f,rev?*%
%TF.SameCoordinates,Original*%
%TF.FileFunction,Copper,L2,Bot*%
%TF.FilePolarity,Positive*%
%FSLAX46Y46*%
G04 Gerber Fmt 4.6, Leading zero omitted, Abs format (unit mm)*
G04 Created by KiCad (PCBNEW 9.0.7) date 2026-03-25 20:07:31*
%MOMM*%
%LPD*%
G01*
G04 APERTURE LIST*
%TA.AperFunction,ComponentPad*%
%ADD10R,1.900000X1.900000*%
%TD*%
%TA.AperFunction,ComponentPad*%
%ADD11C,1.900000*%
%TD*%
%TA.AperFunction,ComponentPad*%
%ADD12C,1.850000*%
%TD*%
%TA.AperFunction,ComponentPad*%
%ADD13C,2.000000*%
%TD*%
%TA.AperFunction,ComponentPad*%
%ADD14C,1.600000*%
%TD*%
%TA.AperFunction,ComponentPad*%
%ADD15R,2.000000X2.000000*%
%TD*%
%TA.AperFunction,Conductor*%
%ADD16C,1.000000*%
%TD*%
G04 APERTURE END LIST*
D10*
X82804000Y-62230000D03*
D11*
X82804000Y-64770000D03*
X82804000Y-67310000D03*
D12*
X82804000Y-69850000D03*
X82804000Y-72390000D03*
X82804000Y-74930000D03*
X82804000Y-77470000D03*
X82804000Y-80010000D03*
D11*
X123811000Y-76594000D03*
X123811000Y-79094000D03*
D13*
X119000000Y-81810000D03*
X119000000Y-74190000D03*
D14*
X90150000Y-55850000D03*
X90150000Y-53350000D03*
X99000000Y-77500000D03*
X99000000Y-80000000D03*
D13*
X110000000Y-74190000D03*
X110000000Y-81810000D03*
D10*
X122000000Y-59460000D03*
D12*
X122000000Y-62000000D03*
X122000000Y-64540000D03*
X122000000Y-67080000D03*
D14*
X109150000Y-56350000D03*
X109150000Y-53850000D03*
D10*
X83058000Y-56647000D03*
D13*
X83058000Y-54107000D03*
X102150000Y-51040000D03*
X102150000Y-58660000D03*
D14*
X104000000Y-79000000D03*
X104000000Y-76500000D03*
D13*
X93000000Y-82810000D03*
X93000000Y-75190000D03*
D15*
X83000000Y-85000000D03*
D13*
X85540000Y-85000000D03*
X96150000Y-50777000D03*
X96150000Y-58397000D03*
D16*
X121716000Y-79094000D02*
X119000000Y-81810000D01*
X107690000Y-76500000D02*
X110000000Y-74190000D01*
X119000000Y-81810000D02*
X115810000Y-85000000D01*
X104000000Y-76500000D02*
X107690000Y-76500000D01*
X102150000Y-51040000D02*
X96413000Y-51040000D01*
X123811000Y-79094000D02*
X121716000Y-79094000D01*
X95000000Y-85000000D02*
X95000000Y-84810000D01*
X80000000Y-84000000D02*
X76000000Y-80000000D01*
X100453001Y-80000000D02*
X103953001Y-76500000D01*
X84002000Y-88000000D02*
X80000000Y-88000000D01*
X85540000Y-85000000D02*
X90810000Y-85000000D01*
X96413000Y-51040000D02*
X96150000Y-50777000D01*
X96150000Y-50777000D02*
X92723000Y-50777000D01*
X76000000Y-53000000D02*
X78225000Y-50775000D01*
X115810000Y-85000000D02*
X95000000Y-85000000D01*
X109150000Y-53850000D02*
X106700000Y-51400000D01*
X103953001Y-76500000D02*
X104000000Y-76500000D01*
X92723000Y-50777000D02*
X90150000Y-53350000D01*
X106700000Y-51400000D02*
X105300000Y-51400000D01*
X105300000Y-51400000D02*
X104940000Y-51040000D01*
X99000000Y-80000000D02*
X95810000Y-80000000D01*
X85540000Y-85000000D02*
X85540000Y-86462000D01*
X90150000Y-53350000D02*
X88650000Y-53350000D01*
X88650000Y-53350000D02*
X86075000Y-50775000D01*
X76000000Y-80000000D02*
X76000000Y-53000000D01*
X104940000Y-51040000D02*
X102150000Y-51040000D01*
X90810000Y-85000000D02*
X93000000Y-82810000D01*
X86075000Y-50775000D02*
X78225000Y-50775000D01*
X95810000Y-80000000D02*
X93000000Y-82810000D01*
X80000000Y-88000000D02*
X80000000Y-84000000D01*
X99000000Y-80000000D02*
X100453001Y-80000000D01*
X85540000Y-86462000D02*
X84002000Y-88000000D01*
X95000000Y-84810000D02*
X93000000Y-82810000D01*
X93000000Y-75190000D02*
X90720000Y-77470000D01*
X122000000Y-59460000D02*
X117540000Y-59460000D01*
X112000000Y-65000000D02*
X112000000Y-69000000D01*
X99000000Y-74000000D02*
X99000000Y-77500000D01*
X90720000Y-77470000D02*
X82804000Y-77470000D01*
X109000000Y-72000000D02*
X101000000Y-72000000D01*
X101000000Y-72000000D02*
X99000000Y-74000000D01*
X117540000Y-59460000D02*
X112000000Y-65000000D01*
X112000000Y-69000000D02*
X109000000Y-72000000D01*
X99000000Y-77500000D02*
X95310000Y-77500000D01*
X95310000Y-77500000D02*
X93000000Y-75190000D01*
X122000000Y-62000000D02*
X118000000Y-62000000D01*
X126000000Y-58000000D02*
X126000000Y-59362000D01*
X107190000Y-79000000D02*
X110000000Y-81810000D01*
X117000000Y-56000000D02*
X124000000Y-56000000D01*
X118000000Y-62000000D02*
X115000000Y-65000000D01*
X109000000Y-68000000D02*
X109000000Y-64000000D01*
X96610000Y-72390000D02*
X101000000Y-68000000D01*
X123362000Y-62000000D02*
X122000000Y-62000000D01*
X126000000Y-59362000D02*
X123362000Y-62000000D01*
X124000000Y-56000000D02*
X126000000Y-58000000D01*
X109000000Y-64000000D02*
X117000000Y-56000000D01*
X101000000Y-68000000D02*
X109000000Y-68000000D01*
X82804000Y-72390000D02*
X96610000Y-72390000D01*
X115000000Y-65000000D02*
X115000000Y-76810000D01*
X104000000Y-79000000D02*
X107190000Y-79000000D01*
X115000000Y-76810000D02*
X110000000Y-81810000D01*
X119000000Y-66231853D02*
X120691853Y-64540000D01*
X105000000Y-65000000D02*
X100000000Y-65000000D01*
X100000000Y-65000000D02*
X95000000Y-70000000D01*
X124460000Y-64540000D02*
X128000000Y-61000000D01*
X119000000Y-74190000D02*
X119000000Y-66231853D01*
X125000000Y-54000000D02*
X116000000Y-54000000D01*
X123811000Y-76594000D02*
X121404000Y-76594000D01*
X128000000Y-57000000D02*
X125000000Y-54000000D01*
X120691853Y-64540000D02*
X122000000Y-64540000D01*
X95000000Y-70000000D02*
X90000000Y-70000000D01*
X90000000Y-70000000D02*
X89850000Y-69850000D01*
X128000000Y-61000000D02*
X128000000Y-57000000D01*
X89850000Y-69850000D02*
X82804000Y-69850000D01*
X116000000Y-54000000D02*
X105000000Y-65000000D01*
X122000000Y-64540000D02*
X124460000Y-64540000D01*
X121404000Y-76594000D02*
X119000000Y-74190000D01*
X102150000Y-58660000D02*
X106840000Y-58660000D01*
X110450000Y-56350000D02*
X115300000Y-51500000D01*
X86000000Y-59589000D02*
X83058000Y-56647000D01*
X106840000Y-58660000D02*
X109150000Y-56350000D01*
X87406000Y-57700000D02*
X86353000Y-56647000D01*
X130000000Y-62000000D02*
X124920000Y-67080000D01*
X82804000Y-64770000D02*
X84230000Y-64770000D01*
X109150000Y-56350000D02*
X110450000Y-56350000D01*
X90150000Y-55850000D02*
X88300000Y-57700000D01*
X96150000Y-58397000D02*
X101887000Y-58397000D01*
X128500000Y-51500000D02*
X130000000Y-53000000D01*
X84230000Y-64770000D02*
X86000000Y-63000000D01*
X86000000Y-63000000D02*
X86000000Y-59589000D01*
X92697000Y-58397000D02*
X90150000Y-55850000D01*
X130000000Y-53000000D02*
X130000000Y-62000000D01*
X96150000Y-58397000D02*
X92697000Y-58397000D01*
X101887000Y-58397000D02*
X102150000Y-58660000D01*
X124920000Y-67080000D02*
X122000000Y-67080000D01*
X88300000Y-57700000D02*
X87406000Y-57700000D01*
X115300000Y-51500000D02*
X128500000Y-51500000D01*
X96413000Y-58660000D02*
X96150000Y-58397000D01*
X86353000Y-56647000D02*
X83058000Y-56647000D01*
X82804000Y-67310000D02*
X81310000Y-67310000D01*
X83000000Y-80206000D02*
X82804000Y-80010000D01*
X79000000Y-65000000D02*
X79000000Y-56750787D01*
X79000000Y-72434147D02*
X81495853Y-74930000D01*
X79000000Y-77514147D02*
X79000000Y-72434147D01*
X81495853Y-80010000D02*
X79000000Y-77514147D01*
X82804000Y-80010000D02*
X81495853Y-80010000D01*
X83000000Y-85000000D02*
X83000000Y-80206000D01*
X79000000Y-65000000D02*
X79000000Y-72434147D01*
X81643787Y-54107000D02*
X83058000Y-54107000D01*
X81310000Y-67310000D02*
X79000000Y-65000000D01*
X79000000Y-56750787D02*
X81643787Y-54107000D01*
X81495853Y-74930000D02*
X82804000Y-74930000D01*
M02*
