%TF.GenerationSoftware,KiCad,Pcbnew,9.0.7*%
%TF.CreationDate,2026-03-25T20:07:32-05:00*%
%TF.ProjectId,left_handlebar_adapter,6c656674-5f68-4616-9e64-6c656261725f,rev?*%
%TF.SameCoordinates,Original*%
%TF.FileFunction,Legend,Top*%
%TF.FilePolarity,Positive*%
%FSLAX46Y46*%
G04 Gerber Fmt 4.6, Leading zero omitted, Abs format (unit mm)*
G04 Created by KiCad (PCBNEW 9.0.7) date 2026-03-25 20:07:32*
%MOMM*%
%LPD*%
G01*
G04 APERTURE LIST*
%ADD10C,0.150000*%
%ADD11C,0.120000*%
G04 APERTURE END LIST*
D10*
X102033333Y-62079819D02*
X101700000Y-61603628D01*
X101461905Y-62079819D02*
X101461905Y-61079819D01*
X101461905Y-61079819D02*
X101842857Y-61079819D01*
X101842857Y-61079819D02*
X101938095Y-61127438D01*
X101938095Y-61127438D02*
X101985714Y-61175057D01*
X101985714Y-61175057D02*
X102033333Y-61270295D01*
X102033333Y-61270295D02*
X102033333Y-61413152D01*
X102033333Y-61413152D02*
X101985714Y-61508390D01*
X101985714Y-61508390D02*
X101938095Y-61556009D01*
X101938095Y-61556009D02*
X101842857Y-61603628D01*
X101842857Y-61603628D02*
X101461905Y-61603628D01*
X102890476Y-61413152D02*
X102890476Y-62079819D01*
X102652381Y-61032200D02*
X102414286Y-61746485D01*
X102414286Y-61746485D02*
X103033333Y-61746485D01*
X97286779Y-66709875D02*
X97286779Y-65709875D01*
X97286779Y-66186065D02*
X97858207Y-66186065D01*
X97858207Y-66709875D02*
X97858207Y-65709875D01*
X98762969Y-66709875D02*
X98762969Y-66186065D01*
X98762969Y-66186065D02*
X98715350Y-66090827D01*
X98715350Y-66090827D02*
X98620112Y-66043208D01*
X98620112Y-66043208D02*
X98429636Y-66043208D01*
X98429636Y-66043208D02*
X98334398Y-66090827D01*
X98762969Y-66662256D02*
X98667731Y-66709875D01*
X98667731Y-66709875D02*
X98429636Y-66709875D01*
X98429636Y-66709875D02*
X98334398Y-66662256D01*
X98334398Y-66662256D02*
X98286779Y-66567017D01*
X98286779Y-66567017D02*
X98286779Y-66471779D01*
X98286779Y-66471779D02*
X98334398Y-66376541D01*
X98334398Y-66376541D02*
X98429636Y-66328922D01*
X98429636Y-66328922D02*
X98667731Y-66328922D01*
X98667731Y-66328922D02*
X98762969Y-66281303D01*
X99239160Y-66043208D02*
X99239160Y-66709875D01*
X99239160Y-66138446D02*
X99286779Y-66090827D01*
X99286779Y-66090827D02*
X99382017Y-66043208D01*
X99382017Y-66043208D02*
X99524874Y-66043208D01*
X99524874Y-66043208D02*
X99620112Y-66090827D01*
X99620112Y-66090827D02*
X99667731Y-66186065D01*
X99667731Y-66186065D02*
X99667731Y-66709875D01*
X100572493Y-66709875D02*
X100572493Y-65709875D01*
X100572493Y-66662256D02*
X100477255Y-66709875D01*
X100477255Y-66709875D02*
X100286779Y-66709875D01*
X100286779Y-66709875D02*
X100191541Y-66662256D01*
X100191541Y-66662256D02*
X100143922Y-66614636D01*
X100143922Y-66614636D02*
X100096303Y-66519398D01*
X100096303Y-66519398D02*
X100096303Y-66233684D01*
X100096303Y-66233684D02*
X100143922Y-66138446D01*
X100143922Y-66138446D02*
X100191541Y-66090827D01*
X100191541Y-66090827D02*
X100286779Y-66043208D01*
X100286779Y-66043208D02*
X100477255Y-66043208D01*
X100477255Y-66043208D02*
X100572493Y-66090827D01*
X101191541Y-66709875D02*
X101096303Y-66662256D01*
X101096303Y-66662256D02*
X101048684Y-66567017D01*
X101048684Y-66567017D02*
X101048684Y-65709875D01*
X101953446Y-66662256D02*
X101858208Y-66709875D01*
X101858208Y-66709875D02*
X101667732Y-66709875D01*
X101667732Y-66709875D02*
X101572494Y-66662256D01*
X101572494Y-66662256D02*
X101524875Y-66567017D01*
X101524875Y-66567017D02*
X101524875Y-66186065D01*
X101524875Y-66186065D02*
X101572494Y-66090827D01*
X101572494Y-66090827D02*
X101667732Y-66043208D01*
X101667732Y-66043208D02*
X101858208Y-66043208D01*
X101858208Y-66043208D02*
X101953446Y-66090827D01*
X101953446Y-66090827D02*
X102001065Y-66186065D01*
X102001065Y-66186065D02*
X102001065Y-66281303D01*
X102001065Y-66281303D02*
X101524875Y-66376541D01*
X102429637Y-66709875D02*
X102429637Y-65709875D01*
X102429637Y-66090827D02*
X102524875Y-66043208D01*
X102524875Y-66043208D02*
X102715351Y-66043208D01*
X102715351Y-66043208D02*
X102810589Y-66090827D01*
X102810589Y-66090827D02*
X102858208Y-66138446D01*
X102858208Y-66138446D02*
X102905827Y-66233684D01*
X102905827Y-66233684D02*
X102905827Y-66519398D01*
X102905827Y-66519398D02*
X102858208Y-66614636D01*
X102858208Y-66614636D02*
X102810589Y-66662256D01*
X102810589Y-66662256D02*
X102715351Y-66709875D01*
X102715351Y-66709875D02*
X102524875Y-66709875D01*
X102524875Y-66709875D02*
X102429637Y-66662256D01*
X103762970Y-66709875D02*
X103762970Y-66186065D01*
X103762970Y-66186065D02*
X103715351Y-66090827D01*
X103715351Y-66090827D02*
X103620113Y-66043208D01*
X103620113Y-66043208D02*
X103429637Y-66043208D01*
X103429637Y-66043208D02*
X103334399Y-66090827D01*
X103762970Y-66662256D02*
X103667732Y-66709875D01*
X103667732Y-66709875D02*
X103429637Y-66709875D01*
X103429637Y-66709875D02*
X103334399Y-66662256D01*
X103334399Y-66662256D02*
X103286780Y-66567017D01*
X103286780Y-66567017D02*
X103286780Y-66471779D01*
X103286780Y-66471779D02*
X103334399Y-66376541D01*
X103334399Y-66376541D02*
X103429637Y-66328922D01*
X103429637Y-66328922D02*
X103667732Y-66328922D01*
X103667732Y-66328922D02*
X103762970Y-66281303D01*
X104239161Y-66709875D02*
X104239161Y-66043208D01*
X104239161Y-66233684D02*
X104286780Y-66138446D01*
X104286780Y-66138446D02*
X104334399Y-66090827D01*
X104334399Y-66090827D02*
X104429637Y-66043208D01*
X104429637Y-66043208D02*
X104524875Y-66043208D01*
X105572495Y-66424160D02*
X106048685Y-66424160D01*
X105477257Y-66709875D02*
X105810590Y-65709875D01*
X105810590Y-65709875D02*
X106143923Y-66709875D01*
X106905828Y-66709875D02*
X106905828Y-65709875D01*
X106905828Y-66662256D02*
X106810590Y-66709875D01*
X106810590Y-66709875D02*
X106620114Y-66709875D01*
X106620114Y-66709875D02*
X106524876Y-66662256D01*
X106524876Y-66662256D02*
X106477257Y-66614636D01*
X106477257Y-66614636D02*
X106429638Y-66519398D01*
X106429638Y-66519398D02*
X106429638Y-66233684D01*
X106429638Y-66233684D02*
X106477257Y-66138446D01*
X106477257Y-66138446D02*
X106524876Y-66090827D01*
X106524876Y-66090827D02*
X106620114Y-66043208D01*
X106620114Y-66043208D02*
X106810590Y-66043208D01*
X106810590Y-66043208D02*
X106905828Y-66090827D01*
X107810590Y-66709875D02*
X107810590Y-66186065D01*
X107810590Y-66186065D02*
X107762971Y-66090827D01*
X107762971Y-66090827D02*
X107667733Y-66043208D01*
X107667733Y-66043208D02*
X107477257Y-66043208D01*
X107477257Y-66043208D02*
X107382019Y-66090827D01*
X107810590Y-66662256D02*
X107715352Y-66709875D01*
X107715352Y-66709875D02*
X107477257Y-66709875D01*
X107477257Y-66709875D02*
X107382019Y-66662256D01*
X107382019Y-66662256D02*
X107334400Y-66567017D01*
X107334400Y-66567017D02*
X107334400Y-66471779D01*
X107334400Y-66471779D02*
X107382019Y-66376541D01*
X107382019Y-66376541D02*
X107477257Y-66328922D01*
X107477257Y-66328922D02*
X107715352Y-66328922D01*
X107715352Y-66328922D02*
X107810590Y-66281303D01*
X108286781Y-66043208D02*
X108286781Y-67043208D01*
X108286781Y-66090827D02*
X108382019Y-66043208D01*
X108382019Y-66043208D02*
X108572495Y-66043208D01*
X108572495Y-66043208D02*
X108667733Y-66090827D01*
X108667733Y-66090827D02*
X108715352Y-66138446D01*
X108715352Y-66138446D02*
X108762971Y-66233684D01*
X108762971Y-66233684D02*
X108762971Y-66519398D01*
X108762971Y-66519398D02*
X108715352Y-66614636D01*
X108715352Y-66614636D02*
X108667733Y-66662256D01*
X108667733Y-66662256D02*
X108572495Y-66709875D01*
X108572495Y-66709875D02*
X108382019Y-66709875D01*
X108382019Y-66709875D02*
X108286781Y-66662256D01*
X109048686Y-66043208D02*
X109429638Y-66043208D01*
X109191543Y-65709875D02*
X109191543Y-66567017D01*
X109191543Y-66567017D02*
X109239162Y-66662256D01*
X109239162Y-66662256D02*
X109334400Y-66709875D01*
X109334400Y-66709875D02*
X109429638Y-66709875D01*
X110143924Y-66662256D02*
X110048686Y-66709875D01*
X110048686Y-66709875D02*
X109858210Y-66709875D01*
X109858210Y-66709875D02*
X109762972Y-66662256D01*
X109762972Y-66662256D02*
X109715353Y-66567017D01*
X109715353Y-66567017D02*
X109715353Y-66186065D01*
X109715353Y-66186065D02*
X109762972Y-66090827D01*
X109762972Y-66090827D02*
X109858210Y-66043208D01*
X109858210Y-66043208D02*
X110048686Y-66043208D01*
X110048686Y-66043208D02*
X110143924Y-66090827D01*
X110143924Y-66090827D02*
X110191543Y-66186065D01*
X110191543Y-66186065D02*
X110191543Y-66281303D01*
X110191543Y-66281303D02*
X109715353Y-66376541D01*
X110620115Y-66709875D02*
X110620115Y-66043208D01*
X110620115Y-66233684D02*
X110667734Y-66138446D01*
X110667734Y-66138446D02*
X110715353Y-66090827D01*
X110715353Y-66090827D02*
X110810591Y-66043208D01*
X110810591Y-66043208D02*
X110905829Y-66043208D01*
X97143922Y-67319819D02*
X97477255Y-68319819D01*
X97477255Y-68319819D02*
X97810588Y-67319819D01*
X98524874Y-68272200D02*
X98429636Y-68319819D01*
X98429636Y-68319819D02*
X98239160Y-68319819D01*
X98239160Y-68319819D02*
X98143922Y-68272200D01*
X98143922Y-68272200D02*
X98096303Y-68176961D01*
X98096303Y-68176961D02*
X98096303Y-67796009D01*
X98096303Y-67796009D02*
X98143922Y-67700771D01*
X98143922Y-67700771D02*
X98239160Y-67653152D01*
X98239160Y-67653152D02*
X98429636Y-67653152D01*
X98429636Y-67653152D02*
X98524874Y-67700771D01*
X98524874Y-67700771D02*
X98572493Y-67796009D01*
X98572493Y-67796009D02*
X98572493Y-67891247D01*
X98572493Y-67891247D02*
X98096303Y-67986485D01*
X99001065Y-68319819D02*
X99001065Y-67653152D01*
X99001065Y-67843628D02*
X99048684Y-67748390D01*
X99048684Y-67748390D02*
X99096303Y-67700771D01*
X99096303Y-67700771D02*
X99191541Y-67653152D01*
X99191541Y-67653152D02*
X99286779Y-67653152D01*
X99572494Y-68272200D02*
X99667732Y-68319819D01*
X99667732Y-68319819D02*
X99858208Y-68319819D01*
X99858208Y-68319819D02*
X99953446Y-68272200D01*
X99953446Y-68272200D02*
X100001065Y-68176961D01*
X100001065Y-68176961D02*
X100001065Y-68129342D01*
X100001065Y-68129342D02*
X99953446Y-68034104D01*
X99953446Y-68034104D02*
X99858208Y-67986485D01*
X99858208Y-67986485D02*
X99715351Y-67986485D01*
X99715351Y-67986485D02*
X99620113Y-67938866D01*
X99620113Y-67938866D02*
X99572494Y-67843628D01*
X99572494Y-67843628D02*
X99572494Y-67796009D01*
X99572494Y-67796009D02*
X99620113Y-67700771D01*
X99620113Y-67700771D02*
X99715351Y-67653152D01*
X99715351Y-67653152D02*
X99858208Y-67653152D01*
X99858208Y-67653152D02*
X99953446Y-67700771D01*
X100429637Y-68319819D02*
X100429637Y-67653152D01*
X100429637Y-67319819D02*
X100382018Y-67367438D01*
X100382018Y-67367438D02*
X100429637Y-67415057D01*
X100429637Y-67415057D02*
X100477256Y-67367438D01*
X100477256Y-67367438D02*
X100429637Y-67319819D01*
X100429637Y-67319819D02*
X100429637Y-67415057D01*
X101048684Y-68319819D02*
X100953446Y-68272200D01*
X100953446Y-68272200D02*
X100905827Y-68224580D01*
X100905827Y-68224580D02*
X100858208Y-68129342D01*
X100858208Y-68129342D02*
X100858208Y-67843628D01*
X100858208Y-67843628D02*
X100905827Y-67748390D01*
X100905827Y-67748390D02*
X100953446Y-67700771D01*
X100953446Y-67700771D02*
X101048684Y-67653152D01*
X101048684Y-67653152D02*
X101191541Y-67653152D01*
X101191541Y-67653152D02*
X101286779Y-67700771D01*
X101286779Y-67700771D02*
X101334398Y-67748390D01*
X101334398Y-67748390D02*
X101382017Y-67843628D01*
X101382017Y-67843628D02*
X101382017Y-68129342D01*
X101382017Y-68129342D02*
X101334398Y-68224580D01*
X101334398Y-68224580D02*
X101286779Y-68272200D01*
X101286779Y-68272200D02*
X101191541Y-68319819D01*
X101191541Y-68319819D02*
X101048684Y-68319819D01*
X101810589Y-67653152D02*
X101810589Y-68319819D01*
X101810589Y-67748390D02*
X101858208Y-67700771D01*
X101858208Y-67700771D02*
X101953446Y-67653152D01*
X101953446Y-67653152D02*
X102096303Y-67653152D01*
X102096303Y-67653152D02*
X102191541Y-67700771D01*
X102191541Y-67700771D02*
X102239160Y-67796009D01*
X102239160Y-67796009D02*
X102239160Y-68319819D01*
X104001065Y-68319819D02*
X103429637Y-68319819D01*
X103715351Y-68319819D02*
X103715351Y-67319819D01*
X103715351Y-67319819D02*
X103620113Y-67462676D01*
X103620113Y-67462676D02*
X103524875Y-67557914D01*
X103524875Y-67557914D02*
X103429637Y-67605533D01*
X104429637Y-68224580D02*
X104477256Y-68272200D01*
X104477256Y-68272200D02*
X104429637Y-68319819D01*
X104429637Y-68319819D02*
X104382018Y-68272200D01*
X104382018Y-68272200D02*
X104429637Y-68224580D01*
X104429637Y-68224580D02*
X104429637Y-68319819D01*
X105096303Y-67319819D02*
X105191541Y-67319819D01*
X105191541Y-67319819D02*
X105286779Y-67367438D01*
X105286779Y-67367438D02*
X105334398Y-67415057D01*
X105334398Y-67415057D02*
X105382017Y-67510295D01*
X105382017Y-67510295D02*
X105429636Y-67700771D01*
X105429636Y-67700771D02*
X105429636Y-67938866D01*
X105429636Y-67938866D02*
X105382017Y-68129342D01*
X105382017Y-68129342D02*
X105334398Y-68224580D01*
X105334398Y-68224580D02*
X105286779Y-68272200D01*
X105286779Y-68272200D02*
X105191541Y-68319819D01*
X105191541Y-68319819D02*
X105096303Y-68319819D01*
X105096303Y-68319819D02*
X105001065Y-68272200D01*
X105001065Y-68272200D02*
X104953446Y-68224580D01*
X104953446Y-68224580D02*
X104905827Y-68129342D01*
X104905827Y-68129342D02*
X104858208Y-67938866D01*
X104858208Y-67938866D02*
X104858208Y-67700771D01*
X104858208Y-67700771D02*
X104905827Y-67510295D01*
X104905827Y-67510295D02*
X104953446Y-67415057D01*
X104953446Y-67415057D02*
X105001065Y-67367438D01*
X105001065Y-67367438D02*
X105096303Y-67319819D01*
X118404761Y-84454819D02*
X117833333Y-84454819D01*
X118119047Y-84454819D02*
X118119047Y-83454819D01*
X118119047Y-83454819D02*
X118023809Y-83597676D01*
X118023809Y-83597676D02*
X117928571Y-83692914D01*
X117928571Y-83692914D02*
X117833333Y-83740533D01*
X119023809Y-83454819D02*
X119119047Y-83454819D01*
X119119047Y-83454819D02*
X119214285Y-83502438D01*
X119214285Y-83502438D02*
X119261904Y-83550057D01*
X119261904Y-83550057D02*
X119309523Y-83645295D01*
X119309523Y-83645295D02*
X119357142Y-83835771D01*
X119357142Y-83835771D02*
X119357142Y-84073866D01*
X119357142Y-84073866D02*
X119309523Y-84264342D01*
X119309523Y-84264342D02*
X119261904Y-84359580D01*
X119261904Y-84359580D02*
X119214285Y-84407200D01*
X119214285Y-84407200D02*
X119119047Y-84454819D01*
X119119047Y-84454819D02*
X119023809Y-84454819D01*
X119023809Y-84454819D02*
X118928571Y-84407200D01*
X118928571Y-84407200D02*
X118880952Y-84359580D01*
X118880952Y-84359580D02*
X118833333Y-84264342D01*
X118833333Y-84264342D02*
X118785714Y-84073866D01*
X118785714Y-84073866D02*
X118785714Y-83835771D01*
X118785714Y-83835771D02*
X118833333Y-83645295D01*
X118833333Y-83645295D02*
X118880952Y-83550057D01*
X118880952Y-83550057D02*
X118928571Y-83502438D01*
X118928571Y-83502438D02*
X119023809Y-83454819D01*
X119785714Y-84454819D02*
X119785714Y-83454819D01*
X119880952Y-84073866D02*
X120166666Y-84454819D01*
X120166666Y-83788152D02*
X119785714Y-84169104D01*
X82470666Y-59304819D02*
X82470666Y-60019104D01*
X82470666Y-60019104D02*
X82423047Y-60161961D01*
X82423047Y-60161961D02*
X82327809Y-60257200D01*
X82327809Y-60257200D02*
X82184952Y-60304819D01*
X82184952Y-60304819D02*
X82089714Y-60304819D01*
X82899238Y-59400057D02*
X82946857Y-59352438D01*
X82946857Y-59352438D02*
X83042095Y-59304819D01*
X83042095Y-59304819D02*
X83280190Y-59304819D01*
X83280190Y-59304819D02*
X83375428Y-59352438D01*
X83375428Y-59352438D02*
X83423047Y-59400057D01*
X83423047Y-59400057D02*
X83470666Y-59495295D01*
X83470666Y-59495295D02*
X83470666Y-59590533D01*
X83470666Y-59590533D02*
X83423047Y-59733390D01*
X83423047Y-59733390D02*
X82851619Y-60304819D01*
X82851619Y-60304819D02*
X83470666Y-60304819D01*
X86052819Y-75611857D02*
X85052819Y-75611857D01*
X86052819Y-75183286D02*
X85529009Y-75183286D01*
X85529009Y-75183286D02*
X85433771Y-75230905D01*
X85433771Y-75230905D02*
X85386152Y-75326143D01*
X85386152Y-75326143D02*
X85386152Y-75469000D01*
X85386152Y-75469000D02*
X85433771Y-75564238D01*
X85433771Y-75564238D02*
X85481390Y-75611857D01*
X86052819Y-74278524D02*
X85529009Y-74278524D01*
X85529009Y-74278524D02*
X85433771Y-74326143D01*
X85433771Y-74326143D02*
X85386152Y-74421381D01*
X85386152Y-74421381D02*
X85386152Y-74611857D01*
X85386152Y-74611857D02*
X85433771Y-74707095D01*
X86005200Y-74278524D02*
X86052819Y-74373762D01*
X86052819Y-74373762D02*
X86052819Y-74611857D01*
X86052819Y-74611857D02*
X86005200Y-74707095D01*
X86005200Y-74707095D02*
X85909961Y-74754714D01*
X85909961Y-74754714D02*
X85814723Y-74754714D01*
X85814723Y-74754714D02*
X85719485Y-74707095D01*
X85719485Y-74707095D02*
X85671866Y-74611857D01*
X85671866Y-74611857D02*
X85671866Y-74373762D01*
X85671866Y-74373762D02*
X85624247Y-74278524D01*
X85386152Y-73802333D02*
X86052819Y-73802333D01*
X85481390Y-73802333D02*
X85433771Y-73754714D01*
X85433771Y-73754714D02*
X85386152Y-73659476D01*
X85386152Y-73659476D02*
X85386152Y-73516619D01*
X85386152Y-73516619D02*
X85433771Y-73421381D01*
X85433771Y-73421381D02*
X85529009Y-73373762D01*
X85529009Y-73373762D02*
X86052819Y-73373762D01*
X86052819Y-72469000D02*
X85052819Y-72469000D01*
X86005200Y-72469000D02*
X86052819Y-72564238D01*
X86052819Y-72564238D02*
X86052819Y-72754714D01*
X86052819Y-72754714D02*
X86005200Y-72849952D01*
X86005200Y-72849952D02*
X85957580Y-72897571D01*
X85957580Y-72897571D02*
X85862342Y-72945190D01*
X85862342Y-72945190D02*
X85576628Y-72945190D01*
X85576628Y-72945190D02*
X85481390Y-72897571D01*
X85481390Y-72897571D02*
X85433771Y-72849952D01*
X85433771Y-72849952D02*
X85386152Y-72754714D01*
X85386152Y-72754714D02*
X85386152Y-72564238D01*
X85386152Y-72564238D02*
X85433771Y-72469000D01*
X86052819Y-71849952D02*
X86005200Y-71945190D01*
X86005200Y-71945190D02*
X85909961Y-71992809D01*
X85909961Y-71992809D02*
X85052819Y-71992809D01*
X86005200Y-71088047D02*
X86052819Y-71183285D01*
X86052819Y-71183285D02*
X86052819Y-71373761D01*
X86052819Y-71373761D02*
X86005200Y-71468999D01*
X86005200Y-71468999D02*
X85909961Y-71516618D01*
X85909961Y-71516618D02*
X85529009Y-71516618D01*
X85529009Y-71516618D02*
X85433771Y-71468999D01*
X85433771Y-71468999D02*
X85386152Y-71373761D01*
X85386152Y-71373761D02*
X85386152Y-71183285D01*
X85386152Y-71183285D02*
X85433771Y-71088047D01*
X85433771Y-71088047D02*
X85529009Y-71040428D01*
X85529009Y-71040428D02*
X85624247Y-71040428D01*
X85624247Y-71040428D02*
X85719485Y-71516618D01*
X86052819Y-70611856D02*
X85052819Y-70611856D01*
X85433771Y-70611856D02*
X85386152Y-70516618D01*
X85386152Y-70516618D02*
X85386152Y-70326142D01*
X85386152Y-70326142D02*
X85433771Y-70230904D01*
X85433771Y-70230904D02*
X85481390Y-70183285D01*
X85481390Y-70183285D02*
X85576628Y-70135666D01*
X85576628Y-70135666D02*
X85862342Y-70135666D01*
X85862342Y-70135666D02*
X85957580Y-70183285D01*
X85957580Y-70183285D02*
X86005200Y-70230904D01*
X86005200Y-70230904D02*
X86052819Y-70326142D01*
X86052819Y-70326142D02*
X86052819Y-70516618D01*
X86052819Y-70516618D02*
X86005200Y-70611856D01*
X86052819Y-69278523D02*
X85529009Y-69278523D01*
X85529009Y-69278523D02*
X85433771Y-69326142D01*
X85433771Y-69326142D02*
X85386152Y-69421380D01*
X85386152Y-69421380D02*
X85386152Y-69611856D01*
X85386152Y-69611856D02*
X85433771Y-69707094D01*
X86005200Y-69278523D02*
X86052819Y-69373761D01*
X86052819Y-69373761D02*
X86052819Y-69611856D01*
X86052819Y-69611856D02*
X86005200Y-69707094D01*
X86005200Y-69707094D02*
X85909961Y-69754713D01*
X85909961Y-69754713D02*
X85814723Y-69754713D01*
X85814723Y-69754713D02*
X85719485Y-69707094D01*
X85719485Y-69707094D02*
X85671866Y-69611856D01*
X85671866Y-69611856D02*
X85671866Y-69373761D01*
X85671866Y-69373761D02*
X85624247Y-69278523D01*
X86052819Y-68802332D02*
X85386152Y-68802332D01*
X85576628Y-68802332D02*
X85481390Y-68754713D01*
X85481390Y-68754713D02*
X85433771Y-68707094D01*
X85433771Y-68707094D02*
X85386152Y-68611856D01*
X85386152Y-68611856D02*
X85386152Y-68516618D01*
X86148057Y-68421380D02*
X86148057Y-67659475D01*
X86052819Y-67421379D02*
X85386152Y-67421379D01*
X85052819Y-67421379D02*
X85100438Y-67468998D01*
X85100438Y-67468998D02*
X85148057Y-67421379D01*
X85148057Y-67421379D02*
X85100438Y-67373760D01*
X85100438Y-67373760D02*
X85052819Y-67421379D01*
X85052819Y-67421379D02*
X85148057Y-67421379D01*
X85386152Y-66945189D02*
X86052819Y-66945189D01*
X85481390Y-66945189D02*
X85433771Y-66897570D01*
X85433771Y-66897570D02*
X85386152Y-66802332D01*
X85386152Y-66802332D02*
X85386152Y-66659475D01*
X85386152Y-66659475D02*
X85433771Y-66564237D01*
X85433771Y-66564237D02*
X85529009Y-66516618D01*
X85529009Y-66516618D02*
X86052819Y-66516618D01*
X85386152Y-66040427D02*
X86386152Y-66040427D01*
X85433771Y-66040427D02*
X85386152Y-65945189D01*
X85386152Y-65945189D02*
X85386152Y-65754713D01*
X85386152Y-65754713D02*
X85433771Y-65659475D01*
X85433771Y-65659475D02*
X85481390Y-65611856D01*
X85481390Y-65611856D02*
X85576628Y-65564237D01*
X85576628Y-65564237D02*
X85862342Y-65564237D01*
X85862342Y-65564237D02*
X85957580Y-65611856D01*
X85957580Y-65611856D02*
X86005200Y-65659475D01*
X86005200Y-65659475D02*
X86052819Y-65754713D01*
X86052819Y-65754713D02*
X86052819Y-65945189D01*
X86052819Y-65945189D02*
X86005200Y-66040427D01*
X85386152Y-64707094D02*
X86052819Y-64707094D01*
X85386152Y-65135665D02*
X85909961Y-65135665D01*
X85909961Y-65135665D02*
X86005200Y-65088046D01*
X86005200Y-65088046D02*
X86052819Y-64992808D01*
X86052819Y-64992808D02*
X86052819Y-64849951D01*
X86052819Y-64849951D02*
X86005200Y-64754713D01*
X86005200Y-64754713D02*
X85957580Y-64707094D01*
X85386152Y-64373760D02*
X85386152Y-63992808D01*
X85052819Y-64230903D02*
X85909961Y-64230903D01*
X85909961Y-64230903D02*
X86005200Y-64183284D01*
X86005200Y-64183284D02*
X86052819Y-64088046D01*
X86052819Y-64088046D02*
X86052819Y-63992808D01*
X86005200Y-63707093D02*
X86052819Y-63611855D01*
X86052819Y-63611855D02*
X86052819Y-63421379D01*
X86052819Y-63421379D02*
X86005200Y-63326141D01*
X86005200Y-63326141D02*
X85909961Y-63278522D01*
X85909961Y-63278522D02*
X85862342Y-63278522D01*
X85862342Y-63278522D02*
X85767104Y-63326141D01*
X85767104Y-63326141D02*
X85719485Y-63421379D01*
X85719485Y-63421379D02*
X85719485Y-63564236D01*
X85719485Y-63564236D02*
X85671866Y-63659474D01*
X85671866Y-63659474D02*
X85576628Y-63707093D01*
X85576628Y-63707093D02*
X85529009Y-63707093D01*
X85529009Y-63707093D02*
X85433771Y-63659474D01*
X85433771Y-63659474D02*
X85386152Y-63564236D01*
X85386152Y-63564236D02*
X85386152Y-63421379D01*
X85386152Y-63421379D02*
X85433771Y-63326141D01*
X123833333Y-74359580D02*
X123785714Y-74407200D01*
X123785714Y-74407200D02*
X123642857Y-74454819D01*
X123642857Y-74454819D02*
X123547619Y-74454819D01*
X123547619Y-74454819D02*
X123404762Y-74407200D01*
X123404762Y-74407200D02*
X123309524Y-74311961D01*
X123309524Y-74311961D02*
X123261905Y-74216723D01*
X123261905Y-74216723D02*
X123214286Y-74026247D01*
X123214286Y-74026247D02*
X123214286Y-73883390D01*
X123214286Y-73883390D02*
X123261905Y-73692914D01*
X123261905Y-73692914D02*
X123309524Y-73597676D01*
X123309524Y-73597676D02*
X123404762Y-73502438D01*
X123404762Y-73502438D02*
X123547619Y-73454819D01*
X123547619Y-73454819D02*
X123642857Y-73454819D01*
X123642857Y-73454819D02*
X123785714Y-73502438D01*
X123785714Y-73502438D02*
X123833333Y-73550057D01*
X124166667Y-73454819D02*
X124785714Y-73454819D01*
X124785714Y-73454819D02*
X124452381Y-73835771D01*
X124452381Y-73835771D02*
X124595238Y-73835771D01*
X124595238Y-73835771D02*
X124690476Y-73883390D01*
X124690476Y-73883390D02*
X124738095Y-73931009D01*
X124738095Y-73931009D02*
X124785714Y-74026247D01*
X124785714Y-74026247D02*
X124785714Y-74264342D01*
X124785714Y-74264342D02*
X124738095Y-74359580D01*
X124738095Y-74359580D02*
X124690476Y-74407200D01*
X124690476Y-74407200D02*
X124595238Y-74454819D01*
X124595238Y-74454819D02*
X124309524Y-74454819D01*
X124309524Y-74454819D02*
X124214286Y-74407200D01*
X124214286Y-74407200D02*
X124166667Y-74359580D01*
X122452380Y-82454819D02*
X121880952Y-82454819D01*
X122166666Y-82454819D02*
X122166666Y-81454819D01*
X122166666Y-81454819D02*
X122071428Y-81597676D01*
X122071428Y-81597676D02*
X121976190Y-81692914D01*
X121976190Y-81692914D02*
X121880952Y-81740533D01*
X123071428Y-81454819D02*
X123166666Y-81454819D01*
X123166666Y-81454819D02*
X123261904Y-81502438D01*
X123261904Y-81502438D02*
X123309523Y-81550057D01*
X123309523Y-81550057D02*
X123357142Y-81645295D01*
X123357142Y-81645295D02*
X123404761Y-81835771D01*
X123404761Y-81835771D02*
X123404761Y-82073866D01*
X123404761Y-82073866D02*
X123357142Y-82264342D01*
X123357142Y-82264342D02*
X123309523Y-82359580D01*
X123309523Y-82359580D02*
X123261904Y-82407200D01*
X123261904Y-82407200D02*
X123166666Y-82454819D01*
X123166666Y-82454819D02*
X123071428Y-82454819D01*
X123071428Y-82454819D02*
X122976190Y-82407200D01*
X122976190Y-82407200D02*
X122928571Y-82359580D01*
X122928571Y-82359580D02*
X122880952Y-82264342D01*
X122880952Y-82264342D02*
X122833333Y-82073866D01*
X122833333Y-82073866D02*
X122833333Y-81835771D01*
X122833333Y-81835771D02*
X122880952Y-81645295D01*
X122880952Y-81645295D02*
X122928571Y-81550057D01*
X122928571Y-81550057D02*
X122976190Y-81502438D01*
X122976190Y-81502438D02*
X123071428Y-81454819D01*
X124023809Y-81454819D02*
X124119047Y-81454819D01*
X124119047Y-81454819D02*
X124214285Y-81502438D01*
X124214285Y-81502438D02*
X124261904Y-81550057D01*
X124261904Y-81550057D02*
X124309523Y-81645295D01*
X124309523Y-81645295D02*
X124357142Y-81835771D01*
X124357142Y-81835771D02*
X124357142Y-82073866D01*
X124357142Y-82073866D02*
X124309523Y-82264342D01*
X124309523Y-82264342D02*
X124261904Y-82359580D01*
X124261904Y-82359580D02*
X124214285Y-82407200D01*
X124214285Y-82407200D02*
X124119047Y-82454819D01*
X124119047Y-82454819D02*
X124023809Y-82454819D01*
X124023809Y-82454819D02*
X123928571Y-82407200D01*
X123928571Y-82407200D02*
X123880952Y-82359580D01*
X123880952Y-82359580D02*
X123833333Y-82264342D01*
X123833333Y-82264342D02*
X123785714Y-82073866D01*
X123785714Y-82073866D02*
X123785714Y-81835771D01*
X123785714Y-81835771D02*
X123833333Y-81645295D01*
X123833333Y-81645295D02*
X123880952Y-81550057D01*
X123880952Y-81550057D02*
X123928571Y-81502438D01*
X123928571Y-81502438D02*
X124023809Y-81454819D01*
X124785714Y-81788152D02*
X124785714Y-82454819D01*
X124785714Y-81883390D02*
X124833333Y-81835771D01*
X124833333Y-81835771D02*
X124928571Y-81788152D01*
X124928571Y-81788152D02*
X125071428Y-81788152D01*
X125071428Y-81788152D02*
X125166666Y-81835771D01*
X125166666Y-81835771D02*
X125214285Y-81931009D01*
X125214285Y-81931009D02*
X125214285Y-82454819D01*
X126023809Y-81931009D02*
X125690476Y-81931009D01*
X125690476Y-82454819D02*
X125690476Y-81454819D01*
X125690476Y-81454819D02*
X126166666Y-81454819D01*
X118833333Y-71454819D02*
X118500000Y-70978628D01*
X118261905Y-71454819D02*
X118261905Y-70454819D01*
X118261905Y-70454819D02*
X118642857Y-70454819D01*
X118642857Y-70454819D02*
X118738095Y-70502438D01*
X118738095Y-70502438D02*
X118785714Y-70550057D01*
X118785714Y-70550057D02*
X118833333Y-70645295D01*
X118833333Y-70645295D02*
X118833333Y-70788152D01*
X118833333Y-70788152D02*
X118785714Y-70883390D01*
X118785714Y-70883390D02*
X118738095Y-70931009D01*
X118738095Y-70931009D02*
X118642857Y-70978628D01*
X118642857Y-70978628D02*
X118261905Y-70978628D01*
X119166667Y-70454819D02*
X119785714Y-70454819D01*
X119785714Y-70454819D02*
X119452381Y-70835771D01*
X119452381Y-70835771D02*
X119595238Y-70835771D01*
X119595238Y-70835771D02*
X119690476Y-70883390D01*
X119690476Y-70883390D02*
X119738095Y-70931009D01*
X119738095Y-70931009D02*
X119785714Y-71026247D01*
X119785714Y-71026247D02*
X119785714Y-71264342D01*
X119785714Y-71264342D02*
X119738095Y-71359580D01*
X119738095Y-71359580D02*
X119690476Y-71407200D01*
X119690476Y-71407200D02*
X119595238Y-71454819D01*
X119595238Y-71454819D02*
X119309524Y-71454819D01*
X119309524Y-71454819D02*
X119214286Y-71407200D01*
X119214286Y-71407200D02*
X119166667Y-71359580D01*
X90983333Y-59209580D02*
X90935714Y-59257200D01*
X90935714Y-59257200D02*
X90792857Y-59304819D01*
X90792857Y-59304819D02*
X90697619Y-59304819D01*
X90697619Y-59304819D02*
X90554762Y-59257200D01*
X90554762Y-59257200D02*
X90459524Y-59161961D01*
X90459524Y-59161961D02*
X90411905Y-59066723D01*
X90411905Y-59066723D02*
X90364286Y-58876247D01*
X90364286Y-58876247D02*
X90364286Y-58733390D01*
X90364286Y-58733390D02*
X90411905Y-58542914D01*
X90411905Y-58542914D02*
X90459524Y-58447676D01*
X90459524Y-58447676D02*
X90554762Y-58352438D01*
X90554762Y-58352438D02*
X90697619Y-58304819D01*
X90697619Y-58304819D02*
X90792857Y-58304819D01*
X90792857Y-58304819D02*
X90935714Y-58352438D01*
X90935714Y-58352438D02*
X90983333Y-58400057D01*
X91888095Y-58304819D02*
X91411905Y-58304819D01*
X91411905Y-58304819D02*
X91364286Y-58781009D01*
X91364286Y-58781009D02*
X91411905Y-58733390D01*
X91411905Y-58733390D02*
X91507143Y-58685771D01*
X91507143Y-58685771D02*
X91745238Y-58685771D01*
X91745238Y-58685771D02*
X91840476Y-58733390D01*
X91840476Y-58733390D02*
X91888095Y-58781009D01*
X91888095Y-58781009D02*
X91935714Y-58876247D01*
X91935714Y-58876247D02*
X91935714Y-59114342D01*
X91935714Y-59114342D02*
X91888095Y-59209580D01*
X91888095Y-59209580D02*
X91840476Y-59257200D01*
X91840476Y-59257200D02*
X91745238Y-59304819D01*
X91745238Y-59304819D02*
X91507143Y-59304819D01*
X91507143Y-59304819D02*
X91411905Y-59257200D01*
X91411905Y-59257200D02*
X91364286Y-59209580D01*
X89602380Y-61304819D02*
X89030952Y-61304819D01*
X89316666Y-61304819D02*
X89316666Y-60304819D01*
X89316666Y-60304819D02*
X89221428Y-60447676D01*
X89221428Y-60447676D02*
X89126190Y-60542914D01*
X89126190Y-60542914D02*
X89030952Y-60590533D01*
X90221428Y-60304819D02*
X90316666Y-60304819D01*
X90316666Y-60304819D02*
X90411904Y-60352438D01*
X90411904Y-60352438D02*
X90459523Y-60400057D01*
X90459523Y-60400057D02*
X90507142Y-60495295D01*
X90507142Y-60495295D02*
X90554761Y-60685771D01*
X90554761Y-60685771D02*
X90554761Y-60923866D01*
X90554761Y-60923866D02*
X90507142Y-61114342D01*
X90507142Y-61114342D02*
X90459523Y-61209580D01*
X90459523Y-61209580D02*
X90411904Y-61257200D01*
X90411904Y-61257200D02*
X90316666Y-61304819D01*
X90316666Y-61304819D02*
X90221428Y-61304819D01*
X90221428Y-61304819D02*
X90126190Y-61257200D01*
X90126190Y-61257200D02*
X90078571Y-61209580D01*
X90078571Y-61209580D02*
X90030952Y-61114342D01*
X90030952Y-61114342D02*
X89983333Y-60923866D01*
X89983333Y-60923866D02*
X89983333Y-60685771D01*
X89983333Y-60685771D02*
X90030952Y-60495295D01*
X90030952Y-60495295D02*
X90078571Y-60400057D01*
X90078571Y-60400057D02*
X90126190Y-60352438D01*
X90126190Y-60352438D02*
X90221428Y-60304819D01*
X91173809Y-60304819D02*
X91269047Y-60304819D01*
X91269047Y-60304819D02*
X91364285Y-60352438D01*
X91364285Y-60352438D02*
X91411904Y-60400057D01*
X91411904Y-60400057D02*
X91459523Y-60495295D01*
X91459523Y-60495295D02*
X91507142Y-60685771D01*
X91507142Y-60685771D02*
X91507142Y-60923866D01*
X91507142Y-60923866D02*
X91459523Y-61114342D01*
X91459523Y-61114342D02*
X91411904Y-61209580D01*
X91411904Y-61209580D02*
X91364285Y-61257200D01*
X91364285Y-61257200D02*
X91269047Y-61304819D01*
X91269047Y-61304819D02*
X91173809Y-61304819D01*
X91173809Y-61304819D02*
X91078571Y-61257200D01*
X91078571Y-61257200D02*
X91030952Y-61209580D01*
X91030952Y-61209580D02*
X90983333Y-61114342D01*
X90983333Y-61114342D02*
X90935714Y-60923866D01*
X90935714Y-60923866D02*
X90935714Y-60685771D01*
X90935714Y-60685771D02*
X90983333Y-60495295D01*
X90983333Y-60495295D02*
X91030952Y-60400057D01*
X91030952Y-60400057D02*
X91078571Y-60352438D01*
X91078571Y-60352438D02*
X91173809Y-60304819D01*
X91935714Y-60638152D02*
X91935714Y-61304819D01*
X91935714Y-60733390D02*
X91983333Y-60685771D01*
X91983333Y-60685771D02*
X92078571Y-60638152D01*
X92078571Y-60638152D02*
X92221428Y-60638152D01*
X92221428Y-60638152D02*
X92316666Y-60685771D01*
X92316666Y-60685771D02*
X92364285Y-60781009D01*
X92364285Y-60781009D02*
X92364285Y-61304819D01*
X93173809Y-60781009D02*
X92840476Y-60781009D01*
X92840476Y-61304819D02*
X92840476Y-60304819D01*
X92840476Y-60304819D02*
X93316666Y-60304819D01*
X98833333Y-75359580D02*
X98785714Y-75407200D01*
X98785714Y-75407200D02*
X98642857Y-75454819D01*
X98642857Y-75454819D02*
X98547619Y-75454819D01*
X98547619Y-75454819D02*
X98404762Y-75407200D01*
X98404762Y-75407200D02*
X98309524Y-75311961D01*
X98309524Y-75311961D02*
X98261905Y-75216723D01*
X98261905Y-75216723D02*
X98214286Y-75026247D01*
X98214286Y-75026247D02*
X98214286Y-74883390D01*
X98214286Y-74883390D02*
X98261905Y-74692914D01*
X98261905Y-74692914D02*
X98309524Y-74597676D01*
X98309524Y-74597676D02*
X98404762Y-74502438D01*
X98404762Y-74502438D02*
X98547619Y-74454819D01*
X98547619Y-74454819D02*
X98642857Y-74454819D01*
X98642857Y-74454819D02*
X98785714Y-74502438D01*
X98785714Y-74502438D02*
X98833333Y-74550057D01*
X99785714Y-75454819D02*
X99214286Y-75454819D01*
X99500000Y-75454819D02*
X99500000Y-74454819D01*
X99500000Y-74454819D02*
X99404762Y-74597676D01*
X99404762Y-74597676D02*
X99309524Y-74692914D01*
X99309524Y-74692914D02*
X99214286Y-74740533D01*
X97452380Y-83454819D02*
X96880952Y-83454819D01*
X97166666Y-83454819D02*
X97166666Y-82454819D01*
X97166666Y-82454819D02*
X97071428Y-82597676D01*
X97071428Y-82597676D02*
X96976190Y-82692914D01*
X96976190Y-82692914D02*
X96880952Y-82740533D01*
X98071428Y-82454819D02*
X98166666Y-82454819D01*
X98166666Y-82454819D02*
X98261904Y-82502438D01*
X98261904Y-82502438D02*
X98309523Y-82550057D01*
X98309523Y-82550057D02*
X98357142Y-82645295D01*
X98357142Y-82645295D02*
X98404761Y-82835771D01*
X98404761Y-82835771D02*
X98404761Y-83073866D01*
X98404761Y-83073866D02*
X98357142Y-83264342D01*
X98357142Y-83264342D02*
X98309523Y-83359580D01*
X98309523Y-83359580D02*
X98261904Y-83407200D01*
X98261904Y-83407200D02*
X98166666Y-83454819D01*
X98166666Y-83454819D02*
X98071428Y-83454819D01*
X98071428Y-83454819D02*
X97976190Y-83407200D01*
X97976190Y-83407200D02*
X97928571Y-83359580D01*
X97928571Y-83359580D02*
X97880952Y-83264342D01*
X97880952Y-83264342D02*
X97833333Y-83073866D01*
X97833333Y-83073866D02*
X97833333Y-82835771D01*
X97833333Y-82835771D02*
X97880952Y-82645295D01*
X97880952Y-82645295D02*
X97928571Y-82550057D01*
X97928571Y-82550057D02*
X97976190Y-82502438D01*
X97976190Y-82502438D02*
X98071428Y-82454819D01*
X99023809Y-82454819D02*
X99119047Y-82454819D01*
X99119047Y-82454819D02*
X99214285Y-82502438D01*
X99214285Y-82502438D02*
X99261904Y-82550057D01*
X99261904Y-82550057D02*
X99309523Y-82645295D01*
X99309523Y-82645295D02*
X99357142Y-82835771D01*
X99357142Y-82835771D02*
X99357142Y-83073866D01*
X99357142Y-83073866D02*
X99309523Y-83264342D01*
X99309523Y-83264342D02*
X99261904Y-83359580D01*
X99261904Y-83359580D02*
X99214285Y-83407200D01*
X99214285Y-83407200D02*
X99119047Y-83454819D01*
X99119047Y-83454819D02*
X99023809Y-83454819D01*
X99023809Y-83454819D02*
X98928571Y-83407200D01*
X98928571Y-83407200D02*
X98880952Y-83359580D01*
X98880952Y-83359580D02*
X98833333Y-83264342D01*
X98833333Y-83264342D02*
X98785714Y-83073866D01*
X98785714Y-83073866D02*
X98785714Y-82835771D01*
X98785714Y-82835771D02*
X98833333Y-82645295D01*
X98833333Y-82645295D02*
X98880952Y-82550057D01*
X98880952Y-82550057D02*
X98928571Y-82502438D01*
X98928571Y-82502438D02*
X99023809Y-82454819D01*
X99785714Y-82788152D02*
X99785714Y-83454819D01*
X99785714Y-82883390D02*
X99833333Y-82835771D01*
X99833333Y-82835771D02*
X99928571Y-82788152D01*
X99928571Y-82788152D02*
X100071428Y-82788152D01*
X100071428Y-82788152D02*
X100166666Y-82835771D01*
X100166666Y-82835771D02*
X100214285Y-82931009D01*
X100214285Y-82931009D02*
X100214285Y-83454819D01*
X101023809Y-82931009D02*
X100690476Y-82931009D01*
X100690476Y-83454819D02*
X100690476Y-82454819D01*
X100690476Y-82454819D02*
X101166666Y-82454819D01*
X109833333Y-71454819D02*
X109500000Y-70978628D01*
X109261905Y-71454819D02*
X109261905Y-70454819D01*
X109261905Y-70454819D02*
X109642857Y-70454819D01*
X109642857Y-70454819D02*
X109738095Y-70502438D01*
X109738095Y-70502438D02*
X109785714Y-70550057D01*
X109785714Y-70550057D02*
X109833333Y-70645295D01*
X109833333Y-70645295D02*
X109833333Y-70788152D01*
X109833333Y-70788152D02*
X109785714Y-70883390D01*
X109785714Y-70883390D02*
X109738095Y-70931009D01*
X109738095Y-70931009D02*
X109642857Y-70978628D01*
X109642857Y-70978628D02*
X109261905Y-70978628D01*
X110214286Y-70550057D02*
X110261905Y-70502438D01*
X110261905Y-70502438D02*
X110357143Y-70454819D01*
X110357143Y-70454819D02*
X110595238Y-70454819D01*
X110595238Y-70454819D02*
X110690476Y-70502438D01*
X110690476Y-70502438D02*
X110738095Y-70550057D01*
X110738095Y-70550057D02*
X110785714Y-70645295D01*
X110785714Y-70645295D02*
X110785714Y-70740533D01*
X110785714Y-70740533D02*
X110738095Y-70883390D01*
X110738095Y-70883390D02*
X110166667Y-71454819D01*
X110166667Y-71454819D02*
X110785714Y-71454819D01*
X109404761Y-85454819D02*
X108833333Y-85454819D01*
X109119047Y-85454819D02*
X109119047Y-84454819D01*
X109119047Y-84454819D02*
X109023809Y-84597676D01*
X109023809Y-84597676D02*
X108928571Y-84692914D01*
X108928571Y-84692914D02*
X108833333Y-84740533D01*
X110023809Y-84454819D02*
X110119047Y-84454819D01*
X110119047Y-84454819D02*
X110214285Y-84502438D01*
X110214285Y-84502438D02*
X110261904Y-84550057D01*
X110261904Y-84550057D02*
X110309523Y-84645295D01*
X110309523Y-84645295D02*
X110357142Y-84835771D01*
X110357142Y-84835771D02*
X110357142Y-85073866D01*
X110357142Y-85073866D02*
X110309523Y-85264342D01*
X110309523Y-85264342D02*
X110261904Y-85359580D01*
X110261904Y-85359580D02*
X110214285Y-85407200D01*
X110214285Y-85407200D02*
X110119047Y-85454819D01*
X110119047Y-85454819D02*
X110023809Y-85454819D01*
X110023809Y-85454819D02*
X109928571Y-85407200D01*
X109928571Y-85407200D02*
X109880952Y-85359580D01*
X109880952Y-85359580D02*
X109833333Y-85264342D01*
X109833333Y-85264342D02*
X109785714Y-85073866D01*
X109785714Y-85073866D02*
X109785714Y-84835771D01*
X109785714Y-84835771D02*
X109833333Y-84645295D01*
X109833333Y-84645295D02*
X109880952Y-84550057D01*
X109880952Y-84550057D02*
X109928571Y-84502438D01*
X109928571Y-84502438D02*
X110023809Y-84454819D01*
X110785714Y-85454819D02*
X110785714Y-84454819D01*
X110880952Y-85073866D02*
X111166666Y-85454819D01*
X111166666Y-84788152D02*
X110785714Y-85169104D01*
X118219819Y-66388952D02*
X118219819Y-66198476D01*
X118219819Y-66198476D02*
X118267438Y-66103238D01*
X118267438Y-66103238D02*
X118362676Y-66008000D01*
X118362676Y-66008000D02*
X118553152Y-65960381D01*
X118553152Y-65960381D02*
X118886485Y-65960381D01*
X118886485Y-65960381D02*
X119076961Y-66008000D01*
X119076961Y-66008000D02*
X119172200Y-66103238D01*
X119172200Y-66103238D02*
X119219819Y-66198476D01*
X119219819Y-66198476D02*
X119219819Y-66388952D01*
X119219819Y-66388952D02*
X119172200Y-66484190D01*
X119172200Y-66484190D02*
X119076961Y-66579428D01*
X119076961Y-66579428D02*
X118886485Y-66627047D01*
X118886485Y-66627047D02*
X118553152Y-66627047D01*
X118553152Y-66627047D02*
X118362676Y-66579428D01*
X118362676Y-66579428D02*
X118267438Y-66484190D01*
X118267438Y-66484190D02*
X118219819Y-66388952D01*
X118219819Y-65531809D02*
X119029342Y-65531809D01*
X119029342Y-65531809D02*
X119124580Y-65484190D01*
X119124580Y-65484190D02*
X119172200Y-65436571D01*
X119172200Y-65436571D02*
X119219819Y-65341333D01*
X119219819Y-65341333D02*
X119219819Y-65150857D01*
X119219819Y-65150857D02*
X119172200Y-65055619D01*
X119172200Y-65055619D02*
X119124580Y-65008000D01*
X119124580Y-65008000D02*
X119029342Y-64960381D01*
X119029342Y-64960381D02*
X118219819Y-64960381D01*
X118219819Y-64627047D02*
X118219819Y-64055619D01*
X119219819Y-64341333D02*
X118219819Y-64341333D01*
X119219819Y-63722285D02*
X118219819Y-63722285D01*
X118219819Y-63722285D02*
X118219819Y-63341333D01*
X118219819Y-63341333D02*
X118267438Y-63246095D01*
X118267438Y-63246095D02*
X118315057Y-63198476D01*
X118315057Y-63198476D02*
X118410295Y-63150857D01*
X118410295Y-63150857D02*
X118553152Y-63150857D01*
X118553152Y-63150857D02*
X118648390Y-63198476D01*
X118648390Y-63198476D02*
X118696009Y-63246095D01*
X118696009Y-63246095D02*
X118743628Y-63341333D01*
X118743628Y-63341333D02*
X118743628Y-63722285D01*
X118219819Y-62722285D02*
X119029342Y-62722285D01*
X119029342Y-62722285D02*
X119124580Y-62674666D01*
X119124580Y-62674666D02*
X119172200Y-62627047D01*
X119172200Y-62627047D02*
X119219819Y-62531809D01*
X119219819Y-62531809D02*
X119219819Y-62341333D01*
X119219819Y-62341333D02*
X119172200Y-62246095D01*
X119172200Y-62246095D02*
X119124580Y-62198476D01*
X119124580Y-62198476D02*
X119029342Y-62150857D01*
X119029342Y-62150857D02*
X118219819Y-62150857D01*
X118219819Y-61817523D02*
X118219819Y-61246095D01*
X119219819Y-61531809D02*
X118219819Y-61531809D01*
X119172200Y-60960380D02*
X119219819Y-60817523D01*
X119219819Y-60817523D02*
X119219819Y-60579428D01*
X119219819Y-60579428D02*
X119172200Y-60484190D01*
X119172200Y-60484190D02*
X119124580Y-60436571D01*
X119124580Y-60436571D02*
X119029342Y-60388952D01*
X119029342Y-60388952D02*
X118934104Y-60388952D01*
X118934104Y-60388952D02*
X118838866Y-60436571D01*
X118838866Y-60436571D02*
X118791247Y-60484190D01*
X118791247Y-60484190D02*
X118743628Y-60579428D01*
X118743628Y-60579428D02*
X118696009Y-60769904D01*
X118696009Y-60769904D02*
X118648390Y-60865142D01*
X118648390Y-60865142D02*
X118600771Y-60912761D01*
X118600771Y-60912761D02*
X118505533Y-60960380D01*
X118505533Y-60960380D02*
X118410295Y-60960380D01*
X118410295Y-60960380D02*
X118315057Y-60912761D01*
X118315057Y-60912761D02*
X118267438Y-60865142D01*
X118267438Y-60865142D02*
X118219819Y-60769904D01*
X118219819Y-60769904D02*
X118219819Y-60531809D01*
X118219819Y-60531809D02*
X118267438Y-60388952D01*
X108983333Y-51209580D02*
X108935714Y-51257200D01*
X108935714Y-51257200D02*
X108792857Y-51304819D01*
X108792857Y-51304819D02*
X108697619Y-51304819D01*
X108697619Y-51304819D02*
X108554762Y-51257200D01*
X108554762Y-51257200D02*
X108459524Y-51161961D01*
X108459524Y-51161961D02*
X108411905Y-51066723D01*
X108411905Y-51066723D02*
X108364286Y-50876247D01*
X108364286Y-50876247D02*
X108364286Y-50733390D01*
X108364286Y-50733390D02*
X108411905Y-50542914D01*
X108411905Y-50542914D02*
X108459524Y-50447676D01*
X108459524Y-50447676D02*
X108554762Y-50352438D01*
X108554762Y-50352438D02*
X108697619Y-50304819D01*
X108697619Y-50304819D02*
X108792857Y-50304819D01*
X108792857Y-50304819D02*
X108935714Y-50352438D01*
X108935714Y-50352438D02*
X108983333Y-50400057D01*
X109840476Y-50638152D02*
X109840476Y-51304819D01*
X109602381Y-50257200D02*
X109364286Y-50971485D01*
X109364286Y-50971485D02*
X109983333Y-50971485D01*
X107602380Y-60304819D02*
X107030952Y-60304819D01*
X107316666Y-60304819D02*
X107316666Y-59304819D01*
X107316666Y-59304819D02*
X107221428Y-59447676D01*
X107221428Y-59447676D02*
X107126190Y-59542914D01*
X107126190Y-59542914D02*
X107030952Y-59590533D01*
X108221428Y-59304819D02*
X108316666Y-59304819D01*
X108316666Y-59304819D02*
X108411904Y-59352438D01*
X108411904Y-59352438D02*
X108459523Y-59400057D01*
X108459523Y-59400057D02*
X108507142Y-59495295D01*
X108507142Y-59495295D02*
X108554761Y-59685771D01*
X108554761Y-59685771D02*
X108554761Y-59923866D01*
X108554761Y-59923866D02*
X108507142Y-60114342D01*
X108507142Y-60114342D02*
X108459523Y-60209580D01*
X108459523Y-60209580D02*
X108411904Y-60257200D01*
X108411904Y-60257200D02*
X108316666Y-60304819D01*
X108316666Y-60304819D02*
X108221428Y-60304819D01*
X108221428Y-60304819D02*
X108126190Y-60257200D01*
X108126190Y-60257200D02*
X108078571Y-60209580D01*
X108078571Y-60209580D02*
X108030952Y-60114342D01*
X108030952Y-60114342D02*
X107983333Y-59923866D01*
X107983333Y-59923866D02*
X107983333Y-59685771D01*
X107983333Y-59685771D02*
X108030952Y-59495295D01*
X108030952Y-59495295D02*
X108078571Y-59400057D01*
X108078571Y-59400057D02*
X108126190Y-59352438D01*
X108126190Y-59352438D02*
X108221428Y-59304819D01*
X109173809Y-59304819D02*
X109269047Y-59304819D01*
X109269047Y-59304819D02*
X109364285Y-59352438D01*
X109364285Y-59352438D02*
X109411904Y-59400057D01*
X109411904Y-59400057D02*
X109459523Y-59495295D01*
X109459523Y-59495295D02*
X109507142Y-59685771D01*
X109507142Y-59685771D02*
X109507142Y-59923866D01*
X109507142Y-59923866D02*
X109459523Y-60114342D01*
X109459523Y-60114342D02*
X109411904Y-60209580D01*
X109411904Y-60209580D02*
X109364285Y-60257200D01*
X109364285Y-60257200D02*
X109269047Y-60304819D01*
X109269047Y-60304819D02*
X109173809Y-60304819D01*
X109173809Y-60304819D02*
X109078571Y-60257200D01*
X109078571Y-60257200D02*
X109030952Y-60209580D01*
X109030952Y-60209580D02*
X108983333Y-60114342D01*
X108983333Y-60114342D02*
X108935714Y-59923866D01*
X108935714Y-59923866D02*
X108935714Y-59685771D01*
X108935714Y-59685771D02*
X108983333Y-59495295D01*
X108983333Y-59495295D02*
X109030952Y-59400057D01*
X109030952Y-59400057D02*
X109078571Y-59352438D01*
X109078571Y-59352438D02*
X109173809Y-59304819D01*
X109935714Y-59638152D02*
X109935714Y-60304819D01*
X109935714Y-59733390D02*
X109983333Y-59685771D01*
X109983333Y-59685771D02*
X110078571Y-59638152D01*
X110078571Y-59638152D02*
X110221428Y-59638152D01*
X110221428Y-59638152D02*
X110316666Y-59685771D01*
X110316666Y-59685771D02*
X110364285Y-59781009D01*
X110364285Y-59781009D02*
X110364285Y-60304819D01*
X111173809Y-59781009D02*
X110840476Y-59781009D01*
X110840476Y-60304819D02*
X110840476Y-59304819D01*
X110840476Y-59304819D02*
X111316666Y-59304819D01*
X79803666Y-54958819D02*
X79803666Y-55673104D01*
X79803666Y-55673104D02*
X79756047Y-55815961D01*
X79756047Y-55815961D02*
X79660809Y-55911200D01*
X79660809Y-55911200D02*
X79517952Y-55958819D01*
X79517952Y-55958819D02*
X79422714Y-55958819D01*
X80184619Y-54958819D02*
X80803666Y-54958819D01*
X80803666Y-54958819D02*
X80470333Y-55339771D01*
X80470333Y-55339771D02*
X80613190Y-55339771D01*
X80613190Y-55339771D02*
X80708428Y-55387390D01*
X80708428Y-55387390D02*
X80756047Y-55435009D01*
X80756047Y-55435009D02*
X80803666Y-55530247D01*
X80803666Y-55530247D02*
X80803666Y-55768342D01*
X80803666Y-55768342D02*
X80756047Y-55863580D01*
X80756047Y-55863580D02*
X80708428Y-55911200D01*
X80708428Y-55911200D02*
X80613190Y-55958819D01*
X80613190Y-55958819D02*
X80327476Y-55958819D01*
X80327476Y-55958819D02*
X80232238Y-55911200D01*
X80232238Y-55911200D02*
X80184619Y-55863580D01*
X86433819Y-60392952D02*
X85433819Y-60392952D01*
X85814771Y-60392952D02*
X85767152Y-60297714D01*
X85767152Y-60297714D02*
X85767152Y-60107238D01*
X85767152Y-60107238D02*
X85814771Y-60012000D01*
X85814771Y-60012000D02*
X85862390Y-59964381D01*
X85862390Y-59964381D02*
X85957628Y-59916762D01*
X85957628Y-59916762D02*
X86243342Y-59916762D01*
X86243342Y-59916762D02*
X86338580Y-59964381D01*
X86338580Y-59964381D02*
X86386200Y-60012000D01*
X86386200Y-60012000D02*
X86433819Y-60107238D01*
X86433819Y-60107238D02*
X86433819Y-60297714D01*
X86433819Y-60297714D02*
X86386200Y-60392952D01*
X85767152Y-59059619D02*
X86433819Y-59059619D01*
X85767152Y-59488190D02*
X86290961Y-59488190D01*
X86290961Y-59488190D02*
X86386200Y-59440571D01*
X86386200Y-59440571D02*
X86433819Y-59345333D01*
X86433819Y-59345333D02*
X86433819Y-59202476D01*
X86433819Y-59202476D02*
X86386200Y-59107238D01*
X86386200Y-59107238D02*
X86338580Y-59059619D01*
X86433819Y-58583428D02*
X85767152Y-58583428D01*
X85957628Y-58583428D02*
X85862390Y-58535809D01*
X85862390Y-58535809D02*
X85814771Y-58488190D01*
X85814771Y-58488190D02*
X85767152Y-58392952D01*
X85767152Y-58392952D02*
X85767152Y-58297714D01*
X86386200Y-58011999D02*
X86433819Y-57916761D01*
X86433819Y-57916761D02*
X86433819Y-57726285D01*
X86433819Y-57726285D02*
X86386200Y-57631047D01*
X86386200Y-57631047D02*
X86290961Y-57583428D01*
X86290961Y-57583428D02*
X86243342Y-57583428D01*
X86243342Y-57583428D02*
X86148104Y-57631047D01*
X86148104Y-57631047D02*
X86100485Y-57726285D01*
X86100485Y-57726285D02*
X86100485Y-57869142D01*
X86100485Y-57869142D02*
X86052866Y-57964380D01*
X86052866Y-57964380D02*
X85957628Y-58011999D01*
X85957628Y-58011999D02*
X85910009Y-58011999D01*
X85910009Y-58011999D02*
X85814771Y-57964380D01*
X85814771Y-57964380D02*
X85767152Y-57869142D01*
X85767152Y-57869142D02*
X85767152Y-57726285D01*
X85767152Y-57726285D02*
X85814771Y-57631047D01*
X85767152Y-57297713D02*
X85767152Y-56916761D01*
X85433819Y-57154856D02*
X86290961Y-57154856D01*
X86290961Y-57154856D02*
X86386200Y-57107237D01*
X86386200Y-57107237D02*
X86433819Y-57011999D01*
X86433819Y-57011999D02*
X86433819Y-56916761D01*
X86529057Y-56821523D02*
X86529057Y-56059618D01*
X86386200Y-55869141D02*
X86433819Y-55773903D01*
X86433819Y-55773903D02*
X86433819Y-55583427D01*
X86433819Y-55583427D02*
X86386200Y-55488189D01*
X86386200Y-55488189D02*
X86290961Y-55440570D01*
X86290961Y-55440570D02*
X86243342Y-55440570D01*
X86243342Y-55440570D02*
X86148104Y-55488189D01*
X86148104Y-55488189D02*
X86100485Y-55583427D01*
X86100485Y-55583427D02*
X86100485Y-55726284D01*
X86100485Y-55726284D02*
X86052866Y-55821522D01*
X86052866Y-55821522D02*
X85957628Y-55869141D01*
X85957628Y-55869141D02*
X85910009Y-55869141D01*
X85910009Y-55869141D02*
X85814771Y-55821522D01*
X85814771Y-55821522D02*
X85767152Y-55726284D01*
X85767152Y-55726284D02*
X85767152Y-55583427D01*
X85767152Y-55583427D02*
X85814771Y-55488189D01*
X85767152Y-55107236D02*
X86433819Y-54916760D01*
X86433819Y-54916760D02*
X85957628Y-54726284D01*
X85957628Y-54726284D02*
X86433819Y-54535808D01*
X86433819Y-54535808D02*
X85767152Y-54345332D01*
X86433819Y-53964379D02*
X85767152Y-53964379D01*
X85433819Y-53964379D02*
X85481438Y-54011998D01*
X85481438Y-54011998D02*
X85529057Y-53964379D01*
X85529057Y-53964379D02*
X85481438Y-53916760D01*
X85481438Y-53916760D02*
X85433819Y-53964379D01*
X85433819Y-53964379D02*
X85529057Y-53964379D01*
X85767152Y-53631046D02*
X85767152Y-53250094D01*
X85433819Y-53488189D02*
X86290961Y-53488189D01*
X86290961Y-53488189D02*
X86386200Y-53440570D01*
X86386200Y-53440570D02*
X86433819Y-53345332D01*
X86433819Y-53345332D02*
X86433819Y-53250094D01*
X86386200Y-52488189D02*
X86433819Y-52583427D01*
X86433819Y-52583427D02*
X86433819Y-52773903D01*
X86433819Y-52773903D02*
X86386200Y-52869141D01*
X86386200Y-52869141D02*
X86338580Y-52916760D01*
X86338580Y-52916760D02*
X86243342Y-52964379D01*
X86243342Y-52964379D02*
X85957628Y-52964379D01*
X85957628Y-52964379D02*
X85862390Y-52916760D01*
X85862390Y-52916760D02*
X85814771Y-52869141D01*
X85814771Y-52869141D02*
X85767152Y-52773903D01*
X85767152Y-52773903D02*
X85767152Y-52583427D01*
X85767152Y-52583427D02*
X85814771Y-52488189D01*
X86433819Y-52059617D02*
X85433819Y-52059617D01*
X86433819Y-51631046D02*
X85910009Y-51631046D01*
X85910009Y-51631046D02*
X85814771Y-51678665D01*
X85814771Y-51678665D02*
X85767152Y-51773903D01*
X85767152Y-51773903D02*
X85767152Y-51916760D01*
X85767152Y-51916760D02*
X85814771Y-52011998D01*
X85814771Y-52011998D02*
X85862390Y-52059617D01*
X101554761Y-64304819D02*
X100983333Y-64304819D01*
X101269047Y-64304819D02*
X101269047Y-63304819D01*
X101269047Y-63304819D02*
X101173809Y-63447676D01*
X101173809Y-63447676D02*
X101078571Y-63542914D01*
X101078571Y-63542914D02*
X100983333Y-63590533D01*
X102173809Y-63304819D02*
X102269047Y-63304819D01*
X102269047Y-63304819D02*
X102364285Y-63352438D01*
X102364285Y-63352438D02*
X102411904Y-63400057D01*
X102411904Y-63400057D02*
X102459523Y-63495295D01*
X102459523Y-63495295D02*
X102507142Y-63685771D01*
X102507142Y-63685771D02*
X102507142Y-63923866D01*
X102507142Y-63923866D02*
X102459523Y-64114342D01*
X102459523Y-64114342D02*
X102411904Y-64209580D01*
X102411904Y-64209580D02*
X102364285Y-64257200D01*
X102364285Y-64257200D02*
X102269047Y-64304819D01*
X102269047Y-64304819D02*
X102173809Y-64304819D01*
X102173809Y-64304819D02*
X102078571Y-64257200D01*
X102078571Y-64257200D02*
X102030952Y-64209580D01*
X102030952Y-64209580D02*
X101983333Y-64114342D01*
X101983333Y-64114342D02*
X101935714Y-63923866D01*
X101935714Y-63923866D02*
X101935714Y-63685771D01*
X101935714Y-63685771D02*
X101983333Y-63495295D01*
X101983333Y-63495295D02*
X102030952Y-63400057D01*
X102030952Y-63400057D02*
X102078571Y-63352438D01*
X102078571Y-63352438D02*
X102173809Y-63304819D01*
X102935714Y-64304819D02*
X102935714Y-63304819D01*
X103030952Y-63923866D02*
X103316666Y-64304819D01*
X103316666Y-63638152D02*
X102935714Y-64019104D01*
X103833333Y-74359580D02*
X103785714Y-74407200D01*
X103785714Y-74407200D02*
X103642857Y-74454819D01*
X103642857Y-74454819D02*
X103547619Y-74454819D01*
X103547619Y-74454819D02*
X103404762Y-74407200D01*
X103404762Y-74407200D02*
X103309524Y-74311961D01*
X103309524Y-74311961D02*
X103261905Y-74216723D01*
X103261905Y-74216723D02*
X103214286Y-74026247D01*
X103214286Y-74026247D02*
X103214286Y-73883390D01*
X103214286Y-73883390D02*
X103261905Y-73692914D01*
X103261905Y-73692914D02*
X103309524Y-73597676D01*
X103309524Y-73597676D02*
X103404762Y-73502438D01*
X103404762Y-73502438D02*
X103547619Y-73454819D01*
X103547619Y-73454819D02*
X103642857Y-73454819D01*
X103642857Y-73454819D02*
X103785714Y-73502438D01*
X103785714Y-73502438D02*
X103833333Y-73550057D01*
X104214286Y-73550057D02*
X104261905Y-73502438D01*
X104261905Y-73502438D02*
X104357143Y-73454819D01*
X104357143Y-73454819D02*
X104595238Y-73454819D01*
X104595238Y-73454819D02*
X104690476Y-73502438D01*
X104690476Y-73502438D02*
X104738095Y-73550057D01*
X104738095Y-73550057D02*
X104785714Y-73645295D01*
X104785714Y-73645295D02*
X104785714Y-73740533D01*
X104785714Y-73740533D02*
X104738095Y-73883390D01*
X104738095Y-73883390D02*
X104166667Y-74454819D01*
X104166667Y-74454819D02*
X104785714Y-74454819D01*
X103452380Y-82454819D02*
X102880952Y-82454819D01*
X103166666Y-82454819D02*
X103166666Y-81454819D01*
X103166666Y-81454819D02*
X103071428Y-81597676D01*
X103071428Y-81597676D02*
X102976190Y-81692914D01*
X102976190Y-81692914D02*
X102880952Y-81740533D01*
X104071428Y-81454819D02*
X104166666Y-81454819D01*
X104166666Y-81454819D02*
X104261904Y-81502438D01*
X104261904Y-81502438D02*
X104309523Y-81550057D01*
X104309523Y-81550057D02*
X104357142Y-81645295D01*
X104357142Y-81645295D02*
X104404761Y-81835771D01*
X104404761Y-81835771D02*
X104404761Y-82073866D01*
X104404761Y-82073866D02*
X104357142Y-82264342D01*
X104357142Y-82264342D02*
X104309523Y-82359580D01*
X104309523Y-82359580D02*
X104261904Y-82407200D01*
X104261904Y-82407200D02*
X104166666Y-82454819D01*
X104166666Y-82454819D02*
X104071428Y-82454819D01*
X104071428Y-82454819D02*
X103976190Y-82407200D01*
X103976190Y-82407200D02*
X103928571Y-82359580D01*
X103928571Y-82359580D02*
X103880952Y-82264342D01*
X103880952Y-82264342D02*
X103833333Y-82073866D01*
X103833333Y-82073866D02*
X103833333Y-81835771D01*
X103833333Y-81835771D02*
X103880952Y-81645295D01*
X103880952Y-81645295D02*
X103928571Y-81550057D01*
X103928571Y-81550057D02*
X103976190Y-81502438D01*
X103976190Y-81502438D02*
X104071428Y-81454819D01*
X105023809Y-81454819D02*
X105119047Y-81454819D01*
X105119047Y-81454819D02*
X105214285Y-81502438D01*
X105214285Y-81502438D02*
X105261904Y-81550057D01*
X105261904Y-81550057D02*
X105309523Y-81645295D01*
X105309523Y-81645295D02*
X105357142Y-81835771D01*
X105357142Y-81835771D02*
X105357142Y-82073866D01*
X105357142Y-82073866D02*
X105309523Y-82264342D01*
X105309523Y-82264342D02*
X105261904Y-82359580D01*
X105261904Y-82359580D02*
X105214285Y-82407200D01*
X105214285Y-82407200D02*
X105119047Y-82454819D01*
X105119047Y-82454819D02*
X105023809Y-82454819D01*
X105023809Y-82454819D02*
X104928571Y-82407200D01*
X104928571Y-82407200D02*
X104880952Y-82359580D01*
X104880952Y-82359580D02*
X104833333Y-82264342D01*
X104833333Y-82264342D02*
X104785714Y-82073866D01*
X104785714Y-82073866D02*
X104785714Y-81835771D01*
X104785714Y-81835771D02*
X104833333Y-81645295D01*
X104833333Y-81645295D02*
X104880952Y-81550057D01*
X104880952Y-81550057D02*
X104928571Y-81502438D01*
X104928571Y-81502438D02*
X105023809Y-81454819D01*
X105785714Y-81788152D02*
X105785714Y-82454819D01*
X105785714Y-81883390D02*
X105833333Y-81835771D01*
X105833333Y-81835771D02*
X105928571Y-81788152D01*
X105928571Y-81788152D02*
X106071428Y-81788152D01*
X106071428Y-81788152D02*
X106166666Y-81835771D01*
X106166666Y-81835771D02*
X106214285Y-81931009D01*
X106214285Y-81931009D02*
X106214285Y-82454819D01*
X107023809Y-81931009D02*
X106690476Y-81931009D01*
X106690476Y-82454819D02*
X106690476Y-81454819D01*
X106690476Y-81454819D02*
X107166666Y-81454819D01*
X92833333Y-72454819D02*
X92500000Y-71978628D01*
X92261905Y-72454819D02*
X92261905Y-71454819D01*
X92261905Y-71454819D02*
X92642857Y-71454819D01*
X92642857Y-71454819D02*
X92738095Y-71502438D01*
X92738095Y-71502438D02*
X92785714Y-71550057D01*
X92785714Y-71550057D02*
X92833333Y-71645295D01*
X92833333Y-71645295D02*
X92833333Y-71788152D01*
X92833333Y-71788152D02*
X92785714Y-71883390D01*
X92785714Y-71883390D02*
X92738095Y-71931009D01*
X92738095Y-71931009D02*
X92642857Y-71978628D01*
X92642857Y-71978628D02*
X92261905Y-71978628D01*
X93785714Y-72454819D02*
X93214286Y-72454819D01*
X93500000Y-72454819D02*
X93500000Y-71454819D01*
X93500000Y-71454819D02*
X93404762Y-71597676D01*
X93404762Y-71597676D02*
X93309524Y-71692914D01*
X93309524Y-71692914D02*
X93214286Y-71740533D01*
X92404761Y-85454819D02*
X91833333Y-85454819D01*
X92119047Y-85454819D02*
X92119047Y-84454819D01*
X92119047Y-84454819D02*
X92023809Y-84597676D01*
X92023809Y-84597676D02*
X91928571Y-84692914D01*
X91928571Y-84692914D02*
X91833333Y-84740533D01*
X93023809Y-84454819D02*
X93119047Y-84454819D01*
X93119047Y-84454819D02*
X93214285Y-84502438D01*
X93214285Y-84502438D02*
X93261904Y-84550057D01*
X93261904Y-84550057D02*
X93309523Y-84645295D01*
X93309523Y-84645295D02*
X93357142Y-84835771D01*
X93357142Y-84835771D02*
X93357142Y-85073866D01*
X93357142Y-85073866D02*
X93309523Y-85264342D01*
X93309523Y-85264342D02*
X93261904Y-85359580D01*
X93261904Y-85359580D02*
X93214285Y-85407200D01*
X93214285Y-85407200D02*
X93119047Y-85454819D01*
X93119047Y-85454819D02*
X93023809Y-85454819D01*
X93023809Y-85454819D02*
X92928571Y-85407200D01*
X92928571Y-85407200D02*
X92880952Y-85359580D01*
X92880952Y-85359580D02*
X92833333Y-85264342D01*
X92833333Y-85264342D02*
X92785714Y-85073866D01*
X92785714Y-85073866D02*
X92785714Y-84835771D01*
X92785714Y-84835771D02*
X92833333Y-84645295D01*
X92833333Y-84645295D02*
X92880952Y-84550057D01*
X92880952Y-84550057D02*
X92928571Y-84502438D01*
X92928571Y-84502438D02*
X93023809Y-84454819D01*
X93785714Y-85454819D02*
X93785714Y-84454819D01*
X93880952Y-85073866D02*
X94166666Y-85454819D01*
X94166666Y-84788152D02*
X93785714Y-85169104D01*
X79994819Y-85333333D02*
X80709104Y-85333333D01*
X80709104Y-85333333D02*
X80851961Y-85380952D01*
X80851961Y-85380952D02*
X80947200Y-85476190D01*
X80947200Y-85476190D02*
X80994819Y-85619047D01*
X80994819Y-85619047D02*
X80994819Y-85714285D01*
X80994819Y-84333333D02*
X80994819Y-84904761D01*
X80994819Y-84619047D02*
X79994819Y-84619047D01*
X79994819Y-84619047D02*
X80137676Y-84714285D01*
X80137676Y-84714285D02*
X80232914Y-84809523D01*
X80232914Y-84809523D02*
X80280533Y-84904761D01*
X81714285Y-88407200D02*
X81857142Y-88454819D01*
X81857142Y-88454819D02*
X82095237Y-88454819D01*
X82095237Y-88454819D02*
X82190475Y-88407200D01*
X82190475Y-88407200D02*
X82238094Y-88359580D01*
X82238094Y-88359580D02*
X82285713Y-88264342D01*
X82285713Y-88264342D02*
X82285713Y-88169104D01*
X82285713Y-88169104D02*
X82238094Y-88073866D01*
X82238094Y-88073866D02*
X82190475Y-88026247D01*
X82190475Y-88026247D02*
X82095237Y-87978628D01*
X82095237Y-87978628D02*
X81904761Y-87931009D01*
X81904761Y-87931009D02*
X81809523Y-87883390D01*
X81809523Y-87883390D02*
X81761904Y-87835771D01*
X81761904Y-87835771D02*
X81714285Y-87740533D01*
X81714285Y-87740533D02*
X81714285Y-87645295D01*
X81714285Y-87645295D02*
X81761904Y-87550057D01*
X81761904Y-87550057D02*
X81809523Y-87502438D01*
X81809523Y-87502438D02*
X81904761Y-87454819D01*
X81904761Y-87454819D02*
X82142856Y-87454819D01*
X82142856Y-87454819D02*
X82285713Y-87502438D01*
X83142856Y-87788152D02*
X83142856Y-88454819D01*
X82714285Y-87788152D02*
X82714285Y-88311961D01*
X82714285Y-88311961D02*
X82761904Y-88407200D01*
X82761904Y-88407200D02*
X82857142Y-88454819D01*
X82857142Y-88454819D02*
X82999999Y-88454819D01*
X82999999Y-88454819D02*
X83095237Y-88407200D01*
X83095237Y-88407200D02*
X83142856Y-88359580D01*
X83619047Y-87788152D02*
X83619047Y-88788152D01*
X83619047Y-87835771D02*
X83714285Y-87788152D01*
X83714285Y-87788152D02*
X83904761Y-87788152D01*
X83904761Y-87788152D02*
X83999999Y-87835771D01*
X83999999Y-87835771D02*
X84047618Y-87883390D01*
X84047618Y-87883390D02*
X84095237Y-87978628D01*
X84095237Y-87978628D02*
X84095237Y-88264342D01*
X84095237Y-88264342D02*
X84047618Y-88359580D01*
X84047618Y-88359580D02*
X83999999Y-88407200D01*
X83999999Y-88407200D02*
X83904761Y-88454819D01*
X83904761Y-88454819D02*
X83714285Y-88454819D01*
X83714285Y-88454819D02*
X83619047Y-88407200D01*
X84523809Y-87788152D02*
X84523809Y-88788152D01*
X84523809Y-87835771D02*
X84619047Y-87788152D01*
X84619047Y-87788152D02*
X84809523Y-87788152D01*
X84809523Y-87788152D02*
X84904761Y-87835771D01*
X84904761Y-87835771D02*
X84952380Y-87883390D01*
X84952380Y-87883390D02*
X84999999Y-87978628D01*
X84999999Y-87978628D02*
X84999999Y-88264342D01*
X84999999Y-88264342D02*
X84952380Y-88359580D01*
X84952380Y-88359580D02*
X84904761Y-88407200D01*
X84904761Y-88407200D02*
X84809523Y-88454819D01*
X84809523Y-88454819D02*
X84619047Y-88454819D01*
X84619047Y-88454819D02*
X84523809Y-88407200D01*
X85571428Y-88454819D02*
X85476190Y-88407200D01*
X85476190Y-88407200D02*
X85428571Y-88311961D01*
X85428571Y-88311961D02*
X85428571Y-87454819D01*
X85857143Y-87788152D02*
X86095238Y-88454819D01*
X86333333Y-87788152D02*
X86095238Y-88454819D01*
X86095238Y-88454819D02*
X86000000Y-88692914D01*
X86000000Y-88692914D02*
X85952381Y-88740533D01*
X85952381Y-88740533D02*
X85857143Y-88788152D01*
X95983333Y-61304819D02*
X95650000Y-60828628D01*
X95411905Y-61304819D02*
X95411905Y-60304819D01*
X95411905Y-60304819D02*
X95792857Y-60304819D01*
X95792857Y-60304819D02*
X95888095Y-60352438D01*
X95888095Y-60352438D02*
X95935714Y-60400057D01*
X95935714Y-60400057D02*
X95983333Y-60495295D01*
X95983333Y-60495295D02*
X95983333Y-60638152D01*
X95983333Y-60638152D02*
X95935714Y-60733390D01*
X95935714Y-60733390D02*
X95888095Y-60781009D01*
X95888095Y-60781009D02*
X95792857Y-60828628D01*
X95792857Y-60828628D02*
X95411905Y-60828628D01*
X96888095Y-60304819D02*
X96411905Y-60304819D01*
X96411905Y-60304819D02*
X96364286Y-60781009D01*
X96364286Y-60781009D02*
X96411905Y-60733390D01*
X96411905Y-60733390D02*
X96507143Y-60685771D01*
X96507143Y-60685771D02*
X96745238Y-60685771D01*
X96745238Y-60685771D02*
X96840476Y-60733390D01*
X96840476Y-60733390D02*
X96888095Y-60781009D01*
X96888095Y-60781009D02*
X96935714Y-60876247D01*
X96935714Y-60876247D02*
X96935714Y-61114342D01*
X96935714Y-61114342D02*
X96888095Y-61209580D01*
X96888095Y-61209580D02*
X96840476Y-61257200D01*
X96840476Y-61257200D02*
X96745238Y-61304819D01*
X96745238Y-61304819D02*
X96507143Y-61304819D01*
X96507143Y-61304819D02*
X96411905Y-61257200D01*
X96411905Y-61257200D02*
X96364286Y-61209580D01*
X95554761Y-63304819D02*
X94983333Y-63304819D01*
X95269047Y-63304819D02*
X95269047Y-62304819D01*
X95269047Y-62304819D02*
X95173809Y-62447676D01*
X95173809Y-62447676D02*
X95078571Y-62542914D01*
X95078571Y-62542914D02*
X94983333Y-62590533D01*
X96173809Y-62304819D02*
X96269047Y-62304819D01*
X96269047Y-62304819D02*
X96364285Y-62352438D01*
X96364285Y-62352438D02*
X96411904Y-62400057D01*
X96411904Y-62400057D02*
X96459523Y-62495295D01*
X96459523Y-62495295D02*
X96507142Y-62685771D01*
X96507142Y-62685771D02*
X96507142Y-62923866D01*
X96507142Y-62923866D02*
X96459523Y-63114342D01*
X96459523Y-63114342D02*
X96411904Y-63209580D01*
X96411904Y-63209580D02*
X96364285Y-63257200D01*
X96364285Y-63257200D02*
X96269047Y-63304819D01*
X96269047Y-63304819D02*
X96173809Y-63304819D01*
X96173809Y-63304819D02*
X96078571Y-63257200D01*
X96078571Y-63257200D02*
X96030952Y-63209580D01*
X96030952Y-63209580D02*
X95983333Y-63114342D01*
X95983333Y-63114342D02*
X95935714Y-62923866D01*
X95935714Y-62923866D02*
X95935714Y-62685771D01*
X95935714Y-62685771D02*
X95983333Y-62495295D01*
X95983333Y-62495295D02*
X96030952Y-62400057D01*
X96030952Y-62400057D02*
X96078571Y-62352438D01*
X96078571Y-62352438D02*
X96173809Y-62304819D01*
X96935714Y-63304819D02*
X96935714Y-62304819D01*
X97030952Y-62923866D02*
X97316666Y-63304819D01*
X97316666Y-62638152D02*
X96935714Y-63019104D01*
D11*
X81424000Y-60850000D02*
X82804000Y-60850000D01*
X81424000Y-62230000D02*
X81424000Y-60850000D01*
X81424000Y-63500000D02*
X81424000Y-81390000D01*
X81424000Y-63500000D02*
X84184000Y-63500000D01*
X81424000Y-81390000D02*
X84184000Y-81390000D01*
X84184000Y-63500000D02*
X84184000Y-81390000D01*
X122441000Y-75224000D02*
X125181000Y-75224000D01*
X122441000Y-80464000D02*
X122441000Y-75224000D01*
X125181000Y-75224000D02*
X125181000Y-80464000D01*
X125181000Y-80464000D02*
X122441000Y-80464000D01*
X117630000Y-74730000D02*
X117960000Y-74730000D01*
X117630000Y-81270000D02*
X117630000Y-74730000D01*
X117960000Y-81270000D02*
X117630000Y-81270000D01*
X120040000Y-81270000D02*
X120370000Y-81270000D01*
X120370000Y-74730000D02*
X120040000Y-74730000D01*
X120370000Y-81270000D02*
X120370000Y-74730000D01*
X88780000Y-51980000D02*
X91520000Y-51980000D01*
X88780000Y-57220000D02*
X88780000Y-51980000D01*
X91520000Y-51980000D02*
X91520000Y-57220000D01*
X91520000Y-57220000D02*
X88780000Y-57220000D01*
X97630000Y-76130000D02*
X100370000Y-76130000D01*
X97630000Y-81370000D02*
X97630000Y-76130000D01*
X100370000Y-76130000D02*
X100370000Y-81370000D01*
X100370000Y-81370000D02*
X97630000Y-81370000D01*
X108630000Y-74730000D02*
X108630000Y-81270000D01*
X108630000Y-81270000D02*
X108960000Y-81270000D01*
X108960000Y-74730000D02*
X108630000Y-74730000D01*
X111040000Y-74730000D02*
X111370000Y-74730000D01*
X111370000Y-74730000D02*
X111370000Y-81270000D01*
X111370000Y-81270000D02*
X111040000Y-81270000D01*
X120620000Y-58080000D02*
X122000000Y-58080000D01*
X120620000Y-59460000D02*
X120620000Y-58080000D01*
X120620000Y-60730000D02*
X120620000Y-68460000D01*
X120620000Y-60730000D02*
X123380000Y-60730000D01*
X120620000Y-68460000D02*
X123380000Y-68460000D01*
X123380000Y-60730000D02*
X123380000Y-68460000D01*
X107780000Y-52480000D02*
X110520000Y-52480000D01*
X107780000Y-57720000D02*
X107780000Y-52480000D01*
X110520000Y-52480000D02*
X110520000Y-57720000D01*
X110520000Y-57720000D02*
X107780000Y-57720000D01*
X81678000Y-55377000D02*
X81678000Y-52727000D01*
X84438000Y-52727000D02*
X81678000Y-52727000D01*
X84438000Y-55377000D02*
X81678000Y-55377000D01*
X84438000Y-55377000D02*
X84438000Y-52727000D01*
X84438000Y-56647000D02*
X84438000Y-58027000D01*
X84438000Y-58027000D02*
X83058000Y-58027000D01*
X100780000Y-51580000D02*
X100780000Y-58120000D01*
X100780000Y-58120000D02*
X101110000Y-58120000D01*
X101110000Y-51580000D02*
X100780000Y-51580000D01*
X103190000Y-51580000D02*
X103520000Y-51580000D01*
X103520000Y-51580000D02*
X103520000Y-58120000D01*
X103520000Y-58120000D02*
X103190000Y-58120000D01*
X102630000Y-75130000D02*
X105370000Y-75130000D01*
X102630000Y-80370000D02*
X102630000Y-75130000D01*
X105370000Y-75130000D02*
X105370000Y-80370000D01*
X105370000Y-80370000D02*
X102630000Y-80370000D01*
X91630000Y-75730000D02*
X91960000Y-75730000D01*
X91630000Y-82270000D02*
X91630000Y-75730000D01*
X91960000Y-82270000D02*
X91630000Y-82270000D01*
X94040000Y-82270000D02*
X94370000Y-82270000D01*
X94370000Y-75730000D02*
X94040000Y-75730000D01*
X94370000Y-82270000D02*
X94370000Y-75730000D01*
X81620000Y-86380000D02*
X81620000Y-85000000D01*
X83000000Y-86380000D02*
X81620000Y-86380000D01*
X84270000Y-83620000D02*
X86920000Y-83620000D01*
X84270000Y-86380000D02*
X84270000Y-83620000D01*
X84270000Y-86380000D02*
X86920000Y-86380000D01*
X86920000Y-86380000D02*
X86920000Y-83620000D01*
X94780000Y-51317000D02*
X94780000Y-57857000D01*
X94780000Y-57857000D02*
X95110000Y-57857000D01*
X95110000Y-51317000D02*
X94780000Y-51317000D01*
X97190000Y-51317000D02*
X97520000Y-51317000D01*
X97520000Y-51317000D02*
X97520000Y-57857000D01*
X97520000Y-57857000D02*
X97190000Y-57857000D01*
M02*
