M48
; DRILL file {KiCad 9.0.7} date 2026-03-25T20:05:34-0500
; FORMAT={-:-/ absolute / metric / decimal}
; #@! TF.CreationDate,2026-03-25T20:05:34-05:00
; #@! TF.GenerationSoftware,Kicad,Pcbnew,9.0.7
; #@! TF.FileFunction,Plated,1,2,PTH
FMAT,2
METRIC
; #@! TA.AperFunction,Plated,PTH,ComponentDrill
T1C0.800
; #@! TA.AperFunction,Plated,PTH,ComponentDrill
T2C1.000
%
G90
G05
T1
X90.15Y-53.35
X90.15Y-55.85
X99.0Y-77.5
X99.0Y-80.0
X104.0Y-76.5
X104.0Y-79.0
X109.15Y-53.85
X109.15Y-56.35
T2
X82.804Y-62.23
X82.804Y-64.77
X82.804Y-67.31
X82.804Y-69.85
X82.804Y-72.39
X82.804Y-74.93
X82.804Y-77.47
X82.804Y-80.01
X83.0Y-85.0
X83.058Y-54.107
X83.058Y-56.647
X85.54Y-85.0
X93.0Y-75.19
X93.0Y-82.81
X96.15Y-50.777
X96.15Y-58.397
X102.15Y-51.04
X102.15Y-58.66
X110.0Y-74.19
X110.0Y-81.81
X119.0Y-74.19
X119.0Y-81.81
X122.0Y-59.46
X122.0Y-62.0
X122.0Y-64.54
X122.0Y-67.08
X123.811Y-76.594
X123.811Y-79.094
M30
