M48
; DRILL file {KiCad 9.0.7} date 2026-03-25T20:20:39-0500
; FORMAT={-:-/ absolute / metric / decimal}
; #@! TF.CreationDate,2026-03-25T20:20:39-05:00
; #@! TF.GenerationSoftware,Kicad,Pcbnew,9.0.7
; #@! TF.FileFunction,Plated,1,2,PTH
FMAT,2
METRIC
; #@! TA.AperFunction,Plated,PTH,ComponentDrill
T1C0.800
; #@! TA.AperFunction,Plated,PTH,ViaDrill
T2C1.000
; #@! TA.AperFunction,Plated,PTH,ComponentDrill
T3C1.000
; #@! TA.AperFunction,Plated,PTH,ComponentDrill
T4C1.100
%
G90
G05
T1
X84.201Y-72.858
X86.741Y-72.858
X89.281Y-72.858
X93.218Y-73.091
X94.107Y-102.997
X94.107Y-110.617
X94.615Y-64.074
X100.838Y-73.091
X101.092Y-102.87
X101.092Y-110.49
X101.346Y-117.094
X102.235Y-64.074
X103.886Y-117.094
X106.426Y-117.094
X106.892Y-94.528
X106.892Y-97.068
X106.892Y-99.608
X106.896Y-46.271
X106.896Y-48.811
X106.896Y-51.351
X106.896Y-53.891
X106.896Y-56.431
X106.896Y-58.971
X106.896Y-61.511
X106.896Y-64.051
X106.896Y-66.591
X106.896Y-69.131
X106.896Y-71.671
X106.896Y-74.211
X106.896Y-76.751
X106.896Y-79.291
X106.896Y-81.831
X106.896Y-84.371
X106.896Y-86.911
X106.896Y-89.451
X106.896Y-91.991
X107.442Y-124.46
X107.442Y-132.08
X113.411Y-117.475
X115.951Y-117.475
X116.586Y-124.587
X116.586Y-132.207
X118.491Y-117.475
X127.889Y-118.11
X128.397Y-124.206
X128.397Y-131.826
X129.756Y-46.271
X129.756Y-48.811
X129.756Y-51.351
X129.756Y-53.891
X129.756Y-56.431
X129.756Y-58.971
X129.756Y-61.511
X129.756Y-64.051
X129.756Y-66.591
X129.756Y-69.131
X129.756Y-71.671
X129.756Y-74.211
X129.756Y-76.751
X129.756Y-79.291
X129.756Y-81.831
X129.756Y-84.371
X129.756Y-86.911
X129.756Y-89.451
X129.756Y-91.991
X129.756Y-94.531
X129.756Y-97.071
X129.756Y-99.611
X130.429Y-118.11
X132.969Y-118.11
X133.731Y-50.419
X135.509Y-104.267
X135.509Y-111.887
X136.017Y-81.661
X137.668Y-117.983
X138.303Y-57.785
X139.085Y-74.041
X139.29Y-124.714
X139.29Y-132.334
X140.208Y-117.983
X141.351Y-50.419
X141.585Y-74.041
X142.748Y-117.983
X143.51Y-103.14
X143.51Y-110.76
X143.637Y-81.661
X145.923Y-57.785
X148.51Y-61.185
X151.05Y-61.185
X153.59Y-61.185
T2
X79.375Y-43.815
X79.629Y-75.819
X82.804Y-123.444
X82.931Y-97.536
X84.074Y-51.054
X84.074Y-58.166
X86.868Y-105.029
X86.868Y-115.316
X89.662Y-113.665
X96.52Y-119.634
X109.22Y-149.352
X111.125Y-119.634
X111.252Y-122.428
X120.269Y-122.428
X124.206Y-122.428
X124.968Y-115.443
X125.603Y-112.522
X132.588Y-122.428
X132.969Y-99.695
X133.477Y-46.863
X135.128Y-122.428
X141.732Y-122.428
X141.859Y-46.863
X145.796Y-45.593
X146.431Y-149.352
X147.066Y-115.57
X151.13Y-98.298
X154.813Y-45.339
X159.893Y-48.006
X159.893Y-69.215
T3
X72.898Y-45.974
X75.438Y-45.974
X75.946Y-63.754
X75.946Y-66.294
X75.946Y-68.834
X75.946Y-71.374
X81.534Y-46.101
X84.074Y-46.101
X86.614Y-46.101
X92.583Y-46.101
X95.123Y-46.101
X96.774Y-81.407
X96.774Y-83.947
X96.774Y-86.487
X96.774Y-89.027
X97.663Y-46.101
X99.054Y-154.051
X100.203Y-46.101
X101.594Y-154.051
X103.263Y-141.478
X104.134Y-154.051
X105.543Y-141.478
X106.674Y-154.051
X107.823Y-141.478
X114.058Y-141.478
X116.338Y-141.478
X118.618Y-141.478
X121.279Y-153.797
X123.819Y-153.797
X124.46Y-141.224
X126.359Y-153.797
X126.74Y-141.224
X128.899Y-153.797
X129.02Y-141.224
X131.439Y-153.797
X133.979Y-153.797
X133.997Y-141.478
X136.277Y-141.478
X138.557Y-141.478
X146.431Y-71.374
X146.431Y-73.914
X149.865Y-42.164
X152.405Y-42.164
X156.972Y-55.118
X156.972Y-57.658
X156.972Y-60.198
X156.972Y-62.738
T4
X84.455Y-62.296
X86.995Y-62.296
X89.535Y-62.296
X146.05Y-48.326
X148.59Y-48.326
X151.13Y-48.326
M30
