%TF.GenerationSoftware,KiCad,Pcbnew,9.0.7*%
%TF.CreationDate,2026-03-25T20:20:39-05:00*%
%TF.ProjectId,light_controller_2.0,6c696768-745f-4636-9f6e-74726f6c6c65,rev?*%
%TF.SameCoordinates,Original*%
%TF.FileFunction,Drillmap*%
%TF.FilePolarity,Positive*%
%FSLAX45Y45*%
G04 Gerber Fmt 4.5, Leading zero omitted, Abs format (unit mm)*
G04 Created by KiCad (PCBNEW 9.0.7) date 2026-03-25 20:20:39*
%MOMM*%
%LPD*%
G01*
G04 APERTURE LIST*
%ADD10C,0.050000*%
%ADD11C,0.200000*%
%ADD12C,0.220000*%
G04 APERTURE END LIST*
D10*
X6896100Y-3608400D02*
X16192500Y-3608400D01*
X16192500Y-16013100D01*
X6896100Y-16013100D01*
X6896100Y-3608400D01*
D11*
D12*
X7205200Y-15396700D02*
X7425200Y-15616700D01*
X7425200Y-15396700D02*
X7205200Y-15616700D01*
X15663400Y-15422100D02*
X15883400Y-15642100D01*
X15883400Y-15422100D02*
X15663400Y-15642100D01*
X15714200Y-4119100D02*
X15934200Y-4339100D01*
X15934200Y-4119100D02*
X15714200Y-4339100D01*
D11*
X7154377Y-16327084D02*
X7154377Y-16127084D01*
X7154377Y-16127084D02*
X7201996Y-16127084D01*
X7201996Y-16127084D02*
X7230567Y-16136608D01*
X7230567Y-16136608D02*
X7249615Y-16155655D01*
X7249615Y-16155655D02*
X7259139Y-16174703D01*
X7259139Y-16174703D02*
X7268662Y-16212798D01*
X7268662Y-16212798D02*
X7268662Y-16241369D01*
X7268662Y-16241369D02*
X7259139Y-16279465D01*
X7259139Y-16279465D02*
X7249615Y-16298512D01*
X7249615Y-16298512D02*
X7230567Y-16317560D01*
X7230567Y-16317560D02*
X7201996Y-16327084D01*
X7201996Y-16327084D02*
X7154377Y-16327084D01*
X7354377Y-16327084D02*
X7354377Y-16193750D01*
X7354377Y-16231846D02*
X7363901Y-16212798D01*
X7363901Y-16212798D02*
X7373424Y-16203274D01*
X7373424Y-16203274D02*
X7392472Y-16193750D01*
X7392472Y-16193750D02*
X7411520Y-16193750D01*
X7478186Y-16327084D02*
X7478186Y-16193750D01*
X7478186Y-16127084D02*
X7468662Y-16136608D01*
X7468662Y-16136608D02*
X7478186Y-16146131D01*
X7478186Y-16146131D02*
X7487710Y-16136608D01*
X7487710Y-16136608D02*
X7478186Y-16127084D01*
X7478186Y-16127084D02*
X7478186Y-16146131D01*
X7601996Y-16327084D02*
X7582948Y-16317560D01*
X7582948Y-16317560D02*
X7573424Y-16298512D01*
X7573424Y-16298512D02*
X7573424Y-16127084D01*
X7706758Y-16327084D02*
X7687710Y-16317560D01*
X7687710Y-16317560D02*
X7678186Y-16298512D01*
X7678186Y-16298512D02*
X7678186Y-16127084D01*
X7935329Y-16327084D02*
X7935329Y-16127084D01*
X7935329Y-16127084D02*
X8001996Y-16269941D01*
X8001996Y-16269941D02*
X8068662Y-16127084D01*
X8068662Y-16127084D02*
X8068662Y-16327084D01*
X8249615Y-16327084D02*
X8249615Y-16222322D01*
X8249615Y-16222322D02*
X8240091Y-16203274D01*
X8240091Y-16203274D02*
X8221043Y-16193750D01*
X8221043Y-16193750D02*
X8182948Y-16193750D01*
X8182948Y-16193750D02*
X8163901Y-16203274D01*
X8249615Y-16317560D02*
X8230567Y-16327084D01*
X8230567Y-16327084D02*
X8182948Y-16327084D01*
X8182948Y-16327084D02*
X8163901Y-16317560D01*
X8163901Y-16317560D02*
X8154377Y-16298512D01*
X8154377Y-16298512D02*
X8154377Y-16279465D01*
X8154377Y-16279465D02*
X8163901Y-16260417D01*
X8163901Y-16260417D02*
X8182948Y-16250893D01*
X8182948Y-16250893D02*
X8230567Y-16250893D01*
X8230567Y-16250893D02*
X8249615Y-16241369D01*
X8344853Y-16193750D02*
X8344853Y-16393750D01*
X8344853Y-16203274D02*
X8363901Y-16193750D01*
X8363901Y-16193750D02*
X8401996Y-16193750D01*
X8401996Y-16193750D02*
X8421044Y-16203274D01*
X8421044Y-16203274D02*
X8430567Y-16212798D01*
X8430567Y-16212798D02*
X8440091Y-16231846D01*
X8440091Y-16231846D02*
X8440091Y-16288988D01*
X8440091Y-16288988D02*
X8430567Y-16308036D01*
X8430567Y-16308036D02*
X8421044Y-16317560D01*
X8421044Y-16317560D02*
X8401996Y-16327084D01*
X8401996Y-16327084D02*
X8363901Y-16327084D01*
X8363901Y-16327084D02*
X8344853Y-16317560D01*
X8525805Y-16308036D02*
X8535329Y-16317560D01*
X8535329Y-16317560D02*
X8525805Y-16327084D01*
X8525805Y-16327084D02*
X8516282Y-16317560D01*
X8516282Y-16317560D02*
X8525805Y-16308036D01*
X8525805Y-16308036D02*
X8525805Y-16327084D01*
X8525805Y-16203274D02*
X8535329Y-16212798D01*
X8535329Y-16212798D02*
X8525805Y-16222322D01*
X8525805Y-16222322D02*
X8516282Y-16212798D01*
X8516282Y-16212798D02*
X8525805Y-16203274D01*
X8525805Y-16203274D02*
X8525805Y-16222322D01*
X6693600Y-16555600D02*
X6893600Y-16755600D01*
X6893600Y-16555600D02*
X6693600Y-16755600D01*
X7144853Y-16566131D02*
X7154377Y-16556608D01*
X7154377Y-16556608D02*
X7173424Y-16547084D01*
X7173424Y-16547084D02*
X7221043Y-16547084D01*
X7221043Y-16547084D02*
X7240091Y-16556608D01*
X7240091Y-16556608D02*
X7249615Y-16566131D01*
X7249615Y-16566131D02*
X7259139Y-16585179D01*
X7259139Y-16585179D02*
X7259139Y-16604227D01*
X7259139Y-16604227D02*
X7249615Y-16632798D01*
X7249615Y-16632798D02*
X7135329Y-16747084D01*
X7135329Y-16747084D02*
X7259139Y-16747084D01*
X7344853Y-16728036D02*
X7354377Y-16737560D01*
X7354377Y-16737560D02*
X7344853Y-16747084D01*
X7344853Y-16747084D02*
X7335329Y-16737560D01*
X7335329Y-16737560D02*
X7344853Y-16728036D01*
X7344853Y-16728036D02*
X7344853Y-16747084D01*
X7430567Y-16566131D02*
X7440091Y-16556608D01*
X7440091Y-16556608D02*
X7459139Y-16547084D01*
X7459139Y-16547084D02*
X7506758Y-16547084D01*
X7506758Y-16547084D02*
X7525805Y-16556608D01*
X7525805Y-16556608D02*
X7535329Y-16566131D01*
X7535329Y-16566131D02*
X7544853Y-16585179D01*
X7544853Y-16585179D02*
X7544853Y-16604227D01*
X7544853Y-16604227D02*
X7535329Y-16632798D01*
X7535329Y-16632798D02*
X7421043Y-16747084D01*
X7421043Y-16747084D02*
X7544853Y-16747084D01*
X7668662Y-16547084D02*
X7687710Y-16547084D01*
X7687710Y-16547084D02*
X7706758Y-16556608D01*
X7706758Y-16556608D02*
X7716282Y-16566131D01*
X7716282Y-16566131D02*
X7725805Y-16585179D01*
X7725805Y-16585179D02*
X7735329Y-16623274D01*
X7735329Y-16623274D02*
X7735329Y-16670893D01*
X7735329Y-16670893D02*
X7725805Y-16708988D01*
X7725805Y-16708988D02*
X7716282Y-16728036D01*
X7716282Y-16728036D02*
X7706758Y-16737560D01*
X7706758Y-16737560D02*
X7687710Y-16747084D01*
X7687710Y-16747084D02*
X7668662Y-16747084D01*
X7668662Y-16747084D02*
X7649615Y-16737560D01*
X7649615Y-16737560D02*
X7640091Y-16728036D01*
X7640091Y-16728036D02*
X7630567Y-16708988D01*
X7630567Y-16708988D02*
X7621043Y-16670893D01*
X7621043Y-16670893D02*
X7621043Y-16623274D01*
X7621043Y-16623274D02*
X7630567Y-16585179D01*
X7630567Y-16585179D02*
X7640091Y-16566131D01*
X7640091Y-16566131D02*
X7649615Y-16556608D01*
X7649615Y-16556608D02*
X7668662Y-16547084D01*
X7859139Y-16547084D02*
X7878186Y-16547084D01*
X7878186Y-16547084D02*
X7897234Y-16556608D01*
X7897234Y-16556608D02*
X7906758Y-16566131D01*
X7906758Y-16566131D02*
X7916282Y-16585179D01*
X7916282Y-16585179D02*
X7925805Y-16623274D01*
X7925805Y-16623274D02*
X7925805Y-16670893D01*
X7925805Y-16670893D02*
X7916282Y-16708988D01*
X7916282Y-16708988D02*
X7906758Y-16728036D01*
X7906758Y-16728036D02*
X7897234Y-16737560D01*
X7897234Y-16737560D02*
X7878186Y-16747084D01*
X7878186Y-16747084D02*
X7859139Y-16747084D01*
X7859139Y-16747084D02*
X7840091Y-16737560D01*
X7840091Y-16737560D02*
X7830567Y-16728036D01*
X7830567Y-16728036D02*
X7821043Y-16708988D01*
X7821043Y-16708988D02*
X7811520Y-16670893D01*
X7811520Y-16670893D02*
X7811520Y-16623274D01*
X7811520Y-16623274D02*
X7821043Y-16585179D01*
X7821043Y-16585179D02*
X7830567Y-16566131D01*
X7830567Y-16566131D02*
X7840091Y-16556608D01*
X7840091Y-16556608D02*
X7859139Y-16547084D01*
X8011520Y-16747084D02*
X8011520Y-16613750D01*
X8011520Y-16632798D02*
X8021043Y-16623274D01*
X8021043Y-16623274D02*
X8040091Y-16613750D01*
X8040091Y-16613750D02*
X8068663Y-16613750D01*
X8068663Y-16613750D02*
X8087710Y-16623274D01*
X8087710Y-16623274D02*
X8097234Y-16642322D01*
X8097234Y-16642322D02*
X8097234Y-16747084D01*
X8097234Y-16642322D02*
X8106758Y-16623274D01*
X8106758Y-16623274D02*
X8125805Y-16613750D01*
X8125805Y-16613750D02*
X8154377Y-16613750D01*
X8154377Y-16613750D02*
X8173424Y-16623274D01*
X8173424Y-16623274D02*
X8182948Y-16642322D01*
X8182948Y-16642322D02*
X8182948Y-16747084D01*
X8278186Y-16747084D02*
X8278186Y-16613750D01*
X8278186Y-16632798D02*
X8287710Y-16623274D01*
X8287710Y-16623274D02*
X8306758Y-16613750D01*
X8306758Y-16613750D02*
X8335329Y-16613750D01*
X8335329Y-16613750D02*
X8354377Y-16623274D01*
X8354377Y-16623274D02*
X8363901Y-16642322D01*
X8363901Y-16642322D02*
X8363901Y-16747084D01*
X8363901Y-16642322D02*
X8373424Y-16623274D01*
X8373424Y-16623274D02*
X8392472Y-16613750D01*
X8392472Y-16613750D02*
X8421044Y-16613750D01*
X8421044Y-16613750D02*
X8440091Y-16623274D01*
X8440091Y-16623274D02*
X8449615Y-16642322D01*
X8449615Y-16642322D02*
X8449615Y-16747084D01*
X8840091Y-16537560D02*
X8668663Y-16794703D01*
X9097234Y-16547084D02*
X9116282Y-16547084D01*
X9116282Y-16547084D02*
X9135329Y-16556608D01*
X9135329Y-16556608D02*
X9144853Y-16566131D01*
X9144853Y-16566131D02*
X9154377Y-16585179D01*
X9154377Y-16585179D02*
X9163901Y-16623274D01*
X9163901Y-16623274D02*
X9163901Y-16670893D01*
X9163901Y-16670893D02*
X9154377Y-16708988D01*
X9154377Y-16708988D02*
X9144853Y-16728036D01*
X9144853Y-16728036D02*
X9135329Y-16737560D01*
X9135329Y-16737560D02*
X9116282Y-16747084D01*
X9116282Y-16747084D02*
X9097234Y-16747084D01*
X9097234Y-16747084D02*
X9078187Y-16737560D01*
X9078187Y-16737560D02*
X9068663Y-16728036D01*
X9068663Y-16728036D02*
X9059139Y-16708988D01*
X9059139Y-16708988D02*
X9049615Y-16670893D01*
X9049615Y-16670893D02*
X9049615Y-16623274D01*
X9049615Y-16623274D02*
X9059139Y-16585179D01*
X9059139Y-16585179D02*
X9068663Y-16566131D01*
X9068663Y-16566131D02*
X9078187Y-16556608D01*
X9078187Y-16556608D02*
X9097234Y-16547084D01*
X9249615Y-16728036D02*
X9259139Y-16737560D01*
X9259139Y-16737560D02*
X9249615Y-16747084D01*
X9249615Y-16747084D02*
X9240091Y-16737560D01*
X9240091Y-16737560D02*
X9249615Y-16728036D01*
X9249615Y-16728036D02*
X9249615Y-16747084D01*
X9382948Y-16547084D02*
X9401996Y-16547084D01*
X9401996Y-16547084D02*
X9421044Y-16556608D01*
X9421044Y-16556608D02*
X9430568Y-16566131D01*
X9430568Y-16566131D02*
X9440091Y-16585179D01*
X9440091Y-16585179D02*
X9449615Y-16623274D01*
X9449615Y-16623274D02*
X9449615Y-16670893D01*
X9449615Y-16670893D02*
X9440091Y-16708988D01*
X9440091Y-16708988D02*
X9430568Y-16728036D01*
X9430568Y-16728036D02*
X9421044Y-16737560D01*
X9421044Y-16737560D02*
X9401996Y-16747084D01*
X9401996Y-16747084D02*
X9382948Y-16747084D01*
X9382948Y-16747084D02*
X9363901Y-16737560D01*
X9363901Y-16737560D02*
X9354377Y-16728036D01*
X9354377Y-16728036D02*
X9344853Y-16708988D01*
X9344853Y-16708988D02*
X9335329Y-16670893D01*
X9335329Y-16670893D02*
X9335329Y-16623274D01*
X9335329Y-16623274D02*
X9344853Y-16585179D01*
X9344853Y-16585179D02*
X9354377Y-16566131D01*
X9354377Y-16566131D02*
X9363901Y-16556608D01*
X9363901Y-16556608D02*
X9382948Y-16547084D01*
X9563901Y-16632798D02*
X9544853Y-16623274D01*
X9544853Y-16623274D02*
X9535329Y-16613750D01*
X9535329Y-16613750D02*
X9525806Y-16594703D01*
X9525806Y-16594703D02*
X9525806Y-16585179D01*
X9525806Y-16585179D02*
X9535329Y-16566131D01*
X9535329Y-16566131D02*
X9544853Y-16556608D01*
X9544853Y-16556608D02*
X9563901Y-16547084D01*
X9563901Y-16547084D02*
X9601996Y-16547084D01*
X9601996Y-16547084D02*
X9621044Y-16556608D01*
X9621044Y-16556608D02*
X9630568Y-16566131D01*
X9630568Y-16566131D02*
X9640091Y-16585179D01*
X9640091Y-16585179D02*
X9640091Y-16594703D01*
X9640091Y-16594703D02*
X9630568Y-16613750D01*
X9630568Y-16613750D02*
X9621044Y-16623274D01*
X9621044Y-16623274D02*
X9601996Y-16632798D01*
X9601996Y-16632798D02*
X9563901Y-16632798D01*
X9563901Y-16632798D02*
X9544853Y-16642322D01*
X9544853Y-16642322D02*
X9535329Y-16651846D01*
X9535329Y-16651846D02*
X9525806Y-16670893D01*
X9525806Y-16670893D02*
X9525806Y-16708988D01*
X9525806Y-16708988D02*
X9535329Y-16728036D01*
X9535329Y-16728036D02*
X9544853Y-16737560D01*
X9544853Y-16737560D02*
X9563901Y-16747084D01*
X9563901Y-16747084D02*
X9601996Y-16747084D01*
X9601996Y-16747084D02*
X9621044Y-16737560D01*
X9621044Y-16737560D02*
X9630568Y-16728036D01*
X9630568Y-16728036D02*
X9640091Y-16708988D01*
X9640091Y-16708988D02*
X9640091Y-16670893D01*
X9640091Y-16670893D02*
X9630568Y-16651846D01*
X9630568Y-16651846D02*
X9621044Y-16642322D01*
X9621044Y-16642322D02*
X9601996Y-16632798D01*
X9811520Y-16547084D02*
X9773425Y-16547084D01*
X9773425Y-16547084D02*
X9754377Y-16556608D01*
X9754377Y-16556608D02*
X9744853Y-16566131D01*
X9744853Y-16566131D02*
X9725806Y-16594703D01*
X9725806Y-16594703D02*
X9716282Y-16632798D01*
X9716282Y-16632798D02*
X9716282Y-16708988D01*
X9716282Y-16708988D02*
X9725806Y-16728036D01*
X9725806Y-16728036D02*
X9735329Y-16737560D01*
X9735329Y-16737560D02*
X9754377Y-16747084D01*
X9754377Y-16747084D02*
X9792472Y-16747084D01*
X9792472Y-16747084D02*
X9811520Y-16737560D01*
X9811520Y-16737560D02*
X9821044Y-16728036D01*
X9821044Y-16728036D02*
X9830568Y-16708988D01*
X9830568Y-16708988D02*
X9830568Y-16661369D01*
X9830568Y-16661369D02*
X9821044Y-16642322D01*
X9821044Y-16642322D02*
X9811520Y-16632798D01*
X9811520Y-16632798D02*
X9792472Y-16623274D01*
X9792472Y-16623274D02*
X9754377Y-16623274D01*
X9754377Y-16623274D02*
X9735329Y-16632798D01*
X9735329Y-16632798D02*
X9725806Y-16642322D01*
X9725806Y-16642322D02*
X9716282Y-16661369D01*
X10001996Y-16547084D02*
X9963901Y-16547084D01*
X9963901Y-16547084D02*
X9944853Y-16556608D01*
X9944853Y-16556608D02*
X9935329Y-16566131D01*
X9935329Y-16566131D02*
X9916282Y-16594703D01*
X9916282Y-16594703D02*
X9906758Y-16632798D01*
X9906758Y-16632798D02*
X9906758Y-16708988D01*
X9906758Y-16708988D02*
X9916282Y-16728036D01*
X9916282Y-16728036D02*
X9925806Y-16737560D01*
X9925806Y-16737560D02*
X9944853Y-16747084D01*
X9944853Y-16747084D02*
X9982949Y-16747084D01*
X9982949Y-16747084D02*
X10001996Y-16737560D01*
X10001996Y-16737560D02*
X10011520Y-16728036D01*
X10011520Y-16728036D02*
X10021044Y-16708988D01*
X10021044Y-16708988D02*
X10021044Y-16661369D01*
X10021044Y-16661369D02*
X10011520Y-16642322D01*
X10011520Y-16642322D02*
X10001996Y-16632798D01*
X10001996Y-16632798D02*
X9982949Y-16623274D01*
X9982949Y-16623274D02*
X9944853Y-16623274D01*
X9944853Y-16623274D02*
X9925806Y-16632798D01*
X9925806Y-16632798D02*
X9916282Y-16642322D01*
X9916282Y-16642322D02*
X9906758Y-16661369D01*
X10097234Y-16547084D02*
X10097234Y-16585179D01*
X10173425Y-16547084D02*
X10173425Y-16585179D01*
X10468663Y-16823274D02*
X10459139Y-16813750D01*
X10459139Y-16813750D02*
X10440091Y-16785179D01*
X10440091Y-16785179D02*
X10430568Y-16766131D01*
X10430568Y-16766131D02*
X10421044Y-16737560D01*
X10421044Y-16737560D02*
X10411520Y-16689941D01*
X10411520Y-16689941D02*
X10411520Y-16651846D01*
X10411520Y-16651846D02*
X10421044Y-16604227D01*
X10421044Y-16604227D02*
X10430568Y-16575655D01*
X10430568Y-16575655D02*
X10440091Y-16556608D01*
X10440091Y-16556608D02*
X10459139Y-16528036D01*
X10459139Y-16528036D02*
X10468663Y-16518512D01*
X10525806Y-16547084D02*
X10649615Y-16547084D01*
X10649615Y-16547084D02*
X10582949Y-16623274D01*
X10582949Y-16623274D02*
X10611520Y-16623274D01*
X10611520Y-16623274D02*
X10630568Y-16632798D01*
X10630568Y-16632798D02*
X10640091Y-16642322D01*
X10640091Y-16642322D02*
X10649615Y-16661369D01*
X10649615Y-16661369D02*
X10649615Y-16708988D01*
X10649615Y-16708988D02*
X10640091Y-16728036D01*
X10640091Y-16728036D02*
X10630568Y-16737560D01*
X10630568Y-16737560D02*
X10611520Y-16747084D01*
X10611520Y-16747084D02*
X10554377Y-16747084D01*
X10554377Y-16747084D02*
X10535330Y-16737560D01*
X10535330Y-16737560D02*
X10525806Y-16728036D01*
X10887711Y-16747084D02*
X10887711Y-16547084D01*
X10973425Y-16747084D02*
X10973425Y-16642322D01*
X10973425Y-16642322D02*
X10963901Y-16623274D01*
X10963901Y-16623274D02*
X10944853Y-16613750D01*
X10944853Y-16613750D02*
X10916282Y-16613750D01*
X10916282Y-16613750D02*
X10897234Y-16623274D01*
X10897234Y-16623274D02*
X10887711Y-16632798D01*
X11097234Y-16747084D02*
X11078187Y-16737560D01*
X11078187Y-16737560D02*
X11068663Y-16728036D01*
X11068663Y-16728036D02*
X11059139Y-16708988D01*
X11059139Y-16708988D02*
X11059139Y-16651846D01*
X11059139Y-16651846D02*
X11068663Y-16632798D01*
X11068663Y-16632798D02*
X11078187Y-16623274D01*
X11078187Y-16623274D02*
X11097234Y-16613750D01*
X11097234Y-16613750D02*
X11125806Y-16613750D01*
X11125806Y-16613750D02*
X11144853Y-16623274D01*
X11144853Y-16623274D02*
X11154377Y-16632798D01*
X11154377Y-16632798D02*
X11163901Y-16651846D01*
X11163901Y-16651846D02*
X11163901Y-16708988D01*
X11163901Y-16708988D02*
X11154377Y-16728036D01*
X11154377Y-16728036D02*
X11144853Y-16737560D01*
X11144853Y-16737560D02*
X11125806Y-16747084D01*
X11125806Y-16747084D02*
X11097234Y-16747084D01*
X11278187Y-16747084D02*
X11259139Y-16737560D01*
X11259139Y-16737560D02*
X11249615Y-16718512D01*
X11249615Y-16718512D02*
X11249615Y-16547084D01*
X11430568Y-16737560D02*
X11411520Y-16747084D01*
X11411520Y-16747084D02*
X11373425Y-16747084D01*
X11373425Y-16747084D02*
X11354377Y-16737560D01*
X11354377Y-16737560D02*
X11344853Y-16718512D01*
X11344853Y-16718512D02*
X11344853Y-16642322D01*
X11344853Y-16642322D02*
X11354377Y-16623274D01*
X11354377Y-16623274D02*
X11373425Y-16613750D01*
X11373425Y-16613750D02*
X11411520Y-16613750D01*
X11411520Y-16613750D02*
X11430568Y-16623274D01*
X11430568Y-16623274D02*
X11440091Y-16642322D01*
X11440091Y-16642322D02*
X11440091Y-16661369D01*
X11440091Y-16661369D02*
X11344853Y-16680417D01*
X11516282Y-16737560D02*
X11535330Y-16747084D01*
X11535330Y-16747084D02*
X11573425Y-16747084D01*
X11573425Y-16747084D02*
X11592472Y-16737560D01*
X11592472Y-16737560D02*
X11601996Y-16718512D01*
X11601996Y-16718512D02*
X11601996Y-16708988D01*
X11601996Y-16708988D02*
X11592472Y-16689941D01*
X11592472Y-16689941D02*
X11573425Y-16680417D01*
X11573425Y-16680417D02*
X11544853Y-16680417D01*
X11544853Y-16680417D02*
X11525806Y-16670893D01*
X11525806Y-16670893D02*
X11516282Y-16651846D01*
X11516282Y-16651846D02*
X11516282Y-16642322D01*
X11516282Y-16642322D02*
X11525806Y-16623274D01*
X11525806Y-16623274D02*
X11544853Y-16613750D01*
X11544853Y-16613750D02*
X11573425Y-16613750D01*
X11573425Y-16613750D02*
X11592472Y-16623274D01*
X11668663Y-16823274D02*
X11678187Y-16813750D01*
X11678187Y-16813750D02*
X11697234Y-16785179D01*
X11697234Y-16785179D02*
X11706758Y-16766131D01*
X11706758Y-16766131D02*
X11716282Y-16737560D01*
X11716282Y-16737560D02*
X11725806Y-16689941D01*
X11725806Y-16689941D02*
X11725806Y-16651846D01*
X11725806Y-16651846D02*
X11716282Y-16604227D01*
X11716282Y-16604227D02*
X11706758Y-16575655D01*
X11706758Y-16575655D02*
X11697234Y-16556608D01*
X11697234Y-16556608D02*
X11678187Y-16528036D01*
X11678187Y-16528036D02*
X11668663Y-16518512D01*
X12030568Y-16823274D02*
X12021044Y-16813750D01*
X12021044Y-16813750D02*
X12001996Y-16785179D01*
X12001996Y-16785179D02*
X11992472Y-16766131D01*
X11992472Y-16766131D02*
X11982949Y-16737560D01*
X11982949Y-16737560D02*
X11973425Y-16689941D01*
X11973425Y-16689941D02*
X11973425Y-16651846D01*
X11973425Y-16651846D02*
X11982949Y-16604227D01*
X11982949Y-16604227D02*
X11992472Y-16575655D01*
X11992472Y-16575655D02*
X12001996Y-16556608D01*
X12001996Y-16556608D02*
X12021044Y-16528036D01*
X12021044Y-16528036D02*
X12030568Y-16518512D01*
X12106758Y-16613750D02*
X12106758Y-16747084D01*
X12106758Y-16632798D02*
X12116282Y-16623274D01*
X12116282Y-16623274D02*
X12135330Y-16613750D01*
X12135330Y-16613750D02*
X12163901Y-16613750D01*
X12163901Y-16613750D02*
X12182949Y-16623274D01*
X12182949Y-16623274D02*
X12192472Y-16642322D01*
X12192472Y-16642322D02*
X12192472Y-16747084D01*
X12316282Y-16747084D02*
X12297234Y-16737560D01*
X12297234Y-16737560D02*
X12287711Y-16728036D01*
X12287711Y-16728036D02*
X12278187Y-16708988D01*
X12278187Y-16708988D02*
X12278187Y-16651846D01*
X12278187Y-16651846D02*
X12287711Y-16632798D01*
X12287711Y-16632798D02*
X12297234Y-16623274D01*
X12297234Y-16623274D02*
X12316282Y-16613750D01*
X12316282Y-16613750D02*
X12344853Y-16613750D01*
X12344853Y-16613750D02*
X12363901Y-16623274D01*
X12363901Y-16623274D02*
X12373425Y-16632798D01*
X12373425Y-16632798D02*
X12382949Y-16651846D01*
X12382949Y-16651846D02*
X12382949Y-16708988D01*
X12382949Y-16708988D02*
X12373425Y-16728036D01*
X12373425Y-16728036D02*
X12363901Y-16737560D01*
X12363901Y-16737560D02*
X12344853Y-16747084D01*
X12344853Y-16747084D02*
X12316282Y-16747084D01*
X12440092Y-16613750D02*
X12516282Y-16613750D01*
X12468663Y-16547084D02*
X12468663Y-16718512D01*
X12468663Y-16718512D02*
X12478187Y-16737560D01*
X12478187Y-16737560D02*
X12497234Y-16747084D01*
X12497234Y-16747084D02*
X12516282Y-16747084D01*
X12735330Y-16613750D02*
X12735330Y-16813750D01*
X12735330Y-16623274D02*
X12754377Y-16613750D01*
X12754377Y-16613750D02*
X12792473Y-16613750D01*
X12792473Y-16613750D02*
X12811520Y-16623274D01*
X12811520Y-16623274D02*
X12821044Y-16632798D01*
X12821044Y-16632798D02*
X12830568Y-16651846D01*
X12830568Y-16651846D02*
X12830568Y-16708988D01*
X12830568Y-16708988D02*
X12821044Y-16728036D01*
X12821044Y-16728036D02*
X12811520Y-16737560D01*
X12811520Y-16737560D02*
X12792473Y-16747084D01*
X12792473Y-16747084D02*
X12754377Y-16747084D01*
X12754377Y-16747084D02*
X12735330Y-16737560D01*
X12944853Y-16747084D02*
X12925806Y-16737560D01*
X12925806Y-16737560D02*
X12916282Y-16718512D01*
X12916282Y-16718512D02*
X12916282Y-16547084D01*
X13106758Y-16747084D02*
X13106758Y-16642322D01*
X13106758Y-16642322D02*
X13097234Y-16623274D01*
X13097234Y-16623274D02*
X13078187Y-16613750D01*
X13078187Y-16613750D02*
X13040092Y-16613750D01*
X13040092Y-16613750D02*
X13021044Y-16623274D01*
X13106758Y-16737560D02*
X13087711Y-16747084D01*
X13087711Y-16747084D02*
X13040092Y-16747084D01*
X13040092Y-16747084D02*
X13021044Y-16737560D01*
X13021044Y-16737560D02*
X13011520Y-16718512D01*
X13011520Y-16718512D02*
X13011520Y-16699465D01*
X13011520Y-16699465D02*
X13021044Y-16680417D01*
X13021044Y-16680417D02*
X13040092Y-16670893D01*
X13040092Y-16670893D02*
X13087711Y-16670893D01*
X13087711Y-16670893D02*
X13106758Y-16661369D01*
X13173425Y-16613750D02*
X13249615Y-16613750D01*
X13201996Y-16547084D02*
X13201996Y-16718512D01*
X13201996Y-16718512D02*
X13211520Y-16737560D01*
X13211520Y-16737560D02*
X13230568Y-16747084D01*
X13230568Y-16747084D02*
X13249615Y-16747084D01*
X13392473Y-16737560D02*
X13373425Y-16747084D01*
X13373425Y-16747084D02*
X13335330Y-16747084D01*
X13335330Y-16747084D02*
X13316282Y-16737560D01*
X13316282Y-16737560D02*
X13306758Y-16718512D01*
X13306758Y-16718512D02*
X13306758Y-16642322D01*
X13306758Y-16642322D02*
X13316282Y-16623274D01*
X13316282Y-16623274D02*
X13335330Y-16613750D01*
X13335330Y-16613750D02*
X13373425Y-16613750D01*
X13373425Y-16613750D02*
X13392473Y-16623274D01*
X13392473Y-16623274D02*
X13401996Y-16642322D01*
X13401996Y-16642322D02*
X13401996Y-16661369D01*
X13401996Y-16661369D02*
X13306758Y-16680417D01*
X13573425Y-16747084D02*
X13573425Y-16547084D01*
X13573425Y-16737560D02*
X13554377Y-16747084D01*
X13554377Y-16747084D02*
X13516282Y-16747084D01*
X13516282Y-16747084D02*
X13497234Y-16737560D01*
X13497234Y-16737560D02*
X13487711Y-16728036D01*
X13487711Y-16728036D02*
X13478187Y-16708988D01*
X13478187Y-16708988D02*
X13478187Y-16651846D01*
X13478187Y-16651846D02*
X13487711Y-16632798D01*
X13487711Y-16632798D02*
X13497234Y-16623274D01*
X13497234Y-16623274D02*
X13516282Y-16613750D01*
X13516282Y-16613750D02*
X13554377Y-16613750D01*
X13554377Y-16613750D02*
X13573425Y-16623274D01*
X13649615Y-16823274D02*
X13659139Y-16813750D01*
X13659139Y-16813750D02*
X13678187Y-16785179D01*
X13678187Y-16785179D02*
X13687711Y-16766131D01*
X13687711Y-16766131D02*
X13697234Y-16737560D01*
X13697234Y-16737560D02*
X13706758Y-16689941D01*
X13706758Y-16689941D02*
X13706758Y-16651846D01*
X13706758Y-16651846D02*
X13697234Y-16604227D01*
X13697234Y-16604227D02*
X13687711Y-16575655D01*
X13687711Y-16575655D02*
X13678187Y-16556608D01*
X13678187Y-16556608D02*
X13659139Y-16528036D01*
X13659139Y-16528036D02*
X13649615Y-16518512D01*
M02*
