%TF.GenerationSoftware,KiCad,Pcbnew,9.0.7*%
%TF.CreationDate,2026-03-25T20:23:26-05:00*%
%TF.ProjectId,light_controller_2.0,6c696768-745f-4636-9f6e-74726f6c6c65,rev?*%
%TF.SameCoordinates,Original*%
%TF.FileFunction,Soldermask,Top*%
%TF.FilePolarity,Negative*%
%FSLAX46Y46*%
G04 Gerber Fmt 4.6, Leading zero omitted, Abs format (unit mm)*
G04 Created by KiCad (PCBNEW 9.0.7) date 2026-03-25 20:23:26*
%MOMM*%
%LPD*%
G01*
G04 APERTURE LIST*
%ADD10R,1.700000X1.700000*%
%ADD11C,1.700000*%
%ADD12R,1.710000X1.800000*%
%ADD13O,1.710000X1.800000*%
%ADD14R,1.500000X1.500000*%
%ADD15C,1.500000*%
%ADD16C,1.600000*%
%ADD17C,1.800000*%
%ADD18R,1.905000X2.000000*%
%ADD19O,1.905000X2.000000*%
%ADD20C,2.200000*%
%ADD21R,2.000000X1.200000*%
%ADD22O,2.000000X1.200000*%
G04 APERTURE END LIST*
D10*
X100203000Y-46101000D03*
D11*
X97663000Y-46101000D03*
X95123000Y-46101000D03*
X92583000Y-46101000D03*
D12*
X133997000Y-141478000D03*
D13*
X136277000Y-141478000D03*
X138557000Y-141478000D03*
D14*
X132969000Y-118110000D03*
D15*
X130429000Y-118110000D03*
X127889000Y-118110000D03*
D14*
X142748000Y-117983000D03*
D15*
X140208000Y-117983000D03*
X137668000Y-117983000D03*
D12*
X124460000Y-141224000D03*
D13*
X126740000Y-141224000D03*
X129020000Y-141224000D03*
D10*
X75946000Y-63754000D03*
D11*
X75946000Y-66294000D03*
X75946000Y-68834000D03*
X75946000Y-71374000D03*
D16*
X128397000Y-124206000D03*
D17*
X128397000Y-131826000D03*
D16*
X139085000Y-74041000D03*
X141585000Y-74041000D03*
D10*
X146431000Y-71374000D03*
D11*
X146431000Y-73914000D03*
D16*
X138303000Y-57785000D03*
X145923000Y-57785000D03*
X139290000Y-124714000D03*
D17*
X139290000Y-132334000D03*
D16*
X107442000Y-124460000D03*
D17*
X107442000Y-132080000D03*
D16*
X116586000Y-124587000D03*
D17*
X116586000Y-132207000D03*
D10*
X81534000Y-46101000D03*
D11*
X84074000Y-46101000D03*
X86614000Y-46101000D03*
D10*
X96774000Y-89027000D03*
D11*
X96774000Y-86487000D03*
X96774000Y-83947000D03*
X96774000Y-81407000D03*
D16*
X101092000Y-102870000D03*
X101092000Y-110490000D03*
D10*
X121279000Y-153797000D03*
D11*
X123819000Y-153797000D03*
X126359000Y-153797000D03*
X128899000Y-153797000D03*
X131439000Y-153797000D03*
X133979000Y-153797000D03*
D16*
X100838000Y-73091000D03*
X93218000Y-73091000D03*
D10*
X99054000Y-154051000D03*
D11*
X101594000Y-154051000D03*
X104134000Y-154051000D03*
X106674000Y-154051000D03*
D18*
X89535000Y-62296000D03*
D19*
X86995000Y-62296000D03*
X84455000Y-62296000D03*
D14*
X89281000Y-72858000D03*
D15*
X86741000Y-72858000D03*
X84201000Y-72858000D03*
D16*
X94107000Y-102997000D03*
X94107000Y-110617000D03*
D12*
X103263000Y-141478000D03*
D13*
X105543000Y-141478000D03*
X107823000Y-141478000D03*
D10*
X152405000Y-42164000D03*
D11*
X149865000Y-42164000D03*
D16*
X143510000Y-103140000D03*
X143510000Y-110760000D03*
D14*
X106426000Y-117094000D03*
D15*
X103886000Y-117094000D03*
X101346000Y-117094000D03*
D16*
X135509000Y-104267000D03*
X135509000Y-111887000D03*
D14*
X148510000Y-61185000D03*
D15*
X151050000Y-61185000D03*
X153590000Y-61185000D03*
D16*
X102235000Y-64074000D03*
X94615000Y-64074000D03*
X133731000Y-50419000D03*
X141351000Y-50419000D03*
D20*
X157734000Y-155321000D03*
X73152000Y-155067000D03*
D10*
X156972000Y-55118000D03*
D11*
X156972000Y-57658000D03*
X156972000Y-60198000D03*
X156972000Y-62738000D03*
D14*
X118491000Y-117475000D03*
D15*
X115951000Y-117475000D03*
X113411000Y-117475000D03*
D20*
X158242000Y-42291000D03*
D16*
X143637000Y-81661000D03*
X136017000Y-81661000D03*
D12*
X114058000Y-141478000D03*
D13*
X116338000Y-141478000D03*
X118618000Y-141478000D03*
D18*
X151130000Y-48326000D03*
D19*
X148590000Y-48326000D03*
X146050000Y-48326000D03*
D21*
X106896000Y-46271120D03*
D22*
X106896000Y-48811120D03*
X106896000Y-51351120D03*
X106896000Y-53891120D03*
X106896000Y-56431120D03*
X106896000Y-58971120D03*
X106896000Y-61511120D03*
X106896000Y-64051120D03*
X106896000Y-66591120D03*
X106896000Y-69131120D03*
X106896000Y-71671120D03*
X106896000Y-74211120D03*
X106896000Y-76751120D03*
X106896000Y-79291120D03*
X106896000Y-81831120D03*
X106896000Y-84371120D03*
X106896000Y-86911120D03*
X106896000Y-89451120D03*
X106896000Y-91991120D03*
X106892320Y-94528400D03*
X106892320Y-97068400D03*
X106892320Y-99608400D03*
X129756000Y-99611120D03*
X129756000Y-97071120D03*
X129756000Y-94531120D03*
X129756000Y-91991120D03*
X129756000Y-89451120D03*
X129756000Y-86911120D03*
X129756000Y-84371120D03*
X129756000Y-81831120D03*
X129756000Y-79291120D03*
X129756000Y-76751120D03*
X129756000Y-74211120D03*
X129756000Y-71671120D03*
X129756000Y-69131120D03*
X129756000Y-66591120D03*
X129756000Y-64051120D03*
X129756000Y-61511120D03*
X129756000Y-58971120D03*
X129756000Y-56431120D03*
X129756000Y-53891120D03*
X129756000Y-51351120D03*
X129756000Y-48811120D03*
X129756000Y-46271120D03*
D10*
X72898000Y-45974000D03*
D11*
X75438000Y-45974000D03*
M02*
