%TF.GenerationSoftware,KiCad,Pcbnew,9.0.7*%
%TF.CreationDate,2026-03-25T20:23:25-05:00*%
%TF.ProjectId,light_controller_2.0,6c696768-745f-4636-9f6e-74726f6c6c65,rev?*%
%TF.SameCoordinates,Original*%
%TF.FileFunction,Copper,L2,Bot*%
%TF.FilePolarity,Positive*%
%FSLAX46Y46*%
G04 Gerber Fmt 4.6, Leading zero omitted, Abs format (unit mm)*
G04 Created by KiCad (PCBNEW 9.0.7) date 2026-03-25 20:23:25*
%MOMM*%
%LPD*%
G01*
G04 APERTURE LIST*
%TA.AperFunction,ComponentPad*%
%ADD10R,1.700000X1.700000*%
%TD*%
%TA.AperFunction,ComponentPad*%
%ADD11C,1.700000*%
%TD*%
%TA.AperFunction,ComponentPad*%
%ADD12R,1.710000X1.800000*%
%TD*%
%TA.AperFunction,ComponentPad*%
%ADD13O,1.710000X1.800000*%
%TD*%
%TA.AperFunction,ComponentPad*%
%ADD14R,1.500000X1.500000*%
%TD*%
%TA.AperFunction,ComponentPad*%
%ADD15C,1.500000*%
%TD*%
%TA.AperFunction,ComponentPad*%
%ADD16C,1.600000*%
%TD*%
%TA.AperFunction,ComponentPad*%
%ADD17C,1.800000*%
%TD*%
%TA.AperFunction,ComponentPad*%
%ADD18R,1.905000X2.000000*%
%TD*%
%TA.AperFunction,ComponentPad*%
%ADD19O,1.905000X2.000000*%
%TD*%
%TA.AperFunction,ComponentPad*%
%ADD20R,2.000000X1.200000*%
%TD*%
%TA.AperFunction,ComponentPad*%
%ADD21O,2.000000X1.200000*%
%TD*%
%TA.AperFunction,ViaPad*%
%ADD22C,1.800000*%
%TD*%
%TA.AperFunction,Conductor*%
%ADD23C,1.000000*%
%TD*%
%TA.AperFunction,Conductor*%
%ADD24C,0.500000*%
%TD*%
G04 APERTURE END LIST*
D10*
X100203000Y-46101000D03*
D11*
X97663000Y-46101000D03*
X95123000Y-46101000D03*
X92583000Y-46101000D03*
D12*
X133997000Y-141478000D03*
D13*
X136277000Y-141478000D03*
X138557000Y-141478000D03*
D14*
X132969000Y-118110000D03*
D15*
X130429000Y-118110000D03*
X127889000Y-118110000D03*
D14*
X142748000Y-117983000D03*
D15*
X140208000Y-117983000D03*
X137668000Y-117983000D03*
D12*
X124460000Y-141224000D03*
D13*
X126740000Y-141224000D03*
X129020000Y-141224000D03*
D10*
X75946000Y-63754000D03*
D11*
X75946000Y-66294000D03*
X75946000Y-68834000D03*
X75946000Y-71374000D03*
D16*
X128397000Y-124206000D03*
D17*
X128397000Y-131826000D03*
D16*
X139085000Y-74041000D03*
X141585000Y-74041000D03*
D10*
X146431000Y-71374000D03*
D11*
X146431000Y-73914000D03*
D16*
X138303000Y-57785000D03*
X145923000Y-57785000D03*
X139290000Y-124714000D03*
D17*
X139290000Y-132334000D03*
D16*
X107442000Y-124460000D03*
D17*
X107442000Y-132080000D03*
D16*
X116586000Y-124587000D03*
D17*
X116586000Y-132207000D03*
D10*
X81534000Y-46101000D03*
D11*
X84074000Y-46101000D03*
X86614000Y-46101000D03*
D10*
X96774000Y-89027000D03*
D11*
X96774000Y-86487000D03*
X96774000Y-83947000D03*
X96774000Y-81407000D03*
D16*
X101092000Y-102870000D03*
X101092000Y-110490000D03*
D10*
X121279000Y-153797000D03*
D11*
X123819000Y-153797000D03*
X126359000Y-153797000D03*
X128899000Y-153797000D03*
X131439000Y-153797000D03*
X133979000Y-153797000D03*
D16*
X100838000Y-73091000D03*
X93218000Y-73091000D03*
D10*
X99054000Y-154051000D03*
D11*
X101594000Y-154051000D03*
X104134000Y-154051000D03*
X106674000Y-154051000D03*
D18*
X89535000Y-62296000D03*
D19*
X86995000Y-62296000D03*
X84455000Y-62296000D03*
D14*
X89281000Y-72858000D03*
D15*
X86741000Y-72858000D03*
X84201000Y-72858000D03*
D16*
X94107000Y-102997000D03*
X94107000Y-110617000D03*
D12*
X103263000Y-141478000D03*
D13*
X105543000Y-141478000D03*
X107823000Y-141478000D03*
D10*
X152405000Y-42164000D03*
D11*
X149865000Y-42164000D03*
D16*
X143510000Y-103140000D03*
X143510000Y-110760000D03*
D14*
X106426000Y-117094000D03*
D15*
X103886000Y-117094000D03*
X101346000Y-117094000D03*
D16*
X135509000Y-104267000D03*
X135509000Y-111887000D03*
D14*
X148510000Y-61185000D03*
D15*
X151050000Y-61185000D03*
X153590000Y-61185000D03*
D16*
X102235000Y-64074000D03*
X94615000Y-64074000D03*
X133731000Y-50419000D03*
X141351000Y-50419000D03*
D10*
X156972000Y-55118000D03*
D11*
X156972000Y-57658000D03*
X156972000Y-60198000D03*
X156972000Y-62738000D03*
D14*
X118491000Y-117475000D03*
D15*
X115951000Y-117475000D03*
X113411000Y-117475000D03*
D16*
X143637000Y-81661000D03*
X136017000Y-81661000D03*
D12*
X114058000Y-141478000D03*
D13*
X116338000Y-141478000D03*
X118618000Y-141478000D03*
D18*
X151130000Y-48326000D03*
D19*
X148590000Y-48326000D03*
X146050000Y-48326000D03*
D20*
X106896000Y-46271120D03*
D21*
X106896000Y-48811120D03*
X106896000Y-51351120D03*
X106896000Y-53891120D03*
X106896000Y-56431120D03*
X106896000Y-58971120D03*
X106896000Y-61511120D03*
X106896000Y-64051120D03*
X106896000Y-66591120D03*
X106896000Y-69131120D03*
X106896000Y-71671120D03*
X106896000Y-74211120D03*
X106896000Y-76751120D03*
X106896000Y-79291120D03*
X106896000Y-81831120D03*
X106896000Y-84371120D03*
X106896000Y-86911120D03*
X106896000Y-89451120D03*
X106896000Y-91991120D03*
X106892320Y-94528400D03*
X106892320Y-97068400D03*
X106892320Y-99608400D03*
X129756000Y-99611120D03*
X129756000Y-97071120D03*
X129756000Y-94531120D03*
X129756000Y-91991120D03*
X129756000Y-89451120D03*
X129756000Y-86911120D03*
X129756000Y-84371120D03*
X129756000Y-81831120D03*
X129756000Y-79291120D03*
X129756000Y-76751120D03*
X129756000Y-74211120D03*
X129756000Y-71671120D03*
X129756000Y-69131120D03*
X129756000Y-66591120D03*
X129756000Y-64051120D03*
X129756000Y-61511120D03*
X129756000Y-58971120D03*
X129756000Y-56431120D03*
X129756000Y-53891120D03*
X129756000Y-51351120D03*
X129756000Y-48811120D03*
X129756000Y-46271120D03*
D10*
X72898000Y-45974000D03*
D11*
X75438000Y-45974000D03*
D22*
X124968000Y-115443000D03*
X84074000Y-51054000D03*
X159893000Y-48006000D03*
X111125000Y-119634000D03*
X154813000Y-45339000D03*
X96520000Y-119634000D03*
X133477000Y-46863000D03*
X145796000Y-45593000D03*
X141859000Y-46863000D03*
X120269000Y-122428000D03*
X132588000Y-122428000D03*
X86868000Y-115316000D03*
X141732000Y-122428000D03*
X135128000Y-122428000D03*
X111252000Y-122428000D03*
X124206000Y-122428000D03*
X159893000Y-69215000D03*
X147066000Y-115570000D03*
X86868000Y-105029000D03*
X84074000Y-58166000D03*
X125603000Y-112522000D03*
X146431000Y-149352000D03*
X132969000Y-99695000D03*
X89662000Y-113665000D03*
X109220000Y-149352000D03*
X151130000Y-98298000D03*
X82804000Y-123444000D03*
X79375000Y-43815000D03*
X79629000Y-75819000D03*
X82931000Y-97536000D03*
D23*
X141585000Y-74041000D02*
X146304000Y-74041000D01*
X141585000Y-74041000D02*
X141585000Y-71862000D01*
D24*
X146304000Y-74041000D02*
X146431000Y-73914000D01*
D23*
X138854120Y-69131120D02*
X129756000Y-69131120D01*
X143637000Y-76093000D02*
X141585000Y-74041000D01*
X141585000Y-71862000D02*
X138854120Y-69131120D01*
X143637000Y-81661000D02*
X143637000Y-76093000D01*
X141541500Y-154622500D02*
X142748000Y-153416000D01*
X84074000Y-58166000D02*
X84074000Y-61915000D01*
X148780500Y-154622500D02*
X155194000Y-148209000D01*
X111252000Y-122428000D02*
X109601000Y-122428000D01*
X141859000Y-46863000D02*
X144587000Y-46863000D01*
X153525000Y-53750000D02*
X153525000Y-53725000D01*
X144653000Y-120728000D02*
X144653000Y-117983000D01*
X104134000Y-154051000D02*
X104134000Y-157220000D01*
X153525000Y-53725000D02*
X155448000Y-51802000D01*
X142750000Y-123446000D02*
X141732000Y-122428000D01*
X120777000Y-90632120D02*
X120777000Y-49784000D01*
X129756000Y-99611120D02*
X120777000Y-90632120D01*
X141541500Y-154622500D02*
X148780500Y-154622500D01*
X145550000Y-55575000D02*
X146550000Y-54575000D01*
X159893000Y-48006000D02*
X155702000Y-48006000D01*
X155448000Y-51802000D02*
X155448000Y-51054000D01*
X97028000Y-43307000D02*
X97663000Y-43942000D01*
X104134000Y-157220000D02*
X104521000Y-157607000D01*
X142748000Y-124077000D02*
X142750000Y-124075000D01*
X84455000Y-65024000D02*
X84455000Y-62296000D01*
X132885120Y-46271120D02*
X133477000Y-46863000D01*
X136017000Y-81661000D02*
X136017000Y-77109000D01*
X144587000Y-46863000D02*
X146050000Y-48326000D01*
X136017000Y-86360000D02*
X136017000Y-81661000D01*
X118491000Y-111207080D02*
X120732080Y-111207080D01*
X142929000Y-123446000D02*
X145150000Y-121225000D01*
X142750000Y-124075000D02*
X142750000Y-123446000D01*
X84074000Y-44069000D02*
X84836000Y-43307000D01*
X97663000Y-43942000D02*
X97663000Y-46101000D01*
X97536000Y-74803000D02*
X93853000Y-78486000D01*
X135128000Y-122428000D02*
X132588000Y-122428000D01*
X143675000Y-55575000D02*
X145550000Y-55575000D01*
X145385000Y-61185000D02*
X143675000Y-59475000D01*
X142748000Y-117983000D02*
X144653000Y-117983000D01*
X89281000Y-69850000D02*
X93726000Y-69850000D01*
X86868000Y-115316000D02*
X91186000Y-119634000D01*
X124200000Y-156718000D02*
X139446000Y-156718000D01*
X89281000Y-69850000D02*
X84455000Y-65024000D01*
X97536000Y-73660000D02*
X97536000Y-74803000D01*
X121279000Y-153797000D02*
X121279000Y-155654000D01*
X106426000Y-119253000D02*
X109601000Y-122428000D01*
X151050000Y-54575000D02*
X151075000Y-54600000D01*
X122275000Y-122428000D02*
X120269000Y-122428000D01*
X86868000Y-85471000D02*
X86868000Y-105029000D01*
X147955000Y-98298000D02*
X136017000Y-86360000D01*
X152875000Y-54400000D02*
X153525000Y-53750000D01*
X155448000Y-51054000D02*
X155575000Y-50927000D01*
X106426000Y-117094000D02*
X106426000Y-119253000D01*
X147066000Y-115570000D02*
X147955000Y-114681000D01*
X84074000Y-46101000D02*
X84074000Y-44069000D01*
X111125000Y-119634000D02*
X111125000Y-122301000D01*
X136017000Y-77109000D02*
X139085000Y-74041000D01*
X104521000Y-157607000D02*
X123311000Y-157607000D01*
X155194000Y-148209000D02*
X157861000Y-145542000D01*
X155575000Y-46101000D02*
X154813000Y-45339000D01*
X121279000Y-155654000D02*
X122343000Y-156718000D01*
X151600000Y-54400000D02*
X152875000Y-54400000D01*
X144653000Y-117983000D02*
X147066000Y-115570000D01*
X120777000Y-49784000D02*
X124289880Y-46271120D01*
X142750000Y-123446000D02*
X142929000Y-123446000D01*
X129756000Y-97071120D02*
X129756000Y-99611120D01*
X106892320Y-99608400D02*
X118491000Y-111207080D01*
X155575000Y-48133000D02*
X155575000Y-46101000D01*
X148510000Y-61185000D02*
X145385000Y-61185000D01*
X151075000Y-54600000D02*
X151400000Y-54600000D01*
X157861000Y-120015000D02*
X157861000Y-71247000D01*
X155575000Y-50927000D02*
X155575000Y-48133000D01*
X139446000Y-156718000D02*
X141541500Y-154622500D01*
X146550000Y-54575000D02*
X151050000Y-54575000D01*
X145796000Y-45593000D02*
X145796000Y-48072000D01*
X93726000Y-69850000D02*
X97536000Y-73660000D01*
X124206000Y-122428000D02*
X123444000Y-122428000D01*
X129756000Y-46271120D02*
X132885120Y-46271120D01*
X122275000Y-120625000D02*
X122275000Y-122428000D01*
X142748000Y-153416000D02*
X142748000Y-124077000D01*
X135128000Y-120269000D02*
X132969000Y-118110000D01*
X118491000Y-117475000D02*
X119125000Y-117475000D01*
X145150000Y-121225000D02*
X144653000Y-120728000D01*
X157861000Y-71247000D02*
X159893000Y-69215000D01*
X91186000Y-119634000D02*
X96520000Y-119634000D01*
X84836000Y-43307000D02*
X97028000Y-43307000D01*
X155702000Y-48006000D02*
X155575000Y-48133000D01*
X123444000Y-122428000D02*
X122275000Y-122428000D01*
X89281000Y-72858000D02*
X89281000Y-69850000D01*
X123311000Y-157607000D02*
X124200000Y-156718000D01*
X147955000Y-114681000D02*
X147955000Y-98298000D01*
X124289880Y-46271120D02*
X129756000Y-46271120D01*
X111125000Y-122301000D02*
X111252000Y-122428000D01*
X93853000Y-78486000D02*
X86868000Y-85471000D01*
X135128000Y-122428000D02*
X135128000Y-120269000D01*
X84074000Y-61915000D02*
X84455000Y-62296000D01*
X120732080Y-111207080D02*
X124968000Y-115443000D01*
X157861000Y-145542000D02*
X157861000Y-120015000D01*
X145796000Y-48072000D02*
X146050000Y-48326000D01*
X84074000Y-46101000D02*
X84074000Y-51054000D01*
X143675000Y-59475000D02*
X143675000Y-55575000D01*
X151400000Y-54600000D02*
X151600000Y-54400000D01*
X119125000Y-117475000D02*
X122275000Y-120625000D01*
X122343000Y-156718000D02*
X124200000Y-156718000D01*
X151130000Y-98298000D02*
X152400000Y-97028000D01*
X125603000Y-112522000D02*
X125603000Y-110490000D01*
X146558000Y-149225000D02*
X146558000Y-123825000D01*
X160274000Y-61214000D02*
X158750000Y-62738000D01*
X106892320Y-97068400D02*
X120055400Y-97068400D01*
X72771000Y-65151000D02*
X74168000Y-63754000D01*
X106674000Y-151898000D02*
X109220000Y-149352000D01*
X160274000Y-55626000D02*
X160274000Y-61214000D01*
X159766000Y-55118000D02*
X160274000Y-55626000D01*
X146431000Y-149352000D02*
X146558000Y-149225000D01*
X74422000Y-63754000D02*
X75946000Y-63754000D01*
X158750000Y-62738000D02*
X156972000Y-62738000D01*
X72771000Y-69596000D02*
X72771000Y-65151000D01*
X125603000Y-110490000D02*
X128651000Y-107442000D01*
X132969000Y-101346000D02*
X132969000Y-99695000D01*
X128651000Y-107442000D02*
X128651000Y-104140000D01*
X152400000Y-97028000D02*
X152400000Y-67310000D01*
X120055400Y-97068400D02*
X127127000Y-104140000D01*
X74549000Y-71374000D02*
X72771000Y-69596000D01*
X130175000Y-104140000D02*
X132969000Y-101346000D01*
X75946000Y-71374000D02*
X75946000Y-99949000D01*
X75946000Y-99949000D02*
X89662000Y-113665000D01*
X156972000Y-55118000D02*
X159766000Y-55118000D01*
X74422000Y-63754000D02*
X74168000Y-63754000D01*
X106674000Y-154051000D02*
X106674000Y-151898000D01*
X128651000Y-104140000D02*
X130175000Y-104140000D01*
X127127000Y-104140000D02*
X128651000Y-104140000D01*
X146558000Y-123825000D02*
X152400000Y-117983000D01*
X152400000Y-117983000D02*
X152400000Y-97028000D01*
X152400000Y-67310000D02*
X156972000Y-62738000D01*
X75946000Y-71374000D02*
X74549000Y-71374000D01*
X75946000Y-68834000D02*
X81407000Y-68834000D01*
X75946000Y-66294000D02*
X75946000Y-68834000D01*
X81407000Y-70064000D02*
X81407000Y-68834000D01*
X84201000Y-72858000D02*
X81407000Y-70064000D01*
X156972000Y-59000000D02*
X156972000Y-57658000D01*
X155775000Y-59000000D02*
X153590000Y-61185000D01*
X156972000Y-59000000D02*
X155775000Y-59000000D01*
D24*
X156739000Y-57891000D02*
X156972000Y-57658000D01*
D23*
X156972000Y-60198000D02*
X156972000Y-59000000D01*
X148590000Y-43439000D02*
X148590000Y-48326000D01*
X149865000Y-42164000D02*
X148590000Y-43439000D01*
X70485000Y-46863000D02*
X71374000Y-45974000D01*
X103263000Y-141478000D02*
X102362000Y-141478000D01*
X152405000Y-39746000D02*
X152405000Y-42164000D01*
X115316000Y-128016000D02*
X122428000Y-128016000D01*
X114058000Y-129274000D02*
X115316000Y-128016000D01*
X114058000Y-141478000D02*
X114058000Y-129274000D01*
X72898000Y-45974000D02*
X72898000Y-43038000D01*
X133997000Y-131457000D02*
X133997000Y-141478000D01*
X150988000Y-38085000D02*
X152527000Y-39624000D01*
X98933000Y-144907000D02*
X99054000Y-145028000D01*
X102362000Y-141478000D02*
X98933000Y-144907000D01*
X103263000Y-130925000D02*
X98540000Y-130925000D01*
X124460000Y-130048000D02*
X122428000Y-128016000D01*
X103263000Y-130925000D02*
X106172000Y-128016000D01*
X152527000Y-39624000D02*
X152405000Y-39746000D01*
X99054000Y-145028000D02*
X99054000Y-154051000D01*
X106172000Y-128016000D02*
X115316000Y-128016000D01*
X98540000Y-130925000D02*
X70485000Y-102870000D01*
X122428000Y-128016000D02*
X130556000Y-128016000D01*
X70485000Y-102870000D02*
X70485000Y-46863000D01*
X71374000Y-45974000D02*
X72898000Y-45974000D01*
X77851000Y-38085000D02*
X150988000Y-38085000D01*
X72898000Y-43038000D02*
X77851000Y-38085000D01*
X130556000Y-128016000D02*
X133997000Y-131457000D01*
X124460000Y-141224000D02*
X124460000Y-130048000D01*
X103263000Y-141478000D02*
X103263000Y-130925000D01*
X116762000Y-141654000D02*
X116586000Y-141478000D01*
X121025000Y-147200000D02*
X121025000Y-147600000D01*
X121888000Y-148463000D02*
X124841000Y-148463000D01*
X119450000Y-147200000D02*
X121025000Y-147200000D01*
X121025000Y-147600000D02*
X121888000Y-148463000D01*
X126365000Y-149987000D02*
X126365000Y-153791000D01*
X116338000Y-144088000D02*
X119450000Y-147200000D01*
X126365000Y-153791000D02*
X126359000Y-153797000D01*
X116586000Y-141478000D02*
X116338000Y-141478000D01*
X124841000Y-148463000D02*
X126365000Y-149987000D01*
X116338000Y-141478000D02*
X116338000Y-144088000D01*
X126740000Y-141224000D02*
X126740000Y-146044000D01*
X128899000Y-148215000D02*
X128899000Y-153797000D01*
X128905000Y-148209000D02*
X128899000Y-148215000D01*
X126740000Y-146044000D02*
X128905000Y-148209000D01*
X131439000Y-150882000D02*
X131439000Y-153797000D01*
X136277000Y-146044000D02*
X131439000Y-150882000D01*
X136277000Y-141478000D02*
X136277000Y-146044000D01*
X112875000Y-146350000D02*
X112875000Y-148625000D01*
X114618000Y-150368000D02*
X121285000Y-150368000D01*
X121285000Y-150368000D02*
X123819000Y-152902000D01*
X105543000Y-144043000D02*
X107850000Y-146350000D01*
X123819000Y-152902000D02*
X123819000Y-153797000D01*
X105543000Y-141478000D02*
X105543000Y-144043000D01*
X112875000Y-148625000D02*
X114618000Y-150368000D01*
X107850000Y-146350000D02*
X112875000Y-146350000D01*
X105543000Y-141478000D02*
X105728000Y-141478000D01*
X86995000Y-57531000D02*
X86995000Y-62296000D01*
X75438000Y-45974000D02*
X86995000Y-57531000D01*
X99113081Y-157734000D02*
X94869000Y-157734000D01*
X98298000Y-40640000D02*
X100203000Y-42545000D01*
X81534000Y-42545000D02*
X83439000Y-40640000D01*
X82931000Y-79121000D02*
X79629000Y-75819000D01*
X146431000Y-71374000D02*
X146431000Y-67437000D01*
X106896000Y-48811120D02*
X106896000Y-46271120D01*
X146431000Y-67437000D02*
X141859000Y-62865000D01*
X101594000Y-155253081D02*
X99113081Y-157734000D01*
X82931000Y-97536000D02*
X82931000Y-79121000D01*
X94869000Y-157734000D02*
X94869000Y-152527000D01*
X82804000Y-140462000D02*
X82804000Y-123444000D01*
X100203000Y-46101000D02*
X106725880Y-46101000D01*
X137414000Y-46101000D02*
X132715000Y-41402000D01*
X81534000Y-46101000D02*
X81534000Y-42545000D01*
X101594000Y-154051000D02*
X101594000Y-155253081D01*
X141859000Y-62865000D02*
X141859000Y-56007000D01*
X141859000Y-56007000D02*
X137414000Y-51562000D01*
X83439000Y-40640000D02*
X98298000Y-40640000D01*
X79375000Y-43815000D02*
X80264000Y-43815000D01*
X94869000Y-152527000D02*
X82804000Y-140462000D01*
X106725880Y-46101000D02*
X106896000Y-46271120D01*
X137414000Y-51562000D02*
X137414000Y-46101000D01*
X100203000Y-42545000D02*
X100203000Y-46101000D01*
X132715000Y-41402000D02*
X111765120Y-41402000D01*
X80264000Y-43815000D02*
X81534000Y-42545000D01*
X111765120Y-41402000D02*
X106896000Y-46271120D01*
X101031120Y-56431120D02*
X92583000Y-47983000D01*
X92583000Y-47983000D02*
X92583000Y-46101000D01*
X106896000Y-56431120D02*
X101031120Y-56431120D01*
X95123000Y-46101000D02*
X95123000Y-46998000D01*
X95123000Y-46998000D02*
X102016120Y-53891120D01*
X102016120Y-53891120D02*
X106896000Y-53891120D01*
X86614000Y-46101000D02*
X99484120Y-58971120D01*
X99484120Y-58971120D02*
X106896000Y-58971120D01*
X96774000Y-83947000D02*
X98933000Y-83947000D01*
D24*
X106128880Y-76751120D02*
X106896000Y-76751120D01*
D23*
X98933000Y-83947000D02*
X106128880Y-76751120D01*
D24*
X106255880Y-79291120D02*
X106896000Y-79291120D01*
D23*
X99060000Y-86487000D02*
X106255880Y-79291120D01*
X96774000Y-86487000D02*
X99060000Y-86487000D01*
X96774000Y-81407000D02*
X99060000Y-81407000D01*
X99060000Y-81407000D02*
X106255880Y-74211120D01*
D24*
X106255880Y-74211120D02*
X106896000Y-74211120D01*
D23*
X106509880Y-81831120D02*
X99314000Y-89027000D01*
D24*
X106896000Y-81831120D02*
X106509880Y-81831120D01*
D23*
X99314000Y-89027000D02*
X96774000Y-89027000D01*
X93218000Y-75946000D02*
X93218000Y-73091000D01*
X92583000Y-76581000D02*
X93218000Y-75946000D01*
X89403340Y-76581000D02*
X92583000Y-76581000D01*
X86741000Y-72858000D02*
X86741000Y-73918660D01*
X86741000Y-73918660D02*
X89403340Y-76581000D01*
X150090000Y-57785000D02*
X145923000Y-57785000D01*
X150100000Y-57775000D02*
X150090000Y-57785000D01*
X151050000Y-61185000D02*
X151050000Y-58725000D01*
X151050000Y-58725000D02*
X150100000Y-57775000D01*
X151130000Y-51054000D02*
X151130000Y-48326000D01*
X150114000Y-52324000D02*
X151257000Y-51181000D01*
X143510000Y-50419000D02*
X145415000Y-52324000D01*
X141351000Y-50419000D02*
X143510000Y-50419000D01*
X145415000Y-52324000D02*
X150114000Y-52324000D01*
D24*
X151257000Y-51181000D02*
X151130000Y-51054000D01*
D23*
X130429000Y-113721000D02*
X130429000Y-118110000D01*
X132263000Y-111887000D02*
X130429000Y-113721000D01*
X135509000Y-111887000D02*
X132263000Y-111887000D01*
X127889000Y-123698000D02*
X128397000Y-124206000D01*
X127889000Y-118110000D02*
X127889000Y-123698000D01*
X101346000Y-117094000D02*
X101346000Y-118364000D01*
X101346000Y-118364000D02*
X107442000Y-124460000D01*
X103886000Y-117094000D02*
X103886000Y-114936000D01*
X95050000Y-113725000D02*
X94107000Y-112782000D01*
X94107000Y-112782000D02*
X94107000Y-110617000D01*
X103886000Y-114936000D02*
X102675000Y-113725000D01*
X102675000Y-113725000D02*
X95050000Y-113725000D01*
X137668000Y-123092000D02*
X139290000Y-124714000D01*
X137668000Y-117983000D02*
X137668000Y-123092000D01*
X140208000Y-112649000D02*
X142097000Y-110760000D01*
X140208000Y-117983000D02*
X140208000Y-112649000D01*
X142097000Y-110760000D02*
X143510000Y-110760000D01*
X129020000Y-132449000D02*
X128397000Y-131826000D01*
X129020000Y-141224000D02*
X129020000Y-132449000D01*
X107823000Y-141478000D02*
X107823000Y-132461000D01*
D24*
X107823000Y-132461000D02*
X107442000Y-132080000D01*
D23*
X139290000Y-132334000D02*
X139290000Y-140745000D01*
X139290000Y-140745000D02*
X138557000Y-141478000D01*
X113411000Y-118611000D02*
X116586000Y-121786000D01*
X116586000Y-121786000D02*
X116586000Y-124587000D01*
X113411000Y-117475000D02*
X113411000Y-118611000D01*
X115951000Y-113001000D02*
X115951000Y-117475000D01*
X101092000Y-110490000D02*
X113440000Y-110490000D01*
X113440000Y-110490000D02*
X115951000Y-113001000D01*
X118618000Y-141478000D02*
X118618000Y-134239000D01*
X118618000Y-134239000D02*
X116586000Y-132207000D01*
D24*
X94615000Y-64074000D02*
X91313000Y-64074000D01*
X91313000Y-64074000D02*
X89535000Y-62296000D01*
D23*
X100838000Y-73091000D02*
X102059000Y-73091000D01*
X102059000Y-73091000D02*
X106018880Y-69131120D01*
X106018880Y-69131120D02*
X106896000Y-69131120D01*
X131361120Y-56431120D02*
X129756000Y-56431120D01*
X132715000Y-57785000D02*
X131361120Y-56431120D01*
X138303000Y-57785000D02*
X132715000Y-57785000D01*
X133731000Y-52197000D02*
X132036880Y-53891120D01*
X132036880Y-53891120D02*
X129756000Y-53891120D01*
X133731000Y-50419000D02*
X133731000Y-52197000D01*
X135509000Y-104267000D02*
X135509000Y-94309000D01*
X135509000Y-94309000D02*
X130651120Y-89451120D01*
X130651120Y-89451120D02*
X129756000Y-89451120D01*
X94107000Y-102997000D02*
X94107000Y-101473000D01*
X103548120Y-91991120D02*
X106896000Y-91991120D01*
X103568500Y-92011500D02*
X103548120Y-91991120D01*
X94107000Y-101473000D02*
X103568500Y-92011500D01*
X143510000Y-98685000D02*
X143510000Y-103140000D01*
X143510000Y-98685000D02*
X131736120Y-86911120D01*
X131736120Y-86911120D02*
X129756000Y-86911120D01*
X101092000Y-99683000D02*
X106246600Y-94528400D01*
X101092000Y-102870000D02*
X101092000Y-99683000D01*
X106246600Y-94528400D02*
X106892320Y-94528400D01*
D24*
X102235000Y-64074000D02*
X104333120Y-64074000D01*
X104333120Y-64074000D02*
X106896000Y-61511120D01*
M02*
