%TF.GenerationSoftware,KiCad,Pcbnew,9.0.7*%
%TF.CreationDate,2026-03-25T20:20:39-05:00*%
%TF.ProjectId,light_controller_2.0,6c696768-745f-4636-9f6e-74726f6c6c65,rev?*%
%TF.SameCoordinates,Original*%
%TF.FileFunction,Drillmap*%
%TF.FilePolarity,Positive*%
%FSLAX45Y45*%
G04 Gerber Fmt 4.5, Leading zero omitted, Abs format (unit mm)*
G04 Created by KiCad (PCBNEW 9.0.7) date 2026-03-25 20:20:39*
%MOMM*%
%LPD*%
G01*
G04 APERTURE LIST*
%ADD10C,0.050000*%
%ADD11C,0.200000*%
%ADD12C,0.100000*%
%ADD13C,0.110000*%
G04 APERTURE END LIST*
D10*
X6896100Y-3608400D02*
X16192500Y-3608400D01*
X16192500Y-16013100D01*
X6896100Y-16013100D01*
X6896100Y-3608400D01*
D11*
D12*
X8380100Y-7245800D02*
X8460100Y-7325800D01*
X8460100Y-7245800D02*
X8380100Y-7325800D01*
X8634100Y-7245800D02*
X8714100Y-7325800D01*
X8714100Y-7245800D02*
X8634100Y-7325800D01*
X8888100Y-7245800D02*
X8968100Y-7325800D01*
X8968100Y-7245800D02*
X8888100Y-7325800D01*
X9281800Y-7269100D02*
X9361800Y-7349100D01*
X9361800Y-7269100D02*
X9281800Y-7349100D01*
X9370700Y-10259700D02*
X9450700Y-10339700D01*
X9450700Y-10259700D02*
X9370700Y-10339700D01*
X9370700Y-11021700D02*
X9450700Y-11101700D01*
X9450700Y-11021700D02*
X9370700Y-11101700D01*
X9421500Y-6367400D02*
X9501500Y-6447400D01*
X9501500Y-6367400D02*
X9421500Y-6447400D01*
X10043800Y-7269100D02*
X10123800Y-7349100D01*
X10123800Y-7269100D02*
X10043800Y-7349100D01*
X10069200Y-10247000D02*
X10149200Y-10327000D01*
X10149200Y-10247000D02*
X10069200Y-10327000D01*
X10069200Y-11009000D02*
X10149200Y-11089000D01*
X10149200Y-11009000D02*
X10069200Y-11089000D01*
X10094600Y-11669400D02*
X10174600Y-11749400D01*
X10174600Y-11669400D02*
X10094600Y-11749400D01*
X10183500Y-6367400D02*
X10263500Y-6447400D01*
X10263500Y-6367400D02*
X10183500Y-6447400D01*
X10348600Y-11669400D02*
X10428600Y-11749400D01*
X10428600Y-11669400D02*
X10348600Y-11749400D01*
X10602600Y-11669400D02*
X10682600Y-11749400D01*
X10682600Y-11669400D02*
X10602600Y-11749400D01*
X10649232Y-9412840D02*
X10729232Y-9492840D01*
X10729232Y-9412840D02*
X10649232Y-9492840D01*
X10649232Y-9666840D02*
X10729232Y-9746840D01*
X10729232Y-9666840D02*
X10649232Y-9746840D01*
X10649232Y-9920840D02*
X10729232Y-10000840D01*
X10729232Y-9920840D02*
X10649232Y-10000840D01*
X10649600Y-4587112D02*
X10729600Y-4667112D01*
X10729600Y-4587112D02*
X10649600Y-4667112D01*
X10649600Y-4841112D02*
X10729600Y-4921112D01*
X10729600Y-4841112D02*
X10649600Y-4921112D01*
X10649600Y-5095112D02*
X10729600Y-5175112D01*
X10729600Y-5095112D02*
X10649600Y-5175112D01*
X10649600Y-5349112D02*
X10729600Y-5429112D01*
X10729600Y-5349112D02*
X10649600Y-5429112D01*
X10649600Y-5603112D02*
X10729600Y-5683112D01*
X10729600Y-5603112D02*
X10649600Y-5683112D01*
X10649600Y-5857112D02*
X10729600Y-5937112D01*
X10729600Y-5857112D02*
X10649600Y-5937112D01*
X10649600Y-6111112D02*
X10729600Y-6191112D01*
X10729600Y-6111112D02*
X10649600Y-6191112D01*
X10649600Y-6365112D02*
X10729600Y-6445112D01*
X10729600Y-6365112D02*
X10649600Y-6445112D01*
X10649600Y-6619112D02*
X10729600Y-6699112D01*
X10729600Y-6619112D02*
X10649600Y-6699112D01*
X10649600Y-6873112D02*
X10729600Y-6953112D01*
X10729600Y-6873112D02*
X10649600Y-6953112D01*
X10649600Y-7127112D02*
X10729600Y-7207112D01*
X10729600Y-7127112D02*
X10649600Y-7207112D01*
X10649600Y-7381112D02*
X10729600Y-7461112D01*
X10729600Y-7381112D02*
X10649600Y-7461112D01*
X10649600Y-7635112D02*
X10729600Y-7715112D01*
X10729600Y-7635112D02*
X10649600Y-7715112D01*
X10649600Y-7889112D02*
X10729600Y-7969112D01*
X10729600Y-7889112D02*
X10649600Y-7969112D01*
X10649600Y-8143112D02*
X10729600Y-8223112D01*
X10729600Y-8143112D02*
X10649600Y-8223112D01*
X10649600Y-8397112D02*
X10729600Y-8477112D01*
X10729600Y-8397112D02*
X10649600Y-8477112D01*
X10649600Y-8651112D02*
X10729600Y-8731112D01*
X10729600Y-8651112D02*
X10649600Y-8731112D01*
X10649600Y-8905112D02*
X10729600Y-8985112D01*
X10729600Y-8905112D02*
X10649600Y-8985112D01*
X10649600Y-9159112D02*
X10729600Y-9239112D01*
X10729600Y-9159112D02*
X10649600Y-9239112D01*
X10704200Y-12406000D02*
X10784200Y-12486000D01*
X10784200Y-12406000D02*
X10704200Y-12486000D01*
X10704200Y-13168000D02*
X10784200Y-13248000D01*
X10784200Y-13168000D02*
X10704200Y-13248000D01*
X11301100Y-11707500D02*
X11381100Y-11787500D01*
X11381100Y-11707500D02*
X11301100Y-11787500D01*
X11555100Y-11707500D02*
X11635100Y-11787500D01*
X11635100Y-11707500D02*
X11555100Y-11787500D01*
X11618600Y-12418700D02*
X11698600Y-12498700D01*
X11698600Y-12418700D02*
X11618600Y-12498700D01*
X11618600Y-13180700D02*
X11698600Y-13260700D01*
X11698600Y-13180700D02*
X11618600Y-13260700D01*
X11809100Y-11707500D02*
X11889100Y-11787500D01*
X11889100Y-11707500D02*
X11809100Y-11787500D01*
X12748900Y-11771000D02*
X12828900Y-11851000D01*
X12828900Y-11771000D02*
X12748900Y-11851000D01*
X12799700Y-12380600D02*
X12879700Y-12460600D01*
X12879700Y-12380600D02*
X12799700Y-12460600D01*
X12799700Y-13142600D02*
X12879700Y-13222600D01*
X12879700Y-13142600D02*
X12799700Y-13222600D01*
X12935600Y-4587112D02*
X13015600Y-4667112D01*
X13015600Y-4587112D02*
X12935600Y-4667112D01*
X12935600Y-4841112D02*
X13015600Y-4921112D01*
X13015600Y-4841112D02*
X12935600Y-4921112D01*
X12935600Y-5095112D02*
X13015600Y-5175112D01*
X13015600Y-5095112D02*
X12935600Y-5175112D01*
X12935600Y-5349112D02*
X13015600Y-5429112D01*
X13015600Y-5349112D02*
X12935600Y-5429112D01*
X12935600Y-5603112D02*
X13015600Y-5683112D01*
X13015600Y-5603112D02*
X12935600Y-5683112D01*
X12935600Y-5857112D02*
X13015600Y-5937112D01*
X13015600Y-5857112D02*
X12935600Y-5937112D01*
X12935600Y-6111112D02*
X13015600Y-6191112D01*
X13015600Y-6111112D02*
X12935600Y-6191112D01*
X12935600Y-6365112D02*
X13015600Y-6445112D01*
X13015600Y-6365112D02*
X12935600Y-6445112D01*
X12935600Y-6619112D02*
X13015600Y-6699112D01*
X13015600Y-6619112D02*
X12935600Y-6699112D01*
X12935600Y-6873112D02*
X13015600Y-6953112D01*
X13015600Y-6873112D02*
X12935600Y-6953112D01*
X12935600Y-7127112D02*
X13015600Y-7207112D01*
X13015600Y-7127112D02*
X12935600Y-7207112D01*
X12935600Y-7381112D02*
X13015600Y-7461112D01*
X13015600Y-7381112D02*
X12935600Y-7461112D01*
X12935600Y-7635112D02*
X13015600Y-7715112D01*
X13015600Y-7635112D02*
X12935600Y-7715112D01*
X12935600Y-7889112D02*
X13015600Y-7969112D01*
X13015600Y-7889112D02*
X12935600Y-7969112D01*
X12935600Y-8143112D02*
X13015600Y-8223112D01*
X13015600Y-8143112D02*
X12935600Y-8223112D01*
X12935600Y-8397112D02*
X13015600Y-8477112D01*
X13015600Y-8397112D02*
X12935600Y-8477112D01*
X12935600Y-8651112D02*
X13015600Y-8731112D01*
X13015600Y-8651112D02*
X12935600Y-8731112D01*
X12935600Y-8905112D02*
X13015600Y-8985112D01*
X13015600Y-8905112D02*
X12935600Y-8985112D01*
X12935600Y-9159112D02*
X13015600Y-9239112D01*
X13015600Y-9159112D02*
X12935600Y-9239112D01*
X12935600Y-9413112D02*
X13015600Y-9493112D01*
X13015600Y-9413112D02*
X12935600Y-9493112D01*
X12935600Y-9667112D02*
X13015600Y-9747112D01*
X13015600Y-9667112D02*
X12935600Y-9747112D01*
X12935600Y-9921112D02*
X13015600Y-10001112D01*
X13015600Y-9921112D02*
X12935600Y-10001112D01*
X13002900Y-11771000D02*
X13082900Y-11851000D01*
X13082900Y-11771000D02*
X13002900Y-11851000D01*
X13256900Y-11771000D02*
X13336900Y-11851000D01*
X13336900Y-11771000D02*
X13256900Y-11851000D01*
X13333100Y-5001900D02*
X13413100Y-5081900D01*
X13413100Y-5001900D02*
X13333100Y-5081900D01*
X13510900Y-10386700D02*
X13590900Y-10466700D01*
X13590900Y-10386700D02*
X13510900Y-10466700D01*
X13510900Y-11148700D02*
X13590900Y-11228700D01*
X13590900Y-11148700D02*
X13510900Y-11228700D01*
X13561700Y-8126100D02*
X13641700Y-8206100D01*
X13641700Y-8126100D02*
X13561700Y-8206100D01*
X13726800Y-11758300D02*
X13806800Y-11838300D01*
X13806800Y-11758300D02*
X13726800Y-11838300D01*
X13790300Y-5738500D02*
X13870300Y-5818500D01*
X13870300Y-5738500D02*
X13790300Y-5818500D01*
X13868500Y-7364100D02*
X13948500Y-7444100D01*
X13948500Y-7364100D02*
X13868500Y-7444100D01*
X13889000Y-12431400D02*
X13969000Y-12511400D01*
X13969000Y-12431400D02*
X13889000Y-12511400D01*
X13889000Y-13193400D02*
X13969000Y-13273400D01*
X13969000Y-13193400D02*
X13889000Y-13273400D01*
X13980800Y-11758300D02*
X14060800Y-11838300D01*
X14060800Y-11758300D02*
X13980800Y-11838300D01*
X14095100Y-5001900D02*
X14175100Y-5081900D01*
X14175100Y-5001900D02*
X14095100Y-5081900D01*
X14118500Y-7364100D02*
X14198500Y-7444100D01*
X14198500Y-7364100D02*
X14118500Y-7444100D01*
X14234800Y-11758300D02*
X14314800Y-11838300D01*
X14314800Y-11758300D02*
X14234800Y-11838300D01*
X14311000Y-10274000D02*
X14391000Y-10354000D01*
X14391000Y-10274000D02*
X14311000Y-10354000D01*
X14311000Y-11036000D02*
X14391000Y-11116000D01*
X14391000Y-11036000D02*
X14311000Y-11116000D01*
X14323700Y-8126100D02*
X14403700Y-8206100D01*
X14403700Y-8126100D02*
X14323700Y-8206100D01*
X14552300Y-5738500D02*
X14632300Y-5818500D01*
X14632300Y-5738500D02*
X14552300Y-5818500D01*
X14811000Y-6078500D02*
X14891000Y-6158500D01*
X14891000Y-6078500D02*
X14811000Y-6158500D01*
X15065000Y-6078500D02*
X15145000Y-6158500D01*
X15145000Y-6078500D02*
X15065000Y-6158500D01*
X15319000Y-6078500D02*
X15399000Y-6158500D01*
X15399000Y-6078500D02*
X15319000Y-6158500D01*
X7987500Y-4381500D02*
G75*
G02*
X7887500Y-4381500I-50000J0D01*
G01*
X7887500Y-4381500D02*
G75*
G02*
X7987500Y-4381500I50000J0D01*
G01*
X8012900Y-7581900D02*
G75*
G02*
X7912900Y-7581900I-50000J0D01*
G01*
X7912900Y-7581900D02*
G75*
G02*
X8012900Y-7581900I50000J0D01*
G01*
X8330400Y-12344400D02*
G75*
G02*
X8230400Y-12344400I-50000J0D01*
G01*
X8230400Y-12344400D02*
G75*
G02*
X8330400Y-12344400I50000J0D01*
G01*
X8343100Y-9753600D02*
G75*
G02*
X8243100Y-9753600I-50000J0D01*
G01*
X8243100Y-9753600D02*
G75*
G02*
X8343100Y-9753600I50000J0D01*
G01*
X8457400Y-5105400D02*
G75*
G02*
X8357400Y-5105400I-50000J0D01*
G01*
X8357400Y-5105400D02*
G75*
G02*
X8457400Y-5105400I50000J0D01*
G01*
X8457400Y-5816600D02*
G75*
G02*
X8357400Y-5816600I-50000J0D01*
G01*
X8357400Y-5816600D02*
G75*
G02*
X8457400Y-5816600I50000J0D01*
G01*
X8736800Y-10502900D02*
G75*
G02*
X8636800Y-10502900I-50000J0D01*
G01*
X8636800Y-10502900D02*
G75*
G02*
X8736800Y-10502900I50000J0D01*
G01*
X8736800Y-11531600D02*
G75*
G02*
X8636800Y-11531600I-50000J0D01*
G01*
X8636800Y-11531600D02*
G75*
G02*
X8736800Y-11531600I50000J0D01*
G01*
X9016200Y-11366500D02*
G75*
G02*
X8916200Y-11366500I-50000J0D01*
G01*
X8916200Y-11366500D02*
G75*
G02*
X9016200Y-11366500I50000J0D01*
G01*
X9702000Y-11963400D02*
G75*
G02*
X9602000Y-11963400I-50000J0D01*
G01*
X9602000Y-11963400D02*
G75*
G02*
X9702000Y-11963400I50000J0D01*
G01*
X10972000Y-14935200D02*
G75*
G02*
X10872000Y-14935200I-50000J0D01*
G01*
X10872000Y-14935200D02*
G75*
G02*
X10972000Y-14935200I50000J0D01*
G01*
X11162500Y-11963400D02*
G75*
G02*
X11062500Y-11963400I-50000J0D01*
G01*
X11062500Y-11963400D02*
G75*
G02*
X11162500Y-11963400I50000J0D01*
G01*
X11175200Y-12242800D02*
G75*
G02*
X11075200Y-12242800I-50000J0D01*
G01*
X11075200Y-12242800D02*
G75*
G02*
X11175200Y-12242800I50000J0D01*
G01*
X12076900Y-12242800D02*
G75*
G02*
X11976900Y-12242800I-50000J0D01*
G01*
X11976900Y-12242800D02*
G75*
G02*
X12076900Y-12242800I50000J0D01*
G01*
X12470600Y-12242800D02*
G75*
G02*
X12370600Y-12242800I-50000J0D01*
G01*
X12370600Y-12242800D02*
G75*
G02*
X12470600Y-12242800I50000J0D01*
G01*
X12546800Y-11544300D02*
G75*
G02*
X12446800Y-11544300I-50000J0D01*
G01*
X12446800Y-11544300D02*
G75*
G02*
X12546800Y-11544300I50000J0D01*
G01*
X12610300Y-11252200D02*
G75*
G02*
X12510300Y-11252200I-50000J0D01*
G01*
X12510300Y-11252200D02*
G75*
G02*
X12610300Y-11252200I50000J0D01*
G01*
X13308800Y-12242800D02*
G75*
G02*
X13208800Y-12242800I-50000J0D01*
G01*
X13208800Y-12242800D02*
G75*
G02*
X13308800Y-12242800I50000J0D01*
G01*
X13346900Y-9969500D02*
G75*
G02*
X13246900Y-9969500I-50000J0D01*
G01*
X13246900Y-9969500D02*
G75*
G02*
X13346900Y-9969500I50000J0D01*
G01*
X13397700Y-4686300D02*
G75*
G02*
X13297700Y-4686300I-50000J0D01*
G01*
X13297700Y-4686300D02*
G75*
G02*
X13397700Y-4686300I50000J0D01*
G01*
X13562800Y-12242800D02*
G75*
G02*
X13462800Y-12242800I-50000J0D01*
G01*
X13462800Y-12242800D02*
G75*
G02*
X13562800Y-12242800I50000J0D01*
G01*
X14223200Y-12242800D02*
G75*
G02*
X14123200Y-12242800I-50000J0D01*
G01*
X14123200Y-12242800D02*
G75*
G02*
X14223200Y-12242800I50000J0D01*
G01*
X14235900Y-4686300D02*
G75*
G02*
X14135900Y-4686300I-50000J0D01*
G01*
X14135900Y-4686300D02*
G75*
G02*
X14235900Y-4686300I50000J0D01*
G01*
X14629600Y-4559300D02*
G75*
G02*
X14529600Y-4559300I-50000J0D01*
G01*
X14529600Y-4559300D02*
G75*
G02*
X14629600Y-4559300I50000J0D01*
G01*
X14693100Y-14935200D02*
G75*
G02*
X14593100Y-14935200I-50000J0D01*
G01*
X14593100Y-14935200D02*
G75*
G02*
X14693100Y-14935200I50000J0D01*
G01*
X14756600Y-11557000D02*
G75*
G02*
X14656600Y-11557000I-50000J0D01*
G01*
X14656600Y-11557000D02*
G75*
G02*
X14756600Y-11557000I50000J0D01*
G01*
X15163000Y-9829800D02*
G75*
G02*
X15063000Y-9829800I-50000J0D01*
G01*
X15063000Y-9829800D02*
G75*
G02*
X15163000Y-9829800I50000J0D01*
G01*
X15531300Y-4533900D02*
G75*
G02*
X15431300Y-4533900I-50000J0D01*
G01*
X15431300Y-4533900D02*
G75*
G02*
X15531300Y-4533900I50000J0D01*
G01*
X16039300Y-4800600D02*
G75*
G02*
X15939300Y-4800600I-50000J0D01*
G01*
X15939300Y-4800600D02*
G75*
G02*
X16039300Y-4800600I50000J0D01*
G01*
X16039300Y-6921500D02*
G75*
G02*
X15939300Y-6921500I-50000J0D01*
G01*
X15939300Y-6921500D02*
G75*
G02*
X16039300Y-6921500I50000J0D01*
G01*
X7289800Y-4547400D02*
X7289800Y-4647400D01*
X7239800Y-4597400D02*
X7339800Y-4597400D01*
X7543800Y-4547400D02*
X7543800Y-4647400D01*
X7493800Y-4597400D02*
X7593800Y-4597400D01*
X7594600Y-6325400D02*
X7594600Y-6425400D01*
X7544600Y-6375400D02*
X7644600Y-6375400D01*
X7594600Y-6579400D02*
X7594600Y-6679400D01*
X7544600Y-6629400D02*
X7644600Y-6629400D01*
X7594600Y-6833400D02*
X7594600Y-6933400D01*
X7544600Y-6883400D02*
X7644600Y-6883400D01*
X7594600Y-7087400D02*
X7594600Y-7187400D01*
X7544600Y-7137400D02*
X7644600Y-7137400D01*
X8153400Y-4560100D02*
X8153400Y-4660100D01*
X8103400Y-4610100D02*
X8203400Y-4610100D01*
X8407400Y-4560100D02*
X8407400Y-4660100D01*
X8357400Y-4610100D02*
X8457400Y-4610100D01*
X8661400Y-4560100D02*
X8661400Y-4660100D01*
X8611400Y-4610100D02*
X8711400Y-4610100D01*
X9258300Y-4560100D02*
X9258300Y-4660100D01*
X9208300Y-4610100D02*
X9308300Y-4610100D01*
X9512300Y-4560100D02*
X9512300Y-4660100D01*
X9462300Y-4610100D02*
X9562300Y-4610100D01*
X9677400Y-8090700D02*
X9677400Y-8190700D01*
X9627400Y-8140700D02*
X9727400Y-8140700D01*
X9677400Y-8344700D02*
X9677400Y-8444700D01*
X9627400Y-8394700D02*
X9727400Y-8394700D01*
X9677400Y-8598700D02*
X9677400Y-8698700D01*
X9627400Y-8648700D02*
X9727400Y-8648700D01*
X9677400Y-8852700D02*
X9677400Y-8952700D01*
X9627400Y-8902700D02*
X9727400Y-8902700D01*
X9766300Y-4560100D02*
X9766300Y-4660100D01*
X9716300Y-4610100D02*
X9816300Y-4610100D01*
X9905400Y-15355100D02*
X9905400Y-15455100D01*
X9855400Y-15405100D02*
X9955400Y-15405100D01*
X10020300Y-4560100D02*
X10020300Y-4660100D01*
X9970300Y-4610100D02*
X10070300Y-4610100D01*
X10159400Y-15355100D02*
X10159400Y-15455100D01*
X10109400Y-15405100D02*
X10209400Y-15405100D01*
X10326300Y-14097800D02*
X10326300Y-14197800D01*
X10276300Y-14147800D02*
X10376300Y-14147800D01*
X10413400Y-15355100D02*
X10413400Y-15455100D01*
X10363400Y-15405100D02*
X10463400Y-15405100D01*
X10554300Y-14097800D02*
X10554300Y-14197800D01*
X10504300Y-14147800D02*
X10604300Y-14147800D01*
X10667400Y-15355100D02*
X10667400Y-15455100D01*
X10617400Y-15405100D02*
X10717400Y-15405100D01*
X10782300Y-14097800D02*
X10782300Y-14197800D01*
X10732300Y-14147800D02*
X10832300Y-14147800D01*
X11405800Y-14097800D02*
X11405800Y-14197800D01*
X11355800Y-14147800D02*
X11455800Y-14147800D01*
X11633800Y-14097800D02*
X11633800Y-14197800D01*
X11583800Y-14147800D02*
X11683800Y-14147800D01*
X11861800Y-14097800D02*
X11861800Y-14197800D01*
X11811800Y-14147800D02*
X11911800Y-14147800D01*
X12127900Y-15329700D02*
X12127900Y-15429700D01*
X12077900Y-15379700D02*
X12177900Y-15379700D01*
X12381900Y-15329700D02*
X12381900Y-15429700D01*
X12331900Y-15379700D02*
X12431900Y-15379700D01*
X12446000Y-14072400D02*
X12446000Y-14172400D01*
X12396000Y-14122400D02*
X12496000Y-14122400D01*
X12635900Y-15329700D02*
X12635900Y-15429700D01*
X12585900Y-15379700D02*
X12685900Y-15379700D01*
X12674000Y-14072400D02*
X12674000Y-14172400D01*
X12624000Y-14122400D02*
X12724000Y-14122400D01*
X12889900Y-15329700D02*
X12889900Y-15429700D01*
X12839900Y-15379700D02*
X12939900Y-15379700D01*
X12902000Y-14072400D02*
X12902000Y-14172400D01*
X12852000Y-14122400D02*
X12952000Y-14122400D01*
X13143900Y-15329700D02*
X13143900Y-15429700D01*
X13093900Y-15379700D02*
X13193900Y-15379700D01*
X13397900Y-15329700D02*
X13397900Y-15429700D01*
X13347900Y-15379700D02*
X13447900Y-15379700D01*
X13399700Y-14097800D02*
X13399700Y-14197800D01*
X13349700Y-14147800D02*
X13449700Y-14147800D01*
X13627700Y-14097800D02*
X13627700Y-14197800D01*
X13577700Y-14147800D02*
X13677700Y-14147800D01*
X13855700Y-14097800D02*
X13855700Y-14197800D01*
X13805700Y-14147800D02*
X13905700Y-14147800D01*
X14643100Y-7087400D02*
X14643100Y-7187400D01*
X14593100Y-7137400D02*
X14693100Y-7137400D01*
X14643100Y-7341400D02*
X14643100Y-7441400D01*
X14593100Y-7391400D02*
X14693100Y-7391400D01*
X14986500Y-4166400D02*
X14986500Y-4266400D01*
X14936500Y-4216400D02*
X15036500Y-4216400D01*
X15240500Y-4166400D02*
X15240500Y-4266400D01*
X15190500Y-4216400D02*
X15290500Y-4216400D01*
X15697200Y-5461800D02*
X15697200Y-5561800D01*
X15647200Y-5511800D02*
X15747200Y-5511800D01*
X15697200Y-5715800D02*
X15697200Y-5815800D01*
X15647200Y-5765800D02*
X15747200Y-5765800D01*
X15697200Y-5969800D02*
X15697200Y-6069800D01*
X15647200Y-6019800D02*
X15747200Y-6019800D01*
X15697200Y-6223800D02*
X15697200Y-6323800D01*
X15647200Y-6273800D02*
X15747200Y-6273800D01*
D13*
X8484391Y-6268491D02*
X8484391Y-6190709D01*
X8406609Y-6190709D01*
X8406609Y-6268491D01*
X8484391Y-6268491D01*
X8738391Y-6268491D02*
X8738391Y-6190709D01*
X8660609Y-6190709D01*
X8660609Y-6268491D01*
X8738391Y-6268491D01*
X8992391Y-6268491D02*
X8992391Y-6190709D01*
X8914609Y-6190709D01*
X8914609Y-6268491D01*
X8992391Y-6268491D01*
X14643891Y-4871491D02*
X14643891Y-4793709D01*
X14566109Y-4793709D01*
X14566109Y-4871491D01*
X14643891Y-4871491D01*
X14897891Y-4871491D02*
X14897891Y-4793709D01*
X14820109Y-4793709D01*
X14820109Y-4871491D01*
X14897891Y-4871491D01*
X15151891Y-4871491D02*
X15151891Y-4793709D01*
X15074109Y-4793709D01*
X15074109Y-4871491D01*
X15151891Y-4871491D01*
D11*
X7154377Y-16327084D02*
X7154377Y-16127084D01*
X7154377Y-16127084D02*
X7201996Y-16127084D01*
X7201996Y-16127084D02*
X7230567Y-16136608D01*
X7230567Y-16136608D02*
X7249615Y-16155655D01*
X7249615Y-16155655D02*
X7259139Y-16174703D01*
X7259139Y-16174703D02*
X7268662Y-16212798D01*
X7268662Y-16212798D02*
X7268662Y-16241369D01*
X7268662Y-16241369D02*
X7259139Y-16279465D01*
X7259139Y-16279465D02*
X7249615Y-16298512D01*
X7249615Y-16298512D02*
X7230567Y-16317560D01*
X7230567Y-16317560D02*
X7201996Y-16327084D01*
X7201996Y-16327084D02*
X7154377Y-16327084D01*
X7354377Y-16327084D02*
X7354377Y-16193750D01*
X7354377Y-16231846D02*
X7363901Y-16212798D01*
X7363901Y-16212798D02*
X7373424Y-16203274D01*
X7373424Y-16203274D02*
X7392472Y-16193750D01*
X7392472Y-16193750D02*
X7411520Y-16193750D01*
X7478186Y-16327084D02*
X7478186Y-16193750D01*
X7478186Y-16127084D02*
X7468662Y-16136608D01*
X7468662Y-16136608D02*
X7478186Y-16146131D01*
X7478186Y-16146131D02*
X7487710Y-16136608D01*
X7487710Y-16136608D02*
X7478186Y-16127084D01*
X7478186Y-16127084D02*
X7478186Y-16146131D01*
X7601996Y-16327084D02*
X7582948Y-16317560D01*
X7582948Y-16317560D02*
X7573424Y-16298512D01*
X7573424Y-16298512D02*
X7573424Y-16127084D01*
X7706758Y-16327084D02*
X7687710Y-16317560D01*
X7687710Y-16317560D02*
X7678186Y-16298512D01*
X7678186Y-16298512D02*
X7678186Y-16127084D01*
X7935329Y-16327084D02*
X7935329Y-16127084D01*
X7935329Y-16127084D02*
X8001996Y-16269941D01*
X8001996Y-16269941D02*
X8068662Y-16127084D01*
X8068662Y-16127084D02*
X8068662Y-16327084D01*
X8249615Y-16327084D02*
X8249615Y-16222322D01*
X8249615Y-16222322D02*
X8240091Y-16203274D01*
X8240091Y-16203274D02*
X8221043Y-16193750D01*
X8221043Y-16193750D02*
X8182948Y-16193750D01*
X8182948Y-16193750D02*
X8163901Y-16203274D01*
X8249615Y-16317560D02*
X8230567Y-16327084D01*
X8230567Y-16327084D02*
X8182948Y-16327084D01*
X8182948Y-16327084D02*
X8163901Y-16317560D01*
X8163901Y-16317560D02*
X8154377Y-16298512D01*
X8154377Y-16298512D02*
X8154377Y-16279465D01*
X8154377Y-16279465D02*
X8163901Y-16260417D01*
X8163901Y-16260417D02*
X8182948Y-16250893D01*
X8182948Y-16250893D02*
X8230567Y-16250893D01*
X8230567Y-16250893D02*
X8249615Y-16241369D01*
X8344853Y-16193750D02*
X8344853Y-16393750D01*
X8344853Y-16203274D02*
X8363901Y-16193750D01*
X8363901Y-16193750D02*
X8401996Y-16193750D01*
X8401996Y-16193750D02*
X8421044Y-16203274D01*
X8421044Y-16203274D02*
X8430567Y-16212798D01*
X8430567Y-16212798D02*
X8440091Y-16231846D01*
X8440091Y-16231846D02*
X8440091Y-16288988D01*
X8440091Y-16288988D02*
X8430567Y-16308036D01*
X8430567Y-16308036D02*
X8421044Y-16317560D01*
X8421044Y-16317560D02*
X8401996Y-16327084D01*
X8401996Y-16327084D02*
X8363901Y-16327084D01*
X8363901Y-16327084D02*
X8344853Y-16317560D01*
X8525805Y-16308036D02*
X8535329Y-16317560D01*
X8535329Y-16317560D02*
X8525805Y-16327084D01*
X8525805Y-16327084D02*
X8516282Y-16317560D01*
X8516282Y-16317560D02*
X8525805Y-16308036D01*
X8525805Y-16308036D02*
X8525805Y-16327084D01*
X8525805Y-16203274D02*
X8535329Y-16212798D01*
X8535329Y-16212798D02*
X8525805Y-16222322D01*
X8525805Y-16222322D02*
X8516282Y-16212798D01*
X8516282Y-16212798D02*
X8525805Y-16203274D01*
X8525805Y-16203274D02*
X8525805Y-16222322D01*
D12*
X6813600Y-16615600D02*
X6893600Y-16695600D01*
X6893600Y-16615600D02*
X6813600Y-16695600D01*
D11*
X7192472Y-16547084D02*
X7211520Y-16547084D01*
X7211520Y-16547084D02*
X7230567Y-16556608D01*
X7230567Y-16556608D02*
X7240091Y-16566131D01*
X7240091Y-16566131D02*
X7249615Y-16585179D01*
X7249615Y-16585179D02*
X7259139Y-16623274D01*
X7259139Y-16623274D02*
X7259139Y-16670893D01*
X7259139Y-16670893D02*
X7249615Y-16708988D01*
X7249615Y-16708988D02*
X7240091Y-16728036D01*
X7240091Y-16728036D02*
X7230567Y-16737560D01*
X7230567Y-16737560D02*
X7211520Y-16747084D01*
X7211520Y-16747084D02*
X7192472Y-16747084D01*
X7192472Y-16747084D02*
X7173424Y-16737560D01*
X7173424Y-16737560D02*
X7163901Y-16728036D01*
X7163901Y-16728036D02*
X7154377Y-16708988D01*
X7154377Y-16708988D02*
X7144853Y-16670893D01*
X7144853Y-16670893D02*
X7144853Y-16623274D01*
X7144853Y-16623274D02*
X7154377Y-16585179D01*
X7154377Y-16585179D02*
X7163901Y-16566131D01*
X7163901Y-16566131D02*
X7173424Y-16556608D01*
X7173424Y-16556608D02*
X7192472Y-16547084D01*
X7344853Y-16728036D02*
X7354377Y-16737560D01*
X7354377Y-16737560D02*
X7344853Y-16747084D01*
X7344853Y-16747084D02*
X7335329Y-16737560D01*
X7335329Y-16737560D02*
X7344853Y-16728036D01*
X7344853Y-16728036D02*
X7344853Y-16747084D01*
X7468662Y-16632798D02*
X7449615Y-16623274D01*
X7449615Y-16623274D02*
X7440091Y-16613750D01*
X7440091Y-16613750D02*
X7430567Y-16594703D01*
X7430567Y-16594703D02*
X7430567Y-16585179D01*
X7430567Y-16585179D02*
X7440091Y-16566131D01*
X7440091Y-16566131D02*
X7449615Y-16556608D01*
X7449615Y-16556608D02*
X7468662Y-16547084D01*
X7468662Y-16547084D02*
X7506758Y-16547084D01*
X7506758Y-16547084D02*
X7525805Y-16556608D01*
X7525805Y-16556608D02*
X7535329Y-16566131D01*
X7535329Y-16566131D02*
X7544853Y-16585179D01*
X7544853Y-16585179D02*
X7544853Y-16594703D01*
X7544853Y-16594703D02*
X7535329Y-16613750D01*
X7535329Y-16613750D02*
X7525805Y-16623274D01*
X7525805Y-16623274D02*
X7506758Y-16632798D01*
X7506758Y-16632798D02*
X7468662Y-16632798D01*
X7468662Y-16632798D02*
X7449615Y-16642322D01*
X7449615Y-16642322D02*
X7440091Y-16651846D01*
X7440091Y-16651846D02*
X7430567Y-16670893D01*
X7430567Y-16670893D02*
X7430567Y-16708988D01*
X7430567Y-16708988D02*
X7440091Y-16728036D01*
X7440091Y-16728036D02*
X7449615Y-16737560D01*
X7449615Y-16737560D02*
X7468662Y-16747084D01*
X7468662Y-16747084D02*
X7506758Y-16747084D01*
X7506758Y-16747084D02*
X7525805Y-16737560D01*
X7525805Y-16737560D02*
X7535329Y-16728036D01*
X7535329Y-16728036D02*
X7544853Y-16708988D01*
X7544853Y-16708988D02*
X7544853Y-16670893D01*
X7544853Y-16670893D02*
X7535329Y-16651846D01*
X7535329Y-16651846D02*
X7525805Y-16642322D01*
X7525805Y-16642322D02*
X7506758Y-16632798D01*
X7668662Y-16547084D02*
X7687710Y-16547084D01*
X7687710Y-16547084D02*
X7706758Y-16556608D01*
X7706758Y-16556608D02*
X7716282Y-16566131D01*
X7716282Y-16566131D02*
X7725805Y-16585179D01*
X7725805Y-16585179D02*
X7735329Y-16623274D01*
X7735329Y-16623274D02*
X7735329Y-16670893D01*
X7735329Y-16670893D02*
X7725805Y-16708988D01*
X7725805Y-16708988D02*
X7716282Y-16728036D01*
X7716282Y-16728036D02*
X7706758Y-16737560D01*
X7706758Y-16737560D02*
X7687710Y-16747084D01*
X7687710Y-16747084D02*
X7668662Y-16747084D01*
X7668662Y-16747084D02*
X7649615Y-16737560D01*
X7649615Y-16737560D02*
X7640091Y-16728036D01*
X7640091Y-16728036D02*
X7630567Y-16708988D01*
X7630567Y-16708988D02*
X7621043Y-16670893D01*
X7621043Y-16670893D02*
X7621043Y-16623274D01*
X7621043Y-16623274D02*
X7630567Y-16585179D01*
X7630567Y-16585179D02*
X7640091Y-16566131D01*
X7640091Y-16566131D02*
X7649615Y-16556608D01*
X7649615Y-16556608D02*
X7668662Y-16547084D01*
X7859139Y-16547084D02*
X7878186Y-16547084D01*
X7878186Y-16547084D02*
X7897234Y-16556608D01*
X7897234Y-16556608D02*
X7906758Y-16566131D01*
X7906758Y-16566131D02*
X7916282Y-16585179D01*
X7916282Y-16585179D02*
X7925805Y-16623274D01*
X7925805Y-16623274D02*
X7925805Y-16670893D01*
X7925805Y-16670893D02*
X7916282Y-16708988D01*
X7916282Y-16708988D02*
X7906758Y-16728036D01*
X7906758Y-16728036D02*
X7897234Y-16737560D01*
X7897234Y-16737560D02*
X7878186Y-16747084D01*
X7878186Y-16747084D02*
X7859139Y-16747084D01*
X7859139Y-16747084D02*
X7840091Y-16737560D01*
X7840091Y-16737560D02*
X7830567Y-16728036D01*
X7830567Y-16728036D02*
X7821043Y-16708988D01*
X7821043Y-16708988D02*
X7811520Y-16670893D01*
X7811520Y-16670893D02*
X7811520Y-16623274D01*
X7811520Y-16623274D02*
X7821043Y-16585179D01*
X7821043Y-16585179D02*
X7830567Y-16566131D01*
X7830567Y-16566131D02*
X7840091Y-16556608D01*
X7840091Y-16556608D02*
X7859139Y-16547084D01*
X8011520Y-16747084D02*
X8011520Y-16613750D01*
X8011520Y-16632798D02*
X8021043Y-16623274D01*
X8021043Y-16623274D02*
X8040091Y-16613750D01*
X8040091Y-16613750D02*
X8068663Y-16613750D01*
X8068663Y-16613750D02*
X8087710Y-16623274D01*
X8087710Y-16623274D02*
X8097234Y-16642322D01*
X8097234Y-16642322D02*
X8097234Y-16747084D01*
X8097234Y-16642322D02*
X8106758Y-16623274D01*
X8106758Y-16623274D02*
X8125805Y-16613750D01*
X8125805Y-16613750D02*
X8154377Y-16613750D01*
X8154377Y-16613750D02*
X8173424Y-16623274D01*
X8173424Y-16623274D02*
X8182948Y-16642322D01*
X8182948Y-16642322D02*
X8182948Y-16747084D01*
X8278186Y-16747084D02*
X8278186Y-16613750D01*
X8278186Y-16632798D02*
X8287710Y-16623274D01*
X8287710Y-16623274D02*
X8306758Y-16613750D01*
X8306758Y-16613750D02*
X8335329Y-16613750D01*
X8335329Y-16613750D02*
X8354377Y-16623274D01*
X8354377Y-16623274D02*
X8363901Y-16642322D01*
X8363901Y-16642322D02*
X8363901Y-16747084D01*
X8363901Y-16642322D02*
X8373424Y-16623274D01*
X8373424Y-16623274D02*
X8392472Y-16613750D01*
X8392472Y-16613750D02*
X8421044Y-16613750D01*
X8421044Y-16613750D02*
X8440091Y-16623274D01*
X8440091Y-16623274D02*
X8449615Y-16642322D01*
X8449615Y-16642322D02*
X8449615Y-16747084D01*
X8840091Y-16537560D02*
X8668663Y-16794703D01*
X9097234Y-16547084D02*
X9116282Y-16547084D01*
X9116282Y-16547084D02*
X9135329Y-16556608D01*
X9135329Y-16556608D02*
X9144853Y-16566131D01*
X9144853Y-16566131D02*
X9154377Y-16585179D01*
X9154377Y-16585179D02*
X9163901Y-16623274D01*
X9163901Y-16623274D02*
X9163901Y-16670893D01*
X9163901Y-16670893D02*
X9154377Y-16708988D01*
X9154377Y-16708988D02*
X9144853Y-16728036D01*
X9144853Y-16728036D02*
X9135329Y-16737560D01*
X9135329Y-16737560D02*
X9116282Y-16747084D01*
X9116282Y-16747084D02*
X9097234Y-16747084D01*
X9097234Y-16747084D02*
X9078187Y-16737560D01*
X9078187Y-16737560D02*
X9068663Y-16728036D01*
X9068663Y-16728036D02*
X9059139Y-16708988D01*
X9059139Y-16708988D02*
X9049615Y-16670893D01*
X9049615Y-16670893D02*
X9049615Y-16623274D01*
X9049615Y-16623274D02*
X9059139Y-16585179D01*
X9059139Y-16585179D02*
X9068663Y-16566131D01*
X9068663Y-16566131D02*
X9078187Y-16556608D01*
X9078187Y-16556608D02*
X9097234Y-16547084D01*
X9249615Y-16728036D02*
X9259139Y-16737560D01*
X9259139Y-16737560D02*
X9249615Y-16747084D01*
X9249615Y-16747084D02*
X9240091Y-16737560D01*
X9240091Y-16737560D02*
X9249615Y-16728036D01*
X9249615Y-16728036D02*
X9249615Y-16747084D01*
X9382948Y-16547084D02*
X9401996Y-16547084D01*
X9401996Y-16547084D02*
X9421044Y-16556608D01*
X9421044Y-16556608D02*
X9430568Y-16566131D01*
X9430568Y-16566131D02*
X9440091Y-16585179D01*
X9440091Y-16585179D02*
X9449615Y-16623274D01*
X9449615Y-16623274D02*
X9449615Y-16670893D01*
X9449615Y-16670893D02*
X9440091Y-16708988D01*
X9440091Y-16708988D02*
X9430568Y-16728036D01*
X9430568Y-16728036D02*
X9421044Y-16737560D01*
X9421044Y-16737560D02*
X9401996Y-16747084D01*
X9401996Y-16747084D02*
X9382948Y-16747084D01*
X9382948Y-16747084D02*
X9363901Y-16737560D01*
X9363901Y-16737560D02*
X9354377Y-16728036D01*
X9354377Y-16728036D02*
X9344853Y-16708988D01*
X9344853Y-16708988D02*
X9335329Y-16670893D01*
X9335329Y-16670893D02*
X9335329Y-16623274D01*
X9335329Y-16623274D02*
X9344853Y-16585179D01*
X9344853Y-16585179D02*
X9354377Y-16566131D01*
X9354377Y-16566131D02*
X9363901Y-16556608D01*
X9363901Y-16556608D02*
X9382948Y-16547084D01*
X9516282Y-16547084D02*
X9640091Y-16547084D01*
X9640091Y-16547084D02*
X9573425Y-16623274D01*
X9573425Y-16623274D02*
X9601996Y-16623274D01*
X9601996Y-16623274D02*
X9621044Y-16632798D01*
X9621044Y-16632798D02*
X9630568Y-16642322D01*
X9630568Y-16642322D02*
X9640091Y-16661369D01*
X9640091Y-16661369D02*
X9640091Y-16708988D01*
X9640091Y-16708988D02*
X9630568Y-16728036D01*
X9630568Y-16728036D02*
X9621044Y-16737560D01*
X9621044Y-16737560D02*
X9601996Y-16747084D01*
X9601996Y-16747084D02*
X9544853Y-16747084D01*
X9544853Y-16747084D02*
X9525806Y-16737560D01*
X9525806Y-16737560D02*
X9516282Y-16728036D01*
X9830568Y-16747084D02*
X9716282Y-16747084D01*
X9773425Y-16747084D02*
X9773425Y-16547084D01*
X9773425Y-16547084D02*
X9754377Y-16575655D01*
X9754377Y-16575655D02*
X9735329Y-16594703D01*
X9735329Y-16594703D02*
X9716282Y-16604227D01*
X10011520Y-16547084D02*
X9916282Y-16547084D01*
X9916282Y-16547084D02*
X9906758Y-16642322D01*
X9906758Y-16642322D02*
X9916282Y-16632798D01*
X9916282Y-16632798D02*
X9935329Y-16623274D01*
X9935329Y-16623274D02*
X9982949Y-16623274D01*
X9982949Y-16623274D02*
X10001996Y-16632798D01*
X10001996Y-16632798D02*
X10011520Y-16642322D01*
X10011520Y-16642322D02*
X10021044Y-16661369D01*
X10021044Y-16661369D02*
X10021044Y-16708988D01*
X10021044Y-16708988D02*
X10011520Y-16728036D01*
X10011520Y-16728036D02*
X10001996Y-16737560D01*
X10001996Y-16737560D02*
X9982949Y-16747084D01*
X9982949Y-16747084D02*
X9935329Y-16747084D01*
X9935329Y-16747084D02*
X9916282Y-16737560D01*
X9916282Y-16737560D02*
X9906758Y-16728036D01*
X10097234Y-16547084D02*
X10097234Y-16585179D01*
X10173425Y-16547084D02*
X10173425Y-16585179D01*
X10468663Y-16823274D02*
X10459139Y-16813750D01*
X10459139Y-16813750D02*
X10440091Y-16785179D01*
X10440091Y-16785179D02*
X10430568Y-16766131D01*
X10430568Y-16766131D02*
X10421044Y-16737560D01*
X10421044Y-16737560D02*
X10411520Y-16689941D01*
X10411520Y-16689941D02*
X10411520Y-16651846D01*
X10411520Y-16651846D02*
X10421044Y-16604227D01*
X10421044Y-16604227D02*
X10430568Y-16575655D01*
X10430568Y-16575655D02*
X10440091Y-16556608D01*
X10440091Y-16556608D02*
X10459139Y-16528036D01*
X10459139Y-16528036D02*
X10468663Y-16518512D01*
X10554377Y-16747084D02*
X10592472Y-16747084D01*
X10592472Y-16747084D02*
X10611520Y-16737560D01*
X10611520Y-16737560D02*
X10621044Y-16728036D01*
X10621044Y-16728036D02*
X10640091Y-16699465D01*
X10640091Y-16699465D02*
X10649615Y-16661369D01*
X10649615Y-16661369D02*
X10649615Y-16585179D01*
X10649615Y-16585179D02*
X10640091Y-16566131D01*
X10640091Y-16566131D02*
X10630568Y-16556608D01*
X10630568Y-16556608D02*
X10611520Y-16547084D01*
X10611520Y-16547084D02*
X10573425Y-16547084D01*
X10573425Y-16547084D02*
X10554377Y-16556608D01*
X10554377Y-16556608D02*
X10544853Y-16566131D01*
X10544853Y-16566131D02*
X10535330Y-16585179D01*
X10535330Y-16585179D02*
X10535330Y-16632798D01*
X10535330Y-16632798D02*
X10544853Y-16651846D01*
X10544853Y-16651846D02*
X10554377Y-16661369D01*
X10554377Y-16661369D02*
X10573425Y-16670893D01*
X10573425Y-16670893D02*
X10611520Y-16670893D01*
X10611520Y-16670893D02*
X10630568Y-16661369D01*
X10630568Y-16661369D02*
X10640091Y-16651846D01*
X10640091Y-16651846D02*
X10649615Y-16632798D01*
X10773425Y-16547084D02*
X10792472Y-16547084D01*
X10792472Y-16547084D02*
X10811520Y-16556608D01*
X10811520Y-16556608D02*
X10821044Y-16566131D01*
X10821044Y-16566131D02*
X10830568Y-16585179D01*
X10830568Y-16585179D02*
X10840091Y-16623274D01*
X10840091Y-16623274D02*
X10840091Y-16670893D01*
X10840091Y-16670893D02*
X10830568Y-16708988D01*
X10830568Y-16708988D02*
X10821044Y-16728036D01*
X10821044Y-16728036D02*
X10811520Y-16737560D01*
X10811520Y-16737560D02*
X10792472Y-16747084D01*
X10792472Y-16747084D02*
X10773425Y-16747084D01*
X10773425Y-16747084D02*
X10754377Y-16737560D01*
X10754377Y-16737560D02*
X10744853Y-16728036D01*
X10744853Y-16728036D02*
X10735330Y-16708988D01*
X10735330Y-16708988D02*
X10725806Y-16670893D01*
X10725806Y-16670893D02*
X10725806Y-16623274D01*
X10725806Y-16623274D02*
X10735330Y-16585179D01*
X10735330Y-16585179D02*
X10744853Y-16566131D01*
X10744853Y-16566131D02*
X10754377Y-16556608D01*
X10754377Y-16556608D02*
X10773425Y-16547084D01*
X11078187Y-16747084D02*
X11078187Y-16547084D01*
X11163901Y-16747084D02*
X11163901Y-16642322D01*
X11163901Y-16642322D02*
X11154377Y-16623274D01*
X11154377Y-16623274D02*
X11135330Y-16613750D01*
X11135330Y-16613750D02*
X11106758Y-16613750D01*
X11106758Y-16613750D02*
X11087711Y-16623274D01*
X11087711Y-16623274D02*
X11078187Y-16632798D01*
X11287710Y-16747084D02*
X11268663Y-16737560D01*
X11268663Y-16737560D02*
X11259139Y-16728036D01*
X11259139Y-16728036D02*
X11249615Y-16708988D01*
X11249615Y-16708988D02*
X11249615Y-16651846D01*
X11249615Y-16651846D02*
X11259139Y-16632798D01*
X11259139Y-16632798D02*
X11268663Y-16623274D01*
X11268663Y-16623274D02*
X11287710Y-16613750D01*
X11287710Y-16613750D02*
X11316282Y-16613750D01*
X11316282Y-16613750D02*
X11335330Y-16623274D01*
X11335330Y-16623274D02*
X11344853Y-16632798D01*
X11344853Y-16632798D02*
X11354377Y-16651846D01*
X11354377Y-16651846D02*
X11354377Y-16708988D01*
X11354377Y-16708988D02*
X11344853Y-16728036D01*
X11344853Y-16728036D02*
X11335330Y-16737560D01*
X11335330Y-16737560D02*
X11316282Y-16747084D01*
X11316282Y-16747084D02*
X11287710Y-16747084D01*
X11468663Y-16747084D02*
X11449615Y-16737560D01*
X11449615Y-16737560D02*
X11440091Y-16718512D01*
X11440091Y-16718512D02*
X11440091Y-16547084D01*
X11621044Y-16737560D02*
X11601996Y-16747084D01*
X11601996Y-16747084D02*
X11563901Y-16747084D01*
X11563901Y-16747084D02*
X11544853Y-16737560D01*
X11544853Y-16737560D02*
X11535330Y-16718512D01*
X11535330Y-16718512D02*
X11535330Y-16642322D01*
X11535330Y-16642322D02*
X11544853Y-16623274D01*
X11544853Y-16623274D02*
X11563901Y-16613750D01*
X11563901Y-16613750D02*
X11601996Y-16613750D01*
X11601996Y-16613750D02*
X11621044Y-16623274D01*
X11621044Y-16623274D02*
X11630568Y-16642322D01*
X11630568Y-16642322D02*
X11630568Y-16661369D01*
X11630568Y-16661369D02*
X11535330Y-16680417D01*
X11706758Y-16737560D02*
X11725806Y-16747084D01*
X11725806Y-16747084D02*
X11763901Y-16747084D01*
X11763901Y-16747084D02*
X11782949Y-16737560D01*
X11782949Y-16737560D02*
X11792472Y-16718512D01*
X11792472Y-16718512D02*
X11792472Y-16708988D01*
X11792472Y-16708988D02*
X11782949Y-16689941D01*
X11782949Y-16689941D02*
X11763901Y-16680417D01*
X11763901Y-16680417D02*
X11735330Y-16680417D01*
X11735330Y-16680417D02*
X11716282Y-16670893D01*
X11716282Y-16670893D02*
X11706758Y-16651846D01*
X11706758Y-16651846D02*
X11706758Y-16642322D01*
X11706758Y-16642322D02*
X11716282Y-16623274D01*
X11716282Y-16623274D02*
X11735330Y-16613750D01*
X11735330Y-16613750D02*
X11763901Y-16613750D01*
X11763901Y-16613750D02*
X11782949Y-16623274D01*
X11859139Y-16823274D02*
X11868663Y-16813750D01*
X11868663Y-16813750D02*
X11887711Y-16785179D01*
X11887711Y-16785179D02*
X11897234Y-16766131D01*
X11897234Y-16766131D02*
X11906758Y-16737560D01*
X11906758Y-16737560D02*
X11916282Y-16689941D01*
X11916282Y-16689941D02*
X11916282Y-16651846D01*
X11916282Y-16651846D02*
X11906758Y-16604227D01*
X11906758Y-16604227D02*
X11897234Y-16575655D01*
X11897234Y-16575655D02*
X11887711Y-16556608D01*
X11887711Y-16556608D02*
X11868663Y-16528036D01*
X11868663Y-16528036D02*
X11859139Y-16518512D01*
D12*
X6893600Y-16919600D02*
G75*
G02*
X6793600Y-16919600I-50000J0D01*
G01*
X6793600Y-16919600D02*
G75*
G02*
X6893600Y-16919600I50000J0D01*
G01*
D11*
X7259139Y-17011084D02*
X7144853Y-17011084D01*
X7201996Y-17011084D02*
X7201996Y-16811084D01*
X7201996Y-16811084D02*
X7182948Y-16839655D01*
X7182948Y-16839655D02*
X7163901Y-16858703D01*
X7163901Y-16858703D02*
X7144853Y-16868227D01*
X7344853Y-16992036D02*
X7354377Y-17001560D01*
X7354377Y-17001560D02*
X7344853Y-17011084D01*
X7344853Y-17011084D02*
X7335329Y-17001560D01*
X7335329Y-17001560D02*
X7344853Y-16992036D01*
X7344853Y-16992036D02*
X7344853Y-17011084D01*
X7478186Y-16811084D02*
X7497234Y-16811084D01*
X7497234Y-16811084D02*
X7516282Y-16820608D01*
X7516282Y-16820608D02*
X7525805Y-16830131D01*
X7525805Y-16830131D02*
X7535329Y-16849179D01*
X7535329Y-16849179D02*
X7544853Y-16887274D01*
X7544853Y-16887274D02*
X7544853Y-16934893D01*
X7544853Y-16934893D02*
X7535329Y-16972989D01*
X7535329Y-16972989D02*
X7525805Y-16992036D01*
X7525805Y-16992036D02*
X7516282Y-17001560D01*
X7516282Y-17001560D02*
X7497234Y-17011084D01*
X7497234Y-17011084D02*
X7478186Y-17011084D01*
X7478186Y-17011084D02*
X7459139Y-17001560D01*
X7459139Y-17001560D02*
X7449615Y-16992036D01*
X7449615Y-16992036D02*
X7440091Y-16972989D01*
X7440091Y-16972989D02*
X7430567Y-16934893D01*
X7430567Y-16934893D02*
X7430567Y-16887274D01*
X7430567Y-16887274D02*
X7440091Y-16849179D01*
X7440091Y-16849179D02*
X7449615Y-16830131D01*
X7449615Y-16830131D02*
X7459139Y-16820608D01*
X7459139Y-16820608D02*
X7478186Y-16811084D01*
X7668662Y-16811084D02*
X7687710Y-16811084D01*
X7687710Y-16811084D02*
X7706758Y-16820608D01*
X7706758Y-16820608D02*
X7716282Y-16830131D01*
X7716282Y-16830131D02*
X7725805Y-16849179D01*
X7725805Y-16849179D02*
X7735329Y-16887274D01*
X7735329Y-16887274D02*
X7735329Y-16934893D01*
X7735329Y-16934893D02*
X7725805Y-16972989D01*
X7725805Y-16972989D02*
X7716282Y-16992036D01*
X7716282Y-16992036D02*
X7706758Y-17001560D01*
X7706758Y-17001560D02*
X7687710Y-17011084D01*
X7687710Y-17011084D02*
X7668662Y-17011084D01*
X7668662Y-17011084D02*
X7649615Y-17001560D01*
X7649615Y-17001560D02*
X7640091Y-16992036D01*
X7640091Y-16992036D02*
X7630567Y-16972989D01*
X7630567Y-16972989D02*
X7621043Y-16934893D01*
X7621043Y-16934893D02*
X7621043Y-16887274D01*
X7621043Y-16887274D02*
X7630567Y-16849179D01*
X7630567Y-16849179D02*
X7640091Y-16830131D01*
X7640091Y-16830131D02*
X7649615Y-16820608D01*
X7649615Y-16820608D02*
X7668662Y-16811084D01*
X7859139Y-16811084D02*
X7878186Y-16811084D01*
X7878186Y-16811084D02*
X7897234Y-16820608D01*
X7897234Y-16820608D02*
X7906758Y-16830131D01*
X7906758Y-16830131D02*
X7916282Y-16849179D01*
X7916282Y-16849179D02*
X7925805Y-16887274D01*
X7925805Y-16887274D02*
X7925805Y-16934893D01*
X7925805Y-16934893D02*
X7916282Y-16972989D01*
X7916282Y-16972989D02*
X7906758Y-16992036D01*
X7906758Y-16992036D02*
X7897234Y-17001560D01*
X7897234Y-17001560D02*
X7878186Y-17011084D01*
X7878186Y-17011084D02*
X7859139Y-17011084D01*
X7859139Y-17011084D02*
X7840091Y-17001560D01*
X7840091Y-17001560D02*
X7830567Y-16992036D01*
X7830567Y-16992036D02*
X7821043Y-16972989D01*
X7821043Y-16972989D02*
X7811520Y-16934893D01*
X7811520Y-16934893D02*
X7811520Y-16887274D01*
X7811520Y-16887274D02*
X7821043Y-16849179D01*
X7821043Y-16849179D02*
X7830567Y-16830131D01*
X7830567Y-16830131D02*
X7840091Y-16820608D01*
X7840091Y-16820608D02*
X7859139Y-16811084D01*
X8011520Y-17011084D02*
X8011520Y-16877750D01*
X8011520Y-16896798D02*
X8021043Y-16887274D01*
X8021043Y-16887274D02*
X8040091Y-16877750D01*
X8040091Y-16877750D02*
X8068663Y-16877750D01*
X8068663Y-16877750D02*
X8087710Y-16887274D01*
X8087710Y-16887274D02*
X8097234Y-16906322D01*
X8097234Y-16906322D02*
X8097234Y-17011084D01*
X8097234Y-16906322D02*
X8106758Y-16887274D01*
X8106758Y-16887274D02*
X8125805Y-16877750D01*
X8125805Y-16877750D02*
X8154377Y-16877750D01*
X8154377Y-16877750D02*
X8173424Y-16887274D01*
X8173424Y-16887274D02*
X8182948Y-16906322D01*
X8182948Y-16906322D02*
X8182948Y-17011084D01*
X8278186Y-17011084D02*
X8278186Y-16877750D01*
X8278186Y-16896798D02*
X8287710Y-16887274D01*
X8287710Y-16887274D02*
X8306758Y-16877750D01*
X8306758Y-16877750D02*
X8335329Y-16877750D01*
X8335329Y-16877750D02*
X8354377Y-16887274D01*
X8354377Y-16887274D02*
X8363901Y-16906322D01*
X8363901Y-16906322D02*
X8363901Y-17011084D01*
X8363901Y-16906322D02*
X8373424Y-16887274D01*
X8373424Y-16887274D02*
X8392472Y-16877750D01*
X8392472Y-16877750D02*
X8421044Y-16877750D01*
X8421044Y-16877750D02*
X8440091Y-16887274D01*
X8440091Y-16887274D02*
X8449615Y-16906322D01*
X8449615Y-16906322D02*
X8449615Y-17011084D01*
X8840091Y-16801560D02*
X8668663Y-17058703D01*
X9097234Y-16811084D02*
X9116282Y-16811084D01*
X9116282Y-16811084D02*
X9135329Y-16820608D01*
X9135329Y-16820608D02*
X9144853Y-16830131D01*
X9144853Y-16830131D02*
X9154377Y-16849179D01*
X9154377Y-16849179D02*
X9163901Y-16887274D01*
X9163901Y-16887274D02*
X9163901Y-16934893D01*
X9163901Y-16934893D02*
X9154377Y-16972989D01*
X9154377Y-16972989D02*
X9144853Y-16992036D01*
X9144853Y-16992036D02*
X9135329Y-17001560D01*
X9135329Y-17001560D02*
X9116282Y-17011084D01*
X9116282Y-17011084D02*
X9097234Y-17011084D01*
X9097234Y-17011084D02*
X9078187Y-17001560D01*
X9078187Y-17001560D02*
X9068663Y-16992036D01*
X9068663Y-16992036D02*
X9059139Y-16972989D01*
X9059139Y-16972989D02*
X9049615Y-16934893D01*
X9049615Y-16934893D02*
X9049615Y-16887274D01*
X9049615Y-16887274D02*
X9059139Y-16849179D01*
X9059139Y-16849179D02*
X9068663Y-16830131D01*
X9068663Y-16830131D02*
X9078187Y-16820608D01*
X9078187Y-16820608D02*
X9097234Y-16811084D01*
X9249615Y-16992036D02*
X9259139Y-17001560D01*
X9259139Y-17001560D02*
X9249615Y-17011084D01*
X9249615Y-17011084D02*
X9240091Y-17001560D01*
X9240091Y-17001560D02*
X9249615Y-16992036D01*
X9249615Y-16992036D02*
X9249615Y-17011084D01*
X9382948Y-16811084D02*
X9401996Y-16811084D01*
X9401996Y-16811084D02*
X9421044Y-16820608D01*
X9421044Y-16820608D02*
X9430568Y-16830131D01*
X9430568Y-16830131D02*
X9440091Y-16849179D01*
X9440091Y-16849179D02*
X9449615Y-16887274D01*
X9449615Y-16887274D02*
X9449615Y-16934893D01*
X9449615Y-16934893D02*
X9440091Y-16972989D01*
X9440091Y-16972989D02*
X9430568Y-16992036D01*
X9430568Y-16992036D02*
X9421044Y-17001560D01*
X9421044Y-17001560D02*
X9401996Y-17011084D01*
X9401996Y-17011084D02*
X9382948Y-17011084D01*
X9382948Y-17011084D02*
X9363901Y-17001560D01*
X9363901Y-17001560D02*
X9354377Y-16992036D01*
X9354377Y-16992036D02*
X9344853Y-16972989D01*
X9344853Y-16972989D02*
X9335329Y-16934893D01*
X9335329Y-16934893D02*
X9335329Y-16887274D01*
X9335329Y-16887274D02*
X9344853Y-16849179D01*
X9344853Y-16849179D02*
X9354377Y-16830131D01*
X9354377Y-16830131D02*
X9363901Y-16820608D01*
X9363901Y-16820608D02*
X9382948Y-16811084D01*
X9516282Y-16811084D02*
X9640091Y-16811084D01*
X9640091Y-16811084D02*
X9573425Y-16887274D01*
X9573425Y-16887274D02*
X9601996Y-16887274D01*
X9601996Y-16887274D02*
X9621044Y-16896798D01*
X9621044Y-16896798D02*
X9630568Y-16906322D01*
X9630568Y-16906322D02*
X9640091Y-16925370D01*
X9640091Y-16925370D02*
X9640091Y-16972989D01*
X9640091Y-16972989D02*
X9630568Y-16992036D01*
X9630568Y-16992036D02*
X9621044Y-17001560D01*
X9621044Y-17001560D02*
X9601996Y-17011084D01*
X9601996Y-17011084D02*
X9544853Y-17011084D01*
X9544853Y-17011084D02*
X9525806Y-17001560D01*
X9525806Y-17001560D02*
X9516282Y-16992036D01*
X9735329Y-17011084D02*
X9773425Y-17011084D01*
X9773425Y-17011084D02*
X9792472Y-17001560D01*
X9792472Y-17001560D02*
X9801996Y-16992036D01*
X9801996Y-16992036D02*
X9821044Y-16963465D01*
X9821044Y-16963465D02*
X9830568Y-16925370D01*
X9830568Y-16925370D02*
X9830568Y-16849179D01*
X9830568Y-16849179D02*
X9821044Y-16830131D01*
X9821044Y-16830131D02*
X9811520Y-16820608D01*
X9811520Y-16820608D02*
X9792472Y-16811084D01*
X9792472Y-16811084D02*
X9754377Y-16811084D01*
X9754377Y-16811084D02*
X9735329Y-16820608D01*
X9735329Y-16820608D02*
X9725806Y-16830131D01*
X9725806Y-16830131D02*
X9716282Y-16849179D01*
X9716282Y-16849179D02*
X9716282Y-16896798D01*
X9716282Y-16896798D02*
X9725806Y-16915846D01*
X9725806Y-16915846D02*
X9735329Y-16925370D01*
X9735329Y-16925370D02*
X9754377Y-16934893D01*
X9754377Y-16934893D02*
X9792472Y-16934893D01*
X9792472Y-16934893D02*
X9811520Y-16925370D01*
X9811520Y-16925370D02*
X9821044Y-16915846D01*
X9821044Y-16915846D02*
X9830568Y-16896798D01*
X10001996Y-16877750D02*
X10001996Y-17011084D01*
X9954377Y-16801560D02*
X9906758Y-16944417D01*
X9906758Y-16944417D02*
X10030568Y-16944417D01*
X10097234Y-16811084D02*
X10097234Y-16849179D01*
X10173425Y-16811084D02*
X10173425Y-16849179D01*
X10468663Y-17087274D02*
X10459139Y-17077750D01*
X10459139Y-17077750D02*
X10440091Y-17049179D01*
X10440091Y-17049179D02*
X10430568Y-17030131D01*
X10430568Y-17030131D02*
X10421044Y-17001560D01*
X10421044Y-17001560D02*
X10411520Y-16953941D01*
X10411520Y-16953941D02*
X10411520Y-16915846D01*
X10411520Y-16915846D02*
X10421044Y-16868227D01*
X10421044Y-16868227D02*
X10430568Y-16839655D01*
X10430568Y-16839655D02*
X10440091Y-16820608D01*
X10440091Y-16820608D02*
X10459139Y-16792036D01*
X10459139Y-16792036D02*
X10468663Y-16782512D01*
X10525806Y-16811084D02*
X10649615Y-16811084D01*
X10649615Y-16811084D02*
X10582949Y-16887274D01*
X10582949Y-16887274D02*
X10611520Y-16887274D01*
X10611520Y-16887274D02*
X10630568Y-16896798D01*
X10630568Y-16896798D02*
X10640091Y-16906322D01*
X10640091Y-16906322D02*
X10649615Y-16925370D01*
X10649615Y-16925370D02*
X10649615Y-16972989D01*
X10649615Y-16972989D02*
X10640091Y-16992036D01*
X10640091Y-16992036D02*
X10630568Y-17001560D01*
X10630568Y-17001560D02*
X10611520Y-17011084D01*
X10611520Y-17011084D02*
X10554377Y-17011084D01*
X10554377Y-17011084D02*
X10535330Y-17001560D01*
X10535330Y-17001560D02*
X10525806Y-16992036D01*
X10773425Y-16811084D02*
X10792472Y-16811084D01*
X10792472Y-16811084D02*
X10811520Y-16820608D01*
X10811520Y-16820608D02*
X10821044Y-16830131D01*
X10821044Y-16830131D02*
X10830568Y-16849179D01*
X10830568Y-16849179D02*
X10840091Y-16887274D01*
X10840091Y-16887274D02*
X10840091Y-16934893D01*
X10840091Y-16934893D02*
X10830568Y-16972989D01*
X10830568Y-16972989D02*
X10821044Y-16992036D01*
X10821044Y-16992036D02*
X10811520Y-17001560D01*
X10811520Y-17001560D02*
X10792472Y-17011084D01*
X10792472Y-17011084D02*
X10773425Y-17011084D01*
X10773425Y-17011084D02*
X10754377Y-17001560D01*
X10754377Y-17001560D02*
X10744853Y-16992036D01*
X10744853Y-16992036D02*
X10735330Y-16972989D01*
X10735330Y-16972989D02*
X10725806Y-16934893D01*
X10725806Y-16934893D02*
X10725806Y-16887274D01*
X10725806Y-16887274D02*
X10735330Y-16849179D01*
X10735330Y-16849179D02*
X10744853Y-16830131D01*
X10744853Y-16830131D02*
X10754377Y-16820608D01*
X10754377Y-16820608D02*
X10773425Y-16811084D01*
X11078187Y-17011084D02*
X11078187Y-16811084D01*
X11163901Y-17011084D02*
X11163901Y-16906322D01*
X11163901Y-16906322D02*
X11154377Y-16887274D01*
X11154377Y-16887274D02*
X11135330Y-16877750D01*
X11135330Y-16877750D02*
X11106758Y-16877750D01*
X11106758Y-16877750D02*
X11087711Y-16887274D01*
X11087711Y-16887274D02*
X11078187Y-16896798D01*
X11287710Y-17011084D02*
X11268663Y-17001560D01*
X11268663Y-17001560D02*
X11259139Y-16992036D01*
X11259139Y-16992036D02*
X11249615Y-16972989D01*
X11249615Y-16972989D02*
X11249615Y-16915846D01*
X11249615Y-16915846D02*
X11259139Y-16896798D01*
X11259139Y-16896798D02*
X11268663Y-16887274D01*
X11268663Y-16887274D02*
X11287710Y-16877750D01*
X11287710Y-16877750D02*
X11316282Y-16877750D01*
X11316282Y-16877750D02*
X11335330Y-16887274D01*
X11335330Y-16887274D02*
X11344853Y-16896798D01*
X11344853Y-16896798D02*
X11354377Y-16915846D01*
X11354377Y-16915846D02*
X11354377Y-16972989D01*
X11354377Y-16972989D02*
X11344853Y-16992036D01*
X11344853Y-16992036D02*
X11335330Y-17001560D01*
X11335330Y-17001560D02*
X11316282Y-17011084D01*
X11316282Y-17011084D02*
X11287710Y-17011084D01*
X11468663Y-17011084D02*
X11449615Y-17001560D01*
X11449615Y-17001560D02*
X11440091Y-16982512D01*
X11440091Y-16982512D02*
X11440091Y-16811084D01*
X11621044Y-17001560D02*
X11601996Y-17011084D01*
X11601996Y-17011084D02*
X11563901Y-17011084D01*
X11563901Y-17011084D02*
X11544853Y-17001560D01*
X11544853Y-17001560D02*
X11535330Y-16982512D01*
X11535330Y-16982512D02*
X11535330Y-16906322D01*
X11535330Y-16906322D02*
X11544853Y-16887274D01*
X11544853Y-16887274D02*
X11563901Y-16877750D01*
X11563901Y-16877750D02*
X11601996Y-16877750D01*
X11601996Y-16877750D02*
X11621044Y-16887274D01*
X11621044Y-16887274D02*
X11630568Y-16906322D01*
X11630568Y-16906322D02*
X11630568Y-16925370D01*
X11630568Y-16925370D02*
X11535330Y-16944417D01*
X11706758Y-17001560D02*
X11725806Y-17011084D01*
X11725806Y-17011084D02*
X11763901Y-17011084D01*
X11763901Y-17011084D02*
X11782949Y-17001560D01*
X11782949Y-17001560D02*
X11792472Y-16982512D01*
X11792472Y-16982512D02*
X11792472Y-16972989D01*
X11792472Y-16972989D02*
X11782949Y-16953941D01*
X11782949Y-16953941D02*
X11763901Y-16944417D01*
X11763901Y-16944417D02*
X11735330Y-16944417D01*
X11735330Y-16944417D02*
X11716282Y-16934893D01*
X11716282Y-16934893D02*
X11706758Y-16915846D01*
X11706758Y-16915846D02*
X11706758Y-16906322D01*
X11706758Y-16906322D02*
X11716282Y-16887274D01*
X11716282Y-16887274D02*
X11735330Y-16877750D01*
X11735330Y-16877750D02*
X11763901Y-16877750D01*
X11763901Y-16877750D02*
X11782949Y-16887274D01*
X11859139Y-17087274D02*
X11868663Y-17077750D01*
X11868663Y-17077750D02*
X11887711Y-17049179D01*
X11887711Y-17049179D02*
X11897234Y-17030131D01*
X11897234Y-17030131D02*
X11906758Y-17001560D01*
X11906758Y-17001560D02*
X11916282Y-16953941D01*
X11916282Y-16953941D02*
X11916282Y-16915846D01*
X11916282Y-16915846D02*
X11906758Y-16868227D01*
X11906758Y-16868227D02*
X11897234Y-16839655D01*
X11897234Y-16839655D02*
X11887711Y-16820608D01*
X11887711Y-16820608D02*
X11868663Y-16792036D01*
X11868663Y-16792036D02*
X11859139Y-16782512D01*
D12*
X6843600Y-17133600D02*
X6843600Y-17233600D01*
X6793600Y-17183600D02*
X6893600Y-17183600D01*
D11*
X7259139Y-17275084D02*
X7144853Y-17275084D01*
X7201996Y-17275084D02*
X7201996Y-17075084D01*
X7201996Y-17075084D02*
X7182948Y-17103655D01*
X7182948Y-17103655D02*
X7163901Y-17122703D01*
X7163901Y-17122703D02*
X7144853Y-17132227D01*
X7344853Y-17256036D02*
X7354377Y-17265560D01*
X7354377Y-17265560D02*
X7344853Y-17275084D01*
X7344853Y-17275084D02*
X7335329Y-17265560D01*
X7335329Y-17265560D02*
X7344853Y-17256036D01*
X7344853Y-17256036D02*
X7344853Y-17275084D01*
X7478186Y-17075084D02*
X7497234Y-17075084D01*
X7497234Y-17075084D02*
X7516282Y-17084608D01*
X7516282Y-17084608D02*
X7525805Y-17094131D01*
X7525805Y-17094131D02*
X7535329Y-17113179D01*
X7535329Y-17113179D02*
X7544853Y-17151274D01*
X7544853Y-17151274D02*
X7544853Y-17198893D01*
X7544853Y-17198893D02*
X7535329Y-17236989D01*
X7535329Y-17236989D02*
X7525805Y-17256036D01*
X7525805Y-17256036D02*
X7516282Y-17265560D01*
X7516282Y-17265560D02*
X7497234Y-17275084D01*
X7497234Y-17275084D02*
X7478186Y-17275084D01*
X7478186Y-17275084D02*
X7459139Y-17265560D01*
X7459139Y-17265560D02*
X7449615Y-17256036D01*
X7449615Y-17256036D02*
X7440091Y-17236989D01*
X7440091Y-17236989D02*
X7430567Y-17198893D01*
X7430567Y-17198893D02*
X7430567Y-17151274D01*
X7430567Y-17151274D02*
X7440091Y-17113179D01*
X7440091Y-17113179D02*
X7449615Y-17094131D01*
X7449615Y-17094131D02*
X7459139Y-17084608D01*
X7459139Y-17084608D02*
X7478186Y-17075084D01*
X7668662Y-17075084D02*
X7687710Y-17075084D01*
X7687710Y-17075084D02*
X7706758Y-17084608D01*
X7706758Y-17084608D02*
X7716282Y-17094131D01*
X7716282Y-17094131D02*
X7725805Y-17113179D01*
X7725805Y-17113179D02*
X7735329Y-17151274D01*
X7735329Y-17151274D02*
X7735329Y-17198893D01*
X7735329Y-17198893D02*
X7725805Y-17236989D01*
X7725805Y-17236989D02*
X7716282Y-17256036D01*
X7716282Y-17256036D02*
X7706758Y-17265560D01*
X7706758Y-17265560D02*
X7687710Y-17275084D01*
X7687710Y-17275084D02*
X7668662Y-17275084D01*
X7668662Y-17275084D02*
X7649615Y-17265560D01*
X7649615Y-17265560D02*
X7640091Y-17256036D01*
X7640091Y-17256036D02*
X7630567Y-17236989D01*
X7630567Y-17236989D02*
X7621043Y-17198893D01*
X7621043Y-17198893D02*
X7621043Y-17151274D01*
X7621043Y-17151274D02*
X7630567Y-17113179D01*
X7630567Y-17113179D02*
X7640091Y-17094131D01*
X7640091Y-17094131D02*
X7649615Y-17084608D01*
X7649615Y-17084608D02*
X7668662Y-17075084D01*
X7859139Y-17075084D02*
X7878186Y-17075084D01*
X7878186Y-17075084D02*
X7897234Y-17084608D01*
X7897234Y-17084608D02*
X7906758Y-17094131D01*
X7906758Y-17094131D02*
X7916282Y-17113179D01*
X7916282Y-17113179D02*
X7925805Y-17151274D01*
X7925805Y-17151274D02*
X7925805Y-17198893D01*
X7925805Y-17198893D02*
X7916282Y-17236989D01*
X7916282Y-17236989D02*
X7906758Y-17256036D01*
X7906758Y-17256036D02*
X7897234Y-17265560D01*
X7897234Y-17265560D02*
X7878186Y-17275084D01*
X7878186Y-17275084D02*
X7859139Y-17275084D01*
X7859139Y-17275084D02*
X7840091Y-17265560D01*
X7840091Y-17265560D02*
X7830567Y-17256036D01*
X7830567Y-17256036D02*
X7821043Y-17236989D01*
X7821043Y-17236989D02*
X7811520Y-17198893D01*
X7811520Y-17198893D02*
X7811520Y-17151274D01*
X7811520Y-17151274D02*
X7821043Y-17113179D01*
X7821043Y-17113179D02*
X7830567Y-17094131D01*
X7830567Y-17094131D02*
X7840091Y-17084608D01*
X7840091Y-17084608D02*
X7859139Y-17075084D01*
X8011520Y-17275084D02*
X8011520Y-17141750D01*
X8011520Y-17160798D02*
X8021043Y-17151274D01*
X8021043Y-17151274D02*
X8040091Y-17141750D01*
X8040091Y-17141750D02*
X8068663Y-17141750D01*
X8068663Y-17141750D02*
X8087710Y-17151274D01*
X8087710Y-17151274D02*
X8097234Y-17170322D01*
X8097234Y-17170322D02*
X8097234Y-17275084D01*
X8097234Y-17170322D02*
X8106758Y-17151274D01*
X8106758Y-17151274D02*
X8125805Y-17141750D01*
X8125805Y-17141750D02*
X8154377Y-17141750D01*
X8154377Y-17141750D02*
X8173424Y-17151274D01*
X8173424Y-17151274D02*
X8182948Y-17170322D01*
X8182948Y-17170322D02*
X8182948Y-17275084D01*
X8278186Y-17275084D02*
X8278186Y-17141750D01*
X8278186Y-17160798D02*
X8287710Y-17151274D01*
X8287710Y-17151274D02*
X8306758Y-17141750D01*
X8306758Y-17141750D02*
X8335329Y-17141750D01*
X8335329Y-17141750D02*
X8354377Y-17151274D01*
X8354377Y-17151274D02*
X8363901Y-17170322D01*
X8363901Y-17170322D02*
X8363901Y-17275084D01*
X8363901Y-17170322D02*
X8373424Y-17151274D01*
X8373424Y-17151274D02*
X8392472Y-17141750D01*
X8392472Y-17141750D02*
X8421044Y-17141750D01*
X8421044Y-17141750D02*
X8440091Y-17151274D01*
X8440091Y-17151274D02*
X8449615Y-17170322D01*
X8449615Y-17170322D02*
X8449615Y-17275084D01*
X8840091Y-17065560D02*
X8668663Y-17322703D01*
X9097234Y-17075084D02*
X9116282Y-17075084D01*
X9116282Y-17075084D02*
X9135329Y-17084608D01*
X9135329Y-17084608D02*
X9144853Y-17094131D01*
X9144853Y-17094131D02*
X9154377Y-17113179D01*
X9154377Y-17113179D02*
X9163901Y-17151274D01*
X9163901Y-17151274D02*
X9163901Y-17198893D01*
X9163901Y-17198893D02*
X9154377Y-17236989D01*
X9154377Y-17236989D02*
X9144853Y-17256036D01*
X9144853Y-17256036D02*
X9135329Y-17265560D01*
X9135329Y-17265560D02*
X9116282Y-17275084D01*
X9116282Y-17275084D02*
X9097234Y-17275084D01*
X9097234Y-17275084D02*
X9078187Y-17265560D01*
X9078187Y-17265560D02*
X9068663Y-17256036D01*
X9068663Y-17256036D02*
X9059139Y-17236989D01*
X9059139Y-17236989D02*
X9049615Y-17198893D01*
X9049615Y-17198893D02*
X9049615Y-17151274D01*
X9049615Y-17151274D02*
X9059139Y-17113179D01*
X9059139Y-17113179D02*
X9068663Y-17094131D01*
X9068663Y-17094131D02*
X9078187Y-17084608D01*
X9078187Y-17084608D02*
X9097234Y-17075084D01*
X9249615Y-17256036D02*
X9259139Y-17265560D01*
X9259139Y-17265560D02*
X9249615Y-17275084D01*
X9249615Y-17275084D02*
X9240091Y-17265560D01*
X9240091Y-17265560D02*
X9249615Y-17256036D01*
X9249615Y-17256036D02*
X9249615Y-17275084D01*
X9382948Y-17075084D02*
X9401996Y-17075084D01*
X9401996Y-17075084D02*
X9421044Y-17084608D01*
X9421044Y-17084608D02*
X9430568Y-17094131D01*
X9430568Y-17094131D02*
X9440091Y-17113179D01*
X9440091Y-17113179D02*
X9449615Y-17151274D01*
X9449615Y-17151274D02*
X9449615Y-17198893D01*
X9449615Y-17198893D02*
X9440091Y-17236989D01*
X9440091Y-17236989D02*
X9430568Y-17256036D01*
X9430568Y-17256036D02*
X9421044Y-17265560D01*
X9421044Y-17265560D02*
X9401996Y-17275084D01*
X9401996Y-17275084D02*
X9382948Y-17275084D01*
X9382948Y-17275084D02*
X9363901Y-17265560D01*
X9363901Y-17265560D02*
X9354377Y-17256036D01*
X9354377Y-17256036D02*
X9344853Y-17236989D01*
X9344853Y-17236989D02*
X9335329Y-17198893D01*
X9335329Y-17198893D02*
X9335329Y-17151274D01*
X9335329Y-17151274D02*
X9344853Y-17113179D01*
X9344853Y-17113179D02*
X9354377Y-17094131D01*
X9354377Y-17094131D02*
X9363901Y-17084608D01*
X9363901Y-17084608D02*
X9382948Y-17075084D01*
X9516282Y-17075084D02*
X9640091Y-17075084D01*
X9640091Y-17075084D02*
X9573425Y-17151274D01*
X9573425Y-17151274D02*
X9601996Y-17151274D01*
X9601996Y-17151274D02*
X9621044Y-17160798D01*
X9621044Y-17160798D02*
X9630568Y-17170322D01*
X9630568Y-17170322D02*
X9640091Y-17189370D01*
X9640091Y-17189370D02*
X9640091Y-17236989D01*
X9640091Y-17236989D02*
X9630568Y-17256036D01*
X9630568Y-17256036D02*
X9621044Y-17265560D01*
X9621044Y-17265560D02*
X9601996Y-17275084D01*
X9601996Y-17275084D02*
X9544853Y-17275084D01*
X9544853Y-17275084D02*
X9525806Y-17265560D01*
X9525806Y-17265560D02*
X9516282Y-17256036D01*
X9735329Y-17275084D02*
X9773425Y-17275084D01*
X9773425Y-17275084D02*
X9792472Y-17265560D01*
X9792472Y-17265560D02*
X9801996Y-17256036D01*
X9801996Y-17256036D02*
X9821044Y-17227465D01*
X9821044Y-17227465D02*
X9830568Y-17189370D01*
X9830568Y-17189370D02*
X9830568Y-17113179D01*
X9830568Y-17113179D02*
X9821044Y-17094131D01*
X9821044Y-17094131D02*
X9811520Y-17084608D01*
X9811520Y-17084608D02*
X9792472Y-17075084D01*
X9792472Y-17075084D02*
X9754377Y-17075084D01*
X9754377Y-17075084D02*
X9735329Y-17084608D01*
X9735329Y-17084608D02*
X9725806Y-17094131D01*
X9725806Y-17094131D02*
X9716282Y-17113179D01*
X9716282Y-17113179D02*
X9716282Y-17160798D01*
X9716282Y-17160798D02*
X9725806Y-17179846D01*
X9725806Y-17179846D02*
X9735329Y-17189370D01*
X9735329Y-17189370D02*
X9754377Y-17198893D01*
X9754377Y-17198893D02*
X9792472Y-17198893D01*
X9792472Y-17198893D02*
X9811520Y-17189370D01*
X9811520Y-17189370D02*
X9821044Y-17179846D01*
X9821044Y-17179846D02*
X9830568Y-17160798D01*
X10001996Y-17141750D02*
X10001996Y-17275084D01*
X9954377Y-17065560D02*
X9906758Y-17208417D01*
X9906758Y-17208417D02*
X10030568Y-17208417D01*
X10097234Y-17075084D02*
X10097234Y-17113179D01*
X10173425Y-17075084D02*
X10173425Y-17113179D01*
X10468663Y-17351274D02*
X10459139Y-17341750D01*
X10459139Y-17341750D02*
X10440091Y-17313179D01*
X10440091Y-17313179D02*
X10430568Y-17294131D01*
X10430568Y-17294131D02*
X10421044Y-17265560D01*
X10421044Y-17265560D02*
X10411520Y-17217941D01*
X10411520Y-17217941D02*
X10411520Y-17179846D01*
X10411520Y-17179846D02*
X10421044Y-17132227D01*
X10421044Y-17132227D02*
X10430568Y-17103655D01*
X10430568Y-17103655D02*
X10440091Y-17084608D01*
X10440091Y-17084608D02*
X10459139Y-17056036D01*
X10459139Y-17056036D02*
X10468663Y-17046512D01*
X10630568Y-17141750D02*
X10630568Y-17275084D01*
X10582949Y-17065560D02*
X10535330Y-17208417D01*
X10535330Y-17208417D02*
X10659139Y-17208417D01*
X10716282Y-17075084D02*
X10849615Y-17075084D01*
X10849615Y-17075084D02*
X10763901Y-17275084D01*
X11078187Y-17275084D02*
X11078187Y-17075084D01*
X11163901Y-17275084D02*
X11163901Y-17170322D01*
X11163901Y-17170322D02*
X11154377Y-17151274D01*
X11154377Y-17151274D02*
X11135330Y-17141750D01*
X11135330Y-17141750D02*
X11106758Y-17141750D01*
X11106758Y-17141750D02*
X11087711Y-17151274D01*
X11087711Y-17151274D02*
X11078187Y-17160798D01*
X11287710Y-17275084D02*
X11268663Y-17265560D01*
X11268663Y-17265560D02*
X11259139Y-17256036D01*
X11259139Y-17256036D02*
X11249615Y-17236989D01*
X11249615Y-17236989D02*
X11249615Y-17179846D01*
X11249615Y-17179846D02*
X11259139Y-17160798D01*
X11259139Y-17160798D02*
X11268663Y-17151274D01*
X11268663Y-17151274D02*
X11287710Y-17141750D01*
X11287710Y-17141750D02*
X11316282Y-17141750D01*
X11316282Y-17141750D02*
X11335330Y-17151274D01*
X11335330Y-17151274D02*
X11344853Y-17160798D01*
X11344853Y-17160798D02*
X11354377Y-17179846D01*
X11354377Y-17179846D02*
X11354377Y-17236989D01*
X11354377Y-17236989D02*
X11344853Y-17256036D01*
X11344853Y-17256036D02*
X11335330Y-17265560D01*
X11335330Y-17265560D02*
X11316282Y-17275084D01*
X11316282Y-17275084D02*
X11287710Y-17275084D01*
X11468663Y-17275084D02*
X11449615Y-17265560D01*
X11449615Y-17265560D02*
X11440091Y-17246512D01*
X11440091Y-17246512D02*
X11440091Y-17075084D01*
X11621044Y-17265560D02*
X11601996Y-17275084D01*
X11601996Y-17275084D02*
X11563901Y-17275084D01*
X11563901Y-17275084D02*
X11544853Y-17265560D01*
X11544853Y-17265560D02*
X11535330Y-17246512D01*
X11535330Y-17246512D02*
X11535330Y-17170322D01*
X11535330Y-17170322D02*
X11544853Y-17151274D01*
X11544853Y-17151274D02*
X11563901Y-17141750D01*
X11563901Y-17141750D02*
X11601996Y-17141750D01*
X11601996Y-17141750D02*
X11621044Y-17151274D01*
X11621044Y-17151274D02*
X11630568Y-17170322D01*
X11630568Y-17170322D02*
X11630568Y-17189370D01*
X11630568Y-17189370D02*
X11535330Y-17208417D01*
X11706758Y-17265560D02*
X11725806Y-17275084D01*
X11725806Y-17275084D02*
X11763901Y-17275084D01*
X11763901Y-17275084D02*
X11782949Y-17265560D01*
X11782949Y-17265560D02*
X11792472Y-17246512D01*
X11792472Y-17246512D02*
X11792472Y-17236989D01*
X11792472Y-17236989D02*
X11782949Y-17217941D01*
X11782949Y-17217941D02*
X11763901Y-17208417D01*
X11763901Y-17208417D02*
X11735330Y-17208417D01*
X11735330Y-17208417D02*
X11716282Y-17198893D01*
X11716282Y-17198893D02*
X11706758Y-17179846D01*
X11706758Y-17179846D02*
X11706758Y-17170322D01*
X11706758Y-17170322D02*
X11716282Y-17151274D01*
X11716282Y-17151274D02*
X11735330Y-17141750D01*
X11735330Y-17141750D02*
X11763901Y-17141750D01*
X11763901Y-17141750D02*
X11782949Y-17151274D01*
X11859139Y-17351274D02*
X11868663Y-17341750D01*
X11868663Y-17341750D02*
X11887711Y-17313179D01*
X11887711Y-17313179D02*
X11897234Y-17294131D01*
X11897234Y-17294131D02*
X11906758Y-17265560D01*
X11906758Y-17265560D02*
X11916282Y-17217941D01*
X11916282Y-17217941D02*
X11916282Y-17179846D01*
X11916282Y-17179846D02*
X11906758Y-17132227D01*
X11906758Y-17132227D02*
X11897234Y-17103655D01*
X11897234Y-17103655D02*
X11887711Y-17084608D01*
X11887711Y-17084608D02*
X11868663Y-17056036D01*
X11868663Y-17056036D02*
X11859139Y-17046512D01*
D13*
X6877491Y-17486491D02*
X6877491Y-17408709D01*
X6799709Y-17408709D01*
X6799709Y-17486491D01*
X6877491Y-17486491D01*
D11*
X7259139Y-17539084D02*
X7144853Y-17539084D01*
X7201996Y-17539084D02*
X7201996Y-17339084D01*
X7201996Y-17339084D02*
X7182948Y-17367655D01*
X7182948Y-17367655D02*
X7163901Y-17386703D01*
X7163901Y-17386703D02*
X7144853Y-17396227D01*
X7344853Y-17520036D02*
X7354377Y-17529560D01*
X7354377Y-17529560D02*
X7344853Y-17539084D01*
X7344853Y-17539084D02*
X7335329Y-17529560D01*
X7335329Y-17529560D02*
X7344853Y-17520036D01*
X7344853Y-17520036D02*
X7344853Y-17539084D01*
X7544853Y-17539084D02*
X7430567Y-17539084D01*
X7487710Y-17539084D02*
X7487710Y-17339084D01*
X7487710Y-17339084D02*
X7468662Y-17367655D01*
X7468662Y-17367655D02*
X7449615Y-17386703D01*
X7449615Y-17386703D02*
X7430567Y-17396227D01*
X7668662Y-17339084D02*
X7687710Y-17339084D01*
X7687710Y-17339084D02*
X7706758Y-17348608D01*
X7706758Y-17348608D02*
X7716282Y-17358131D01*
X7716282Y-17358131D02*
X7725805Y-17377179D01*
X7725805Y-17377179D02*
X7735329Y-17415274D01*
X7735329Y-17415274D02*
X7735329Y-17462893D01*
X7735329Y-17462893D02*
X7725805Y-17500989D01*
X7725805Y-17500989D02*
X7716282Y-17520036D01*
X7716282Y-17520036D02*
X7706758Y-17529560D01*
X7706758Y-17529560D02*
X7687710Y-17539084D01*
X7687710Y-17539084D02*
X7668662Y-17539084D01*
X7668662Y-17539084D02*
X7649615Y-17529560D01*
X7649615Y-17529560D02*
X7640091Y-17520036D01*
X7640091Y-17520036D02*
X7630567Y-17500989D01*
X7630567Y-17500989D02*
X7621043Y-17462893D01*
X7621043Y-17462893D02*
X7621043Y-17415274D01*
X7621043Y-17415274D02*
X7630567Y-17377179D01*
X7630567Y-17377179D02*
X7640091Y-17358131D01*
X7640091Y-17358131D02*
X7649615Y-17348608D01*
X7649615Y-17348608D02*
X7668662Y-17339084D01*
X7859139Y-17339084D02*
X7878186Y-17339084D01*
X7878186Y-17339084D02*
X7897234Y-17348608D01*
X7897234Y-17348608D02*
X7906758Y-17358131D01*
X7906758Y-17358131D02*
X7916282Y-17377179D01*
X7916282Y-17377179D02*
X7925805Y-17415274D01*
X7925805Y-17415274D02*
X7925805Y-17462893D01*
X7925805Y-17462893D02*
X7916282Y-17500989D01*
X7916282Y-17500989D02*
X7906758Y-17520036D01*
X7906758Y-17520036D02*
X7897234Y-17529560D01*
X7897234Y-17529560D02*
X7878186Y-17539084D01*
X7878186Y-17539084D02*
X7859139Y-17539084D01*
X7859139Y-17539084D02*
X7840091Y-17529560D01*
X7840091Y-17529560D02*
X7830567Y-17520036D01*
X7830567Y-17520036D02*
X7821043Y-17500989D01*
X7821043Y-17500989D02*
X7811520Y-17462893D01*
X7811520Y-17462893D02*
X7811520Y-17415274D01*
X7811520Y-17415274D02*
X7821043Y-17377179D01*
X7821043Y-17377179D02*
X7830567Y-17358131D01*
X7830567Y-17358131D02*
X7840091Y-17348608D01*
X7840091Y-17348608D02*
X7859139Y-17339084D01*
X8011520Y-17539084D02*
X8011520Y-17405750D01*
X8011520Y-17424798D02*
X8021043Y-17415274D01*
X8021043Y-17415274D02*
X8040091Y-17405750D01*
X8040091Y-17405750D02*
X8068663Y-17405750D01*
X8068663Y-17405750D02*
X8087710Y-17415274D01*
X8087710Y-17415274D02*
X8097234Y-17434322D01*
X8097234Y-17434322D02*
X8097234Y-17539084D01*
X8097234Y-17434322D02*
X8106758Y-17415274D01*
X8106758Y-17415274D02*
X8125805Y-17405750D01*
X8125805Y-17405750D02*
X8154377Y-17405750D01*
X8154377Y-17405750D02*
X8173424Y-17415274D01*
X8173424Y-17415274D02*
X8182948Y-17434322D01*
X8182948Y-17434322D02*
X8182948Y-17539084D01*
X8278186Y-17539084D02*
X8278186Y-17405750D01*
X8278186Y-17424798D02*
X8287710Y-17415274D01*
X8287710Y-17415274D02*
X8306758Y-17405750D01*
X8306758Y-17405750D02*
X8335329Y-17405750D01*
X8335329Y-17405750D02*
X8354377Y-17415274D01*
X8354377Y-17415274D02*
X8363901Y-17434322D01*
X8363901Y-17434322D02*
X8363901Y-17539084D01*
X8363901Y-17434322D02*
X8373424Y-17415274D01*
X8373424Y-17415274D02*
X8392472Y-17405750D01*
X8392472Y-17405750D02*
X8421044Y-17405750D01*
X8421044Y-17405750D02*
X8440091Y-17415274D01*
X8440091Y-17415274D02*
X8449615Y-17434322D01*
X8449615Y-17434322D02*
X8449615Y-17539084D01*
X8840091Y-17329560D02*
X8668663Y-17586703D01*
X9097234Y-17339084D02*
X9116282Y-17339084D01*
X9116282Y-17339084D02*
X9135329Y-17348608D01*
X9135329Y-17348608D02*
X9144853Y-17358131D01*
X9144853Y-17358131D02*
X9154377Y-17377179D01*
X9154377Y-17377179D02*
X9163901Y-17415274D01*
X9163901Y-17415274D02*
X9163901Y-17462893D01*
X9163901Y-17462893D02*
X9154377Y-17500989D01*
X9154377Y-17500989D02*
X9144853Y-17520036D01*
X9144853Y-17520036D02*
X9135329Y-17529560D01*
X9135329Y-17529560D02*
X9116282Y-17539084D01*
X9116282Y-17539084D02*
X9097234Y-17539084D01*
X9097234Y-17539084D02*
X9078187Y-17529560D01*
X9078187Y-17529560D02*
X9068663Y-17520036D01*
X9068663Y-17520036D02*
X9059139Y-17500989D01*
X9059139Y-17500989D02*
X9049615Y-17462893D01*
X9049615Y-17462893D02*
X9049615Y-17415274D01*
X9049615Y-17415274D02*
X9059139Y-17377179D01*
X9059139Y-17377179D02*
X9068663Y-17358131D01*
X9068663Y-17358131D02*
X9078187Y-17348608D01*
X9078187Y-17348608D02*
X9097234Y-17339084D01*
X9249615Y-17520036D02*
X9259139Y-17529560D01*
X9259139Y-17529560D02*
X9249615Y-17539084D01*
X9249615Y-17539084D02*
X9240091Y-17529560D01*
X9240091Y-17529560D02*
X9249615Y-17520036D01*
X9249615Y-17520036D02*
X9249615Y-17539084D01*
X9382948Y-17339084D02*
X9401996Y-17339084D01*
X9401996Y-17339084D02*
X9421044Y-17348608D01*
X9421044Y-17348608D02*
X9430568Y-17358131D01*
X9430568Y-17358131D02*
X9440091Y-17377179D01*
X9440091Y-17377179D02*
X9449615Y-17415274D01*
X9449615Y-17415274D02*
X9449615Y-17462893D01*
X9449615Y-17462893D02*
X9440091Y-17500989D01*
X9440091Y-17500989D02*
X9430568Y-17520036D01*
X9430568Y-17520036D02*
X9421044Y-17529560D01*
X9421044Y-17529560D02*
X9401996Y-17539084D01*
X9401996Y-17539084D02*
X9382948Y-17539084D01*
X9382948Y-17539084D02*
X9363901Y-17529560D01*
X9363901Y-17529560D02*
X9354377Y-17520036D01*
X9354377Y-17520036D02*
X9344853Y-17500989D01*
X9344853Y-17500989D02*
X9335329Y-17462893D01*
X9335329Y-17462893D02*
X9335329Y-17415274D01*
X9335329Y-17415274D02*
X9344853Y-17377179D01*
X9344853Y-17377179D02*
X9354377Y-17358131D01*
X9354377Y-17358131D02*
X9363901Y-17348608D01*
X9363901Y-17348608D02*
X9382948Y-17339084D01*
X9621044Y-17405750D02*
X9621044Y-17539084D01*
X9573425Y-17329560D02*
X9525806Y-17472417D01*
X9525806Y-17472417D02*
X9649615Y-17472417D01*
X9706758Y-17339084D02*
X9830568Y-17339084D01*
X9830568Y-17339084D02*
X9763901Y-17415274D01*
X9763901Y-17415274D02*
X9792472Y-17415274D01*
X9792472Y-17415274D02*
X9811520Y-17424798D01*
X9811520Y-17424798D02*
X9821044Y-17434322D01*
X9821044Y-17434322D02*
X9830568Y-17453370D01*
X9830568Y-17453370D02*
X9830568Y-17500989D01*
X9830568Y-17500989D02*
X9821044Y-17520036D01*
X9821044Y-17520036D02*
X9811520Y-17529560D01*
X9811520Y-17529560D02*
X9792472Y-17539084D01*
X9792472Y-17539084D02*
X9735329Y-17539084D01*
X9735329Y-17539084D02*
X9716282Y-17529560D01*
X9716282Y-17529560D02*
X9706758Y-17520036D01*
X9897234Y-17339084D02*
X10021044Y-17339084D01*
X10021044Y-17339084D02*
X9954377Y-17415274D01*
X9954377Y-17415274D02*
X9982949Y-17415274D01*
X9982949Y-17415274D02*
X10001996Y-17424798D01*
X10001996Y-17424798D02*
X10011520Y-17434322D01*
X10011520Y-17434322D02*
X10021044Y-17453370D01*
X10021044Y-17453370D02*
X10021044Y-17500989D01*
X10021044Y-17500989D02*
X10011520Y-17520036D01*
X10011520Y-17520036D02*
X10001996Y-17529560D01*
X10001996Y-17529560D02*
X9982949Y-17539084D01*
X9982949Y-17539084D02*
X9925806Y-17539084D01*
X9925806Y-17539084D02*
X9906758Y-17529560D01*
X9906758Y-17529560D02*
X9897234Y-17520036D01*
X10097234Y-17339084D02*
X10097234Y-17377179D01*
X10173425Y-17339084D02*
X10173425Y-17377179D01*
X10468663Y-17615274D02*
X10459139Y-17605750D01*
X10459139Y-17605750D02*
X10440091Y-17577179D01*
X10440091Y-17577179D02*
X10430568Y-17558131D01*
X10430568Y-17558131D02*
X10421044Y-17529560D01*
X10421044Y-17529560D02*
X10411520Y-17481941D01*
X10411520Y-17481941D02*
X10411520Y-17443846D01*
X10411520Y-17443846D02*
X10421044Y-17396227D01*
X10421044Y-17396227D02*
X10430568Y-17367655D01*
X10430568Y-17367655D02*
X10440091Y-17348608D01*
X10440091Y-17348608D02*
X10459139Y-17320036D01*
X10459139Y-17320036D02*
X10468663Y-17310512D01*
X10630568Y-17339084D02*
X10592472Y-17339084D01*
X10592472Y-17339084D02*
X10573425Y-17348608D01*
X10573425Y-17348608D02*
X10563901Y-17358131D01*
X10563901Y-17358131D02*
X10544853Y-17386703D01*
X10544853Y-17386703D02*
X10535330Y-17424798D01*
X10535330Y-17424798D02*
X10535330Y-17500989D01*
X10535330Y-17500989D02*
X10544853Y-17520036D01*
X10544853Y-17520036D02*
X10554377Y-17529560D01*
X10554377Y-17529560D02*
X10573425Y-17539084D01*
X10573425Y-17539084D02*
X10611520Y-17539084D01*
X10611520Y-17539084D02*
X10630568Y-17529560D01*
X10630568Y-17529560D02*
X10640091Y-17520036D01*
X10640091Y-17520036D02*
X10649615Y-17500989D01*
X10649615Y-17500989D02*
X10649615Y-17453370D01*
X10649615Y-17453370D02*
X10640091Y-17434322D01*
X10640091Y-17434322D02*
X10630568Y-17424798D01*
X10630568Y-17424798D02*
X10611520Y-17415274D01*
X10611520Y-17415274D02*
X10573425Y-17415274D01*
X10573425Y-17415274D02*
X10554377Y-17424798D01*
X10554377Y-17424798D02*
X10544853Y-17434322D01*
X10544853Y-17434322D02*
X10535330Y-17453370D01*
X10887711Y-17539084D02*
X10887711Y-17339084D01*
X10973425Y-17539084D02*
X10973425Y-17434322D01*
X10973425Y-17434322D02*
X10963901Y-17415274D01*
X10963901Y-17415274D02*
X10944853Y-17405750D01*
X10944853Y-17405750D02*
X10916282Y-17405750D01*
X10916282Y-17405750D02*
X10897234Y-17415274D01*
X10897234Y-17415274D02*
X10887711Y-17424798D01*
X11097234Y-17539084D02*
X11078187Y-17529560D01*
X11078187Y-17529560D02*
X11068663Y-17520036D01*
X11068663Y-17520036D02*
X11059139Y-17500989D01*
X11059139Y-17500989D02*
X11059139Y-17443846D01*
X11059139Y-17443846D02*
X11068663Y-17424798D01*
X11068663Y-17424798D02*
X11078187Y-17415274D01*
X11078187Y-17415274D02*
X11097234Y-17405750D01*
X11097234Y-17405750D02*
X11125806Y-17405750D01*
X11125806Y-17405750D02*
X11144853Y-17415274D01*
X11144853Y-17415274D02*
X11154377Y-17424798D01*
X11154377Y-17424798D02*
X11163901Y-17443846D01*
X11163901Y-17443846D02*
X11163901Y-17500989D01*
X11163901Y-17500989D02*
X11154377Y-17520036D01*
X11154377Y-17520036D02*
X11144853Y-17529560D01*
X11144853Y-17529560D02*
X11125806Y-17539084D01*
X11125806Y-17539084D02*
X11097234Y-17539084D01*
X11278187Y-17539084D02*
X11259139Y-17529560D01*
X11259139Y-17529560D02*
X11249615Y-17510512D01*
X11249615Y-17510512D02*
X11249615Y-17339084D01*
X11430568Y-17529560D02*
X11411520Y-17539084D01*
X11411520Y-17539084D02*
X11373425Y-17539084D01*
X11373425Y-17539084D02*
X11354377Y-17529560D01*
X11354377Y-17529560D02*
X11344853Y-17510512D01*
X11344853Y-17510512D02*
X11344853Y-17434322D01*
X11344853Y-17434322D02*
X11354377Y-17415274D01*
X11354377Y-17415274D02*
X11373425Y-17405750D01*
X11373425Y-17405750D02*
X11411520Y-17405750D01*
X11411520Y-17405750D02*
X11430568Y-17415274D01*
X11430568Y-17415274D02*
X11440091Y-17434322D01*
X11440091Y-17434322D02*
X11440091Y-17453370D01*
X11440091Y-17453370D02*
X11344853Y-17472417D01*
X11516282Y-17529560D02*
X11535330Y-17539084D01*
X11535330Y-17539084D02*
X11573425Y-17539084D01*
X11573425Y-17539084D02*
X11592472Y-17529560D01*
X11592472Y-17529560D02*
X11601996Y-17510512D01*
X11601996Y-17510512D02*
X11601996Y-17500989D01*
X11601996Y-17500989D02*
X11592472Y-17481941D01*
X11592472Y-17481941D02*
X11573425Y-17472417D01*
X11573425Y-17472417D02*
X11544853Y-17472417D01*
X11544853Y-17472417D02*
X11525806Y-17462893D01*
X11525806Y-17462893D02*
X11516282Y-17443846D01*
X11516282Y-17443846D02*
X11516282Y-17434322D01*
X11516282Y-17434322D02*
X11525806Y-17415274D01*
X11525806Y-17415274D02*
X11544853Y-17405750D01*
X11544853Y-17405750D02*
X11573425Y-17405750D01*
X11573425Y-17405750D02*
X11592472Y-17415274D01*
X11668663Y-17615274D02*
X11678187Y-17605750D01*
X11678187Y-17605750D02*
X11697234Y-17577179D01*
X11697234Y-17577179D02*
X11706758Y-17558131D01*
X11706758Y-17558131D02*
X11716282Y-17529560D01*
X11716282Y-17529560D02*
X11725806Y-17481941D01*
X11725806Y-17481941D02*
X11725806Y-17443846D01*
X11725806Y-17443846D02*
X11716282Y-17396227D01*
X11716282Y-17396227D02*
X11706758Y-17367655D01*
X11706758Y-17367655D02*
X11697234Y-17348608D01*
X11697234Y-17348608D02*
X11678187Y-17320036D01*
X11678187Y-17320036D02*
X11668663Y-17310512D01*
M02*
